<?xml version="1.0" encoding="UTF-8"?>
<svg version="1.1" xmlns="http://www.w3.org/2000/svg" width="2084" height="2084">
<path d="M0 0 C0.81500977 0.26149841 1.63001953 0.52299683 2.46972656 0.79241943 C90.29912173 29.05122654 174.7926388 69.46484071 309.70605469 161.24511719 C312.59912596 163.45833519 315.51506929 165.63821155 318.4375 167.8125 C328.52122859 175.36097296 338.33055105 183.19319485 347.90625 191.375 C350.7955132 193.83915964 353.73518458 196.23661 356.6875 198.625 C361.13903808 202.24834495 365.42382455 206.01963872 369.66796875 209.8828125 C371.75823889 211.78051169 373.86986115 213.64733415 376 215.5 C379.77511519 218.79190044 383.5095892 222.12646346 387.22192383 225.48901367 C388.92012365 227.02394514 390.62347964 228.55322657 392.33569336 230.07250977 C402.50323921 239.20908407 412.09507224 248.94287567 421.74682617 258.61645508 C424.30943823 261.1847941 426.87655832 263.74857308 429.44501209 266.31106853 C431.45016072 268.31257917 433.45289171 270.31649539 435.45493126 272.32111549 C436.8531996 273.72035829 438.25345152 275.11761801 439.65376282 276.51481628 C444.11257317 280.9899378 448.44526924 285.51440206 452.55317688 290.31506348 C454.75673922 292.88128088 457.0695678 295.33744891 459.375 297.8125 C463.72004303 302.51028818 467.80609467 307.36593252 471.8203125 312.3515625 C473.97757399 314.97275119 476.21311 317.49154281 478.5 320 C483.20423388 325.17546974 487.61715487 330.5514389 492 336 C492.90210662 337.10956783 493.80446083 338.21893441 494.70703125 339.328125 C502.4129594 348.83734517 509.76100898 358.59742459 517.06787109 368.41503906 C518.97788075 370.97040705 520.90227326 373.51420916 522.83203125 376.0546875 C530.65065636 386.36306483 538.16305186 396.82235902 545.36865234 407.56835938 C547.03717489 410.05541184 548.7155181 412.53564549 550.39453125 415.015625 C564.43932381 435.83636188 577.53712729 457.19876926 590 479 C590.57073242 479.99580078 591.14146484 480.99160156 591.72949219 482.01757812 C627.60632451 544.78685836 656.08115622 611.07349805 678.5625 679.75 C678.97330811 680.99539551 679.38411621 682.24079102 679.80737305 683.52392578 C680.68736943 686.21405258 681.5148315 688.91536006 682.32398033 691.62755871 C683.49216121 695.48691395 684.8223532 699.25693751 686.21206093 703.04163837 C694.82377906 727.97800366 694.32156569 752.85550164 694.23515821 778.97580206 C694.22415054 784.98091807 694.2557369 790.98573885 694.28534659 796.99075641 C694.3513494 810.76071277 694.35765343 824.53028462 694.34467439 838.30036255 C694.33499232 848.94857027 694.34188782 859.59665649 694.36009598 870.24485207 C694.36266024 871.78323315 694.36521981 873.32161424 694.36777473 874.85999534 C694.37164237 877.17919811 694.37551831 879.49840086 694.37943103 881.81760356 C694.41534912 903.34030941 694.43321775 924.86296961 694.41274071 946.38569927 C694.41159126 947.59895943 694.41159126 947.59895943 694.41041858 948.83672989 C694.4040987 955.40199096 694.3973208 961.96725157 694.39050244 968.53251214 C694.36436231 994.10241863 694.39642129 1019.67166246 694.47509766 1045.24145508 C694.56371686 1074.07911735 694.60826308 1102.91637315 694.58918345 1131.75417835 C694.58728187 1134.84129983 694.58552276 1137.92842137 694.58385086 1141.01554298 C694.58340886 1141.77546945 694.58296685 1142.53539592 694.58251145 1143.31835047 C694.5767585 1154.69123443 694.60431702 1166.06371275 694.64957809 1177.43649864 C694.70113088 1190.40499453 694.7055937 1203.3725926 694.65113668 1216.34109446 C694.62463766 1222.93553932 694.61869164 1229.52862927 694.67079544 1236.12306404 C694.90865668 1268.43649104 691.46529837 1296.30666028 680.73928896 1326.86054601 C679.30375035 1331.01490104 678.01339518 1335.21396239 676.70801866 1339.41076201 C675.32534382 1343.80230422 673.82062138 1348.15029065 672.3125 1352.5 C671.99149323 1353.43620178 671.67048645 1354.37240356 671.3397522 1355.3369751 C660.76520453 1386.11491645 648.56030883 1416.41566344 635 1446 C634.26136719 1447.62518555 634.26136719 1447.62518555 633.5078125 1449.28320312 C622.1640518 1474.21408019 610.16448535 1498.70020199 596.47119141 1522.42919922 C594.66093987 1525.5924831 592.90246102 1528.78228685 591.14990234 1531.9777832 C569.50080741 1571.43528587 544.15078004 1609.03761678 516.75488281 1644.70605469 C514.54166481 1647.59912596 512.36178845 1650.51506929 510.1875 1653.4375 C502.63902704 1663.52122859 494.80680515 1673.33055105 486.625 1682.90625 C484.16084036 1685.7955132 481.76339 1688.73518458 479.375 1691.6875 C475.75165505 1696.13903808 471.98036128 1700.42382455 468.1171875 1704.66796875 C466.21948831 1706.75823889 464.35266585 1708.86986115 462.5 1711 C458.38683615 1715.71554941 454.20146201 1720.36310796 450 1725 C449.23679443 1725.85005615 448.47358887 1726.7001123 447.68725586 1727.57592773 C438.3627683 1737.83470458 428.54697489 1747.6061694 418.73535156 1757.39501953 C416.23541788 1759.88921754 413.74005719 1762.38793521 411.24596786 1764.88797569 C409.29507161 1766.84251009 407.34176982 1768.79462658 405.38776398 1770.74605179 C404.02618995 1772.10665245 402.66659699 1773.4692347 401.30706787 1774.83187866 C396.8941858 1779.22823209 392.4262012 1783.49227243 387.69386292 1787.54425049 C385.12541048 1789.75164481 382.6656244 1792.0667051 380.1875 1794.375 C375.48971182 1798.72004303 370.63406748 1802.80609467 365.6484375 1806.8203125 C363.02724881 1808.97757399 360.50845719 1811.21311 358 1813.5 C352.82453026 1818.20423388 347.4485611 1822.61715487 342 1827 C340.89043217 1827.90210662 339.78106559 1828.80446083 338.671875 1829.70703125 C329.16265483 1837.4129594 319.40257541 1844.76100898 309.58496094 1852.06787109 C307.02959295 1853.97788075 304.48579084 1855.90227326 301.9453125 1857.83203125 C291.64117813 1865.64743819 281.18639258 1873.15720918 270.44482422 1880.35986328 C267.91827569 1882.05482563 265.3985109 1883.75957989 262.87890625 1885.46484375 C185.60661215 1937.57871651 101.28497666 1978.8086618 -1.75 2013.5625 C-2.99539551 2013.97330811 -4.24079102 2014.38411621 -5.52392578 2014.80737305 C-8.21405258 2015.68736943 -10.91536006 2016.5148315 -13.62755871 2017.32398033 C-17.48691395 2018.49216121 -21.25693751 2019.8223532 -25.04163837 2021.21206093 C-49.97800366 2029.82377906 -74.85550164 2029.32156569 -100.97580206 2029.23515821 C-106.98091807 2029.22415054 -112.98573885 2029.2557369 -118.99075641 2029.28534659 C-132.76071277 2029.3513494 -146.53028462 2029.35765343 -160.30036255 2029.34467439 C-170.94857027 2029.33499232 -181.59665649 2029.34188782 -192.24485207 2029.36009598 C-193.78323315 2029.36266024 -195.32161424 2029.36521981 -196.85999534 2029.36777473 C-199.17919811 2029.37164237 -201.49840086 2029.37551831 -203.81760356 2029.37943103 C-225.34030941 2029.41534912 -246.86296961 2029.43321775 -268.38569927 2029.41274071 C-269.19453937 2029.41197441 -270.00337948 2029.4112081 -270.83672989 2029.41041858 C-277.40199096 2029.4040987 -283.96725157 2029.3973208 -290.53251214 2029.39050244 C-316.10241863 2029.36436231 -341.67166246 2029.39642129 -367.24145508 2029.47509766 C-396.07911735 2029.56371686 -424.91637315 2029.60826308 -453.75417835 2029.58918345 C-456.84129983 2029.58728187 -459.92842137 2029.58552276 -463.01554298 2029.58385086 C-464.15543269 2029.58318785 -464.15543269 2029.58318785 -465.31835047 2029.58251145 C-476.69123443 2029.5767585 -488.06371275 2029.60431702 -499.43649864 2029.64957809 C-512.40499453 2029.70113088 -525.3725926 2029.7055937 -538.34109446 2029.65113668 C-544.93553932 2029.62463766 -551.52862927 2029.61869164 -558.12306404 2029.67079544 C-590.43649104 2029.90865668 -618.30666028 2026.46529837 -648.86054601 2015.73928896 C-653.01490104 2014.30375035 -657.21396239 2013.01339518 -661.41076201 2011.70801866 C-665.80230422 2010.32534382 -670.15029065 2008.82062138 -674.5 2007.3125 C-675.43620178 2006.99149323 -676.37240356 2006.67048645 -677.3369751 2006.3397522 C-708.11491645 1995.76520453 -738.41566344 1983.56030883 -768 1970 C-769.08345703 1969.50757813 -770.16691406 1969.01515625 -771.28320312 1968.5078125 C-796.21408019 1957.1640518 -820.70020199 1945.16448535 -844.42919922 1931.47119141 C-847.5924831 1929.66093987 -850.78228685 1927.90246102 -853.9777832 1926.14990234 C-893.43528587 1904.50080741 -931.03761678 1879.15078004 -966.70605469 1851.75488281 C-969.59912596 1849.54166481 -972.51506929 1847.36178845 -975.4375 1845.1875 C-985.52122859 1837.63902704 -995.33055105 1829.80680515 -1004.90625 1821.625 C-1007.7955132 1819.16084036 -1010.73518458 1816.76339 -1013.6875 1814.375 C-1018.13903808 1810.75165505 -1022.42382455 1806.98036128 -1026.66796875 1803.1171875 C-1028.75823889 1801.21948831 -1030.86986115 1799.35266585 -1033 1797.5 C-1036.77511519 1794.20809956 -1040.5095892 1790.87353654 -1044.22192383 1787.51098633 C-1045.92012365 1785.97605486 -1047.62347964 1784.44677343 -1049.33569336 1782.92749023 C-1059.50323921 1773.79091593 -1069.09507224 1764.05712433 -1078.74682617 1754.38354492 C-1081.30943823 1751.8152059 -1083.87655832 1749.25142692 -1086.44501209 1746.68893147 C-1088.45016072 1744.68742083 -1090.45289171 1742.68350461 -1092.45493126 1740.67888451 C-1093.8531996 1739.27964171 -1095.25345152 1737.88238199 -1096.65376282 1736.48518372 C-1101.11257317 1732.0100622 -1105.44526924 1727.48559794 -1109.55317688 1722.68493652 C-1111.75673922 1720.11871912 -1114.0695678 1717.66255109 -1116.375 1715.1875 C-1120.72004303 1710.48971182 -1124.80609467 1705.63406748 -1128.8203125 1700.6484375 C-1130.97757399 1698.02724881 -1133.21311 1695.50845719 -1135.5 1693 C-1140.20423388 1687.82453026 -1144.61715487 1682.4485611 -1149 1677 C-1149.90210662 1675.89043217 -1150.80446083 1674.78106559 -1151.70703125 1673.671875 C-1159.4129594 1664.16265483 -1166.76100898 1654.40257541 -1174.06787109 1644.58496094 C-1175.97788075 1642.02959295 -1177.90227326 1639.48579084 -1179.83203125 1636.9453125 C-1187.61848568 1626.67971339 -1195.10373399 1616.26721008 -1202.27832031 1605.56494141 C-1204.1120256 1602.83310537 -1205.95824812 1600.10996154 -1207.8046875 1597.38671875 C-1227.90814154 1567.61809507 -1246.14484794 1536.71171151 -1263 1505 C-1263.48645996 1504.09024414 -1263.97291992 1503.18048828 -1264.47412109 1502.24316406 C-1302.04177556 1431.88480409 -1330.63436775 1357.075695 -1351 1280 C-1351.21358154 1279.19316772 -1351.42716309 1278.38633545 -1351.6472168 1277.55505371 C-1375.46989261 1187.2004539 -1386.34002047 1093.95080763 -1335 678 C-1334.73850159 677.18499023 -1334.47700317 676.36998047 -1334.20758057 675.53027344 C-1305.29607082 585.67225485 -1263.68413614 498.64739734 -1200 404 C-1199.2255957 402.87803223 -1199.2255957 402.87803223 -1198.43554688 401.73339844 C-1190.55568887 390.31850532 -1182.20278686 379.29280176 -1173.75488281 368.29394531 C-1171.54166481 365.40087404 -1169.36178845 362.48493071 -1167.1875 359.5625 C-1159.63902704 349.47877141 -1151.80680515 339.66944895 -1143.625 330.09375 C-1141.16084036 327.2044868 -1138.76339 324.26481542 -1136.375 321.3125 C-1132.75165505 316.86096192 -1128.98036128 312.57617545 -1125.1171875 308.33203125 C-1123.21948831 306.24176111 -1121.35266585 304.13013885 -1119.5 302 C-1116.20809956 298.22488481 -1112.87353654 294.4904108 -1109.51098633 290.77807617 C-1107.97605486 289.07987635 -1106.44677343 287.37652036 -1104.92749023 285.66430664 C-1095.79091593 275.49676079 -1086.05712433 265.90492776 -1076.38354492 256.25317383 C-1073.8152059 253.69056177 -1071.25142692 251.12344168 -1068.68893147 248.55498791 C-1066.68742083 246.54983928 -1064.68350461 244.54710829 -1062.67888451 242.54506874 C-1061.27964171 241.1468004 -1059.88238199 239.74654848 -1058.48518372 238.34623718 C-1054.0100622 233.88742683 -1049.48559794 229.55473076 -1044.68493652 225.44682312 C-1042.11871912 223.24326078 -1039.66255109 220.9304322 -1037.1875 218.625 C-1032.48971182 214.27995697 -1027.63406748 210.19390533 -1022.6484375 206.1796875 C-1020.02724881 204.02242601 -1017.50845719 201.78689 -1015 199.5 C-1009.82453026 194.79576612 -1004.4485611 190.38284513 -999 186 C-997.89043217 185.09789338 -996.78106559 184.19553917 -995.671875 183.29296875 C-986.16265483 175.5870406 -976.40257541 168.23899102 -966.58496094 160.93212891 C-964.02959295 159.02211925 -961.48579084 157.09772674 -958.9453125 155.16796875 C-948.67971339 147.38151432 -938.26721008 139.89626601 -927.56494141 132.72167969 C-924.83310537 130.8879744 -922.10996154 129.04175188 -919.38671875 127.1953125 C-889.61809507 107.09185846 -858.71171151 88.85515206 -827 72 C-826.09024414 71.51354004 -825.18048828 71.02708008 -824.24316406 70.52587891 C-753.88480409 32.95822444 -679.075695 4.36563225 -602 -16 C-601.19316772 -16.21358154 -600.38633545 -16.42716309 -599.55505371 -16.6472168 C-509.2004539 -40.46989261 -415.95080763 -51.34002047 0 0 Z " fill="#242C2D" transform="translate(1391,56)"/>
<path d="M0 0 C3.4073306 1.36992726 6.15887464 3.74511202 9.03662109 5.98120117 C10.48122761 7.08499033 11.92657036 8.18781645 13.37255859 9.28979492 C14.12762695 9.86713379 14.88269531 10.44447266 15.66064453 11.03930664 C19.46016707 13.9206246 23.31336802 16.72801387 27.16162109 19.54370117 C33.9891264 24.55434966 40.74851336 29.647203 47.47412109 34.79370117 C57.21962145 42.24893287 67.0744573 49.54499337 76.97412109 56.79370117 C87.89806965 64.79240827 98.74000104 72.88116776 109.48925781 81.11352539 C114.26138205 84.75841805 119.06156393 88.34059701 123.97412109 91.79370117 C130.75049628 96.55690873 137.30992545 101.59276075 143.88427734 106.62963867 C149.70264631 111.08094101 155.56309971 115.46632178 161.47412109 119.79370117 C168.30801917 124.7967062 175.06350583 129.89284959 181.78662109 135.04370117 C187.98204201 139.78874898 194.21219613 144.44839338 200.59741211 148.93408203 C205.90870501 152.69111475 211.06219953 156.6474901 216.22412109 160.60620117 C222.73940007 165.60218047 229.29440663 170.51969855 235.97412109 175.29370117 C246.14459168 182.5678011 256.07818671 190.15158376 265.97412109 197.79370117 C266.6964499 198.19435124 267.41877871 198.59500132 268.16299628 199.0077923 C272.07422547 201.43516671 274.55834831 203.28879369 275.81415132 207.83422671 C276.13645697 211.74656567 276.17150263 215.60934947 276.11227798 219.529356 C276.12227702 221.05265164 276.1362163 222.5759256 276.15373302 224.09915334 C276.19051155 228.2965973 276.17111432 232.49220638 276.1427318 236.68964662 C276.12174154 241.25150714 276.15279507 245.81305878 276.17725348 250.37486088 C276.21288286 258.37378031 276.21489053 266.37216582 276.19501114 274.3711319 C276.16552952 286.26568348 276.18731276 298.15975447 276.21921854 310.05427983 C276.2744129 331.29605382 276.27765955 352.53760043 276.2585914 373.77942371 C276.24194497 392.36943832 276.24114549 410.9593651 276.25634003 429.54938126 C276.25831713 432.04082021 276.26029344 434.53225917 276.26226895 437.02369813 C276.26527307 440.77784833 276.26829646 444.53199852 276.2713681 448.28614867 C276.29961552 483.19980206 276.31020979 518.11342591 276.28323746 553.02708244 C276.28222072 554.343839 276.28120398 555.66059555 276.28015643 557.01725382 C276.27493132 563.69141536 276.26951249 570.36557674 276.26398686 577.03973804 C276.26343826 577.70238237 276.26288966 578.3650267 276.26232444 579.04775116 C276.26010397 581.72753929 276.25788294 584.40732741 276.25564518 587.08711552 C276.22029374 629.47494641 276.23650169 671.86244541 276.29833984 714.25024414 C276.36654574 761.0976236 276.39862599 807.94483488 276.37512755 854.79226696 C276.3727332 859.78497446 276.37044591 864.77768199 276.36821747 869.77038956 C276.36764062 870.99976118 276.36706377 872.22913279 276.36646944 873.4957581 C276.35844362 892.07447641 276.37842401 910.65303097 276.41223907 929.23171616 C276.45058818 950.35458434 276.45025774 971.47704776 276.39825502 992.59989534 C276.37026313 1004.42714702 276.37272057 1016.25347444 276.41866292 1028.08067511 C276.44629052 1035.97567721 276.43409999 1043.86996267 276.38918854 1051.76488388 C276.36469853 1056.26712709 276.35770013 1060.76754792 276.39894512 1065.26970981 C276.43611152 1069.36603339 276.42266573 1073.45895506 276.36883277 1077.55506504 C276.3583392 1079.02736464 276.36626687 1080.49994024 276.39487675 1081.97199924 C276.59233249 1092.88992295 276.59233249 1092.88992295 272.59376904 1097.59411551 C269.8183619 1099.89444559 267.0153581 1101.86406744 263.97412109 1103.79370117 C262.44452606 1104.93175837 260.92184806 1106.07928353 259.41162109 1107.24291992 C257.93464112 1108.32533713 256.45542535 1109.40470939 254.97412109 1110.48120117 C253.31781216 1111.69336023 251.66156389 1112.90560219 250.00537109 1114.11791992 C249.17134766 1114.72684082 248.33732422 1115.33576172 247.47802734 1115.96313477 C243.46799093 1118.8948092 239.47141433 1121.84468826 235.47412109 1124.79370117 C230.71823018 1128.3017278 225.9599412 1131.80620795 221.18896484 1135.29370117 C212.47688896 1141.67147071 203.88053435 1148.16541593 195.38525391 1154.8293457 C190.51342421 1158.63673303 185.56038752 1162.28226947 180.50097656 1165.8347168 C175.16222624 1169.60680804 169.97532624 1173.56865403 164.78662109 1177.54370117 C155.71179321 1184.49310669 146.55039545 1191.31238393 137.33007812 1198.06713867 C123.07150948 1208.51652701 108.84144435 1219.00369794 94.80224609 1229.74682617 C85.97989678 1236.49753071 77.13979782 1243.18284601 68.06787109 1249.59448242 C61.32260311 1254.38941408 54.75769518 1259.4253615 48.18896484 1264.45776367 C37.60995457 1272.55650399 26.94390022 1280.49682081 16.11279297 1288.25463867 C12.50800951 1290.84876595 8.92806326 1293.47659076 5.34912109 1296.10620117 C4.70281738 1296.580979 4.05651367 1297.05575684 3.390625 1297.54492188 C1.91804818 1298.62729227 0.44601612 1299.7104038 -1.02587891 1300.79370117 C-6.34085235 1297.91590467 -11.02588012 1294.64452198 -15.77587891 1290.91870117 C-21.90578439 1286.17040127 -28.08425557 1281.50220252 -34.33837891 1276.91870117 C-40.93086672 1272.08286195 -47.4918197 1267.20821267 -54.02587891 1262.29370117 C-60.524211 1257.40860461 -67.04093695 1252.55030208 -73.58837891 1247.73120117 C-74.36971191 1247.15611816 -75.15104492 1246.58103516 -75.95605469 1245.98852539 C-79.86839154 1243.11106995 -83.78395773 1240.23806457 -87.70166016 1237.36791992 C-97.06009671 1230.50292449 -106.32646879 1223.53087136 -115.54101562 1216.47387695 C-120.84034356 1212.42631227 -126.19335323 1208.48609513 -131.64916992 1204.65332031 C-136.96046282 1200.89628759 -142.11395734 1196.93991224 -147.27587891 1192.98120117 C-153.79115459 1187.9852244 -160.34611465 1183.06762955 -167.02587891 1178.29370117 C-174.5086559 1172.94302821 -181.83250062 1167.40363508 -189.13476562 1161.80981445 C-198.01151053 1155.01826563 -207.00833501 1148.39650528 -216.02587891 1141.79370117 C-226.94094602 1133.80149722 -237.77492904 1125.72038322 -248.51464844 1117.49365234 C-254.53002898 1112.89852308 -260.61797454 1108.43768564 -266.82275391 1104.10229492 C-267.87978516 1103.34045898 -268.93681641 1102.57862305 -270.02587891 1101.79370117 C-271.13510185 1101.17978368 -271.13510185 1101.17978368 -272.26673334 1100.55346382 C-276.15667669 1098.13197592 -278.61254064 1096.28320804 -279.86718752 1091.76195919 C-280.19689293 1087.86191703 -280.23725888 1084.01162295 -280.18358898 1080.10324764 C-280.19571304 1078.5848706 -280.21177056 1077.06652078 -280.23139909 1075.54822221 C-280.27399557 1071.36447046 -280.2604507 1067.18247977 -280.23789915 1062.99864094 C-280.22321303 1058.45144545 -280.26045864 1053.90462905 -280.29108173 1049.35755402 C-280.33750083 1041.38435014 -280.3502172 1033.41163812 -280.34097672 1025.43831253 C-280.32726919 1013.58162575 -280.36467004 1001.72548453 -280.41184835 989.86890372 C-280.49896554 967.4615833 -280.52420863 945.05444791 -280.52936187 922.64697813 C-280.53349527 905.34364584 -280.55200734 888.04038634 -280.5806675 870.73707771 C-280.58874523 865.7591193 -280.59675355 860.78116077 -280.60474139 855.80320221 C-280.60673083 854.56571518 -280.60872026 853.32822815 -280.61076998 852.05324151 C-280.66617218 817.23606246 -280.70167364 782.41890868 -280.69768047 747.60168362 C-280.69754026 746.28851888 -280.69740006 744.97535414 -280.6972556 743.62239653 C-280.69658259 737.63370806 -280.69580162 731.64501962 -280.69497064 725.65633118 C-280.69460053 722.98583725 -280.6942392 720.31534332 -280.69387882 717.64484939 C-280.69369526 716.30821858 -280.69350608 714.97158777 -280.69331128 713.63495696 C-280.6871901 671.37630266 -280.7530251 629.11832729 -280.87817383 586.85986328 C-281.0164331 540.14900963 -281.09387141 493.43858368 -281.08550483 446.72751194 C-281.08483314 441.74735296 -281.08439479 436.76719401 -281.08411598 431.78703499 C-281.08401109 430.56076679 -281.0839062 429.33449858 -281.08379814 428.07107074 C-281.08352107 408.32896612 -281.14101694 388.58743428 -281.21850636 368.84550001 C-281.2947689 349.00586005 -281.30372662 329.16705883 -281.24452247 309.32735347 C-281.21123997 297.53831001 -281.22780882 285.75181288 -281.31600354 273.96303879 C-281.36994903 266.08715413 -281.35841222 258.21311606 -281.29376905 250.33731663 C-281.25877377 245.84918604 -281.25197116 241.36598419 -281.32488521 236.8781988 C-281.75014343 208.92187367 -281.75014343 208.92187367 -275.10965312 201.68666279 C-271.44693981 198.49656435 -267.56302672 196.09410729 -263.22647474 193.92959774 C-259.95937655 192.24319737 -257.15712544 190.11683841 -254.21337891 187.91870117 C-253.08789815 187.12142431 -251.96049573 186.32684825 -250.83056641 185.53588867 C-246.081989 182.15063732 -241.46724002 178.58985394 -236.83837891 175.04370117 C-226.22468659 166.91584983 -215.47752742 158.98214673 -204.69189453 151.0847168 C-195.57224109 144.40306595 -186.5054799 137.66278265 -177.52587891 130.79370117 C-167.01425816 122.75267803 -156.36957457 114.90310176 -145.69189453 107.0847168 C-136.54837536 100.38558036 -127.46181868 93.62435802 -118.46337891 86.73120117 C-111.3367626 81.27193432 -104.1339731 75.94656265 -96.83203125 70.72485352 C-91.00282669 66.53948721 -85.28493904 62.21998906 -79.58837891 57.85620117 C-69.05869868 49.79005425 -58.39345299 41.92058596 -47.69189453 34.0847168 C-36.61464564 25.96880428 -25.63813415 17.73326409 -14.73291016 9.38745117 C-13.94094238 8.78674805 -13.14897461 8.18604492 -12.33300781 7.56713867 C-10.79696743 6.38641938 -9.2780419 5.18308941 -7.77734375 3.95776367 C-7.07947754 3.39831055 -6.38161133 2.83885742 -5.66259766 2.26245117 C-4.75127075 1.51125 -4.75127075 1.51125 -3.8215332 0.74487305 C-2.02587891 -0.20629883 -2.02587891 -0.20629883 0 0 Z " fill="#407170" transform="translate(1418.02587890625,391.206298828125)"/>
<path d="M0 0 C0.81500977 0.26149841 1.63001953 0.52299683 2.46972656 0.79241943 C90.29912173 29.05122654 174.7926388 69.46484071 309.70605469 161.24511719 C312.59912596 163.45833519 315.51506929 165.63821155 318.4375 167.8125 C328.52122859 175.36097296 338.33055105 183.19319485 347.90625 191.375 C350.7955132 193.83915964 353.73518458 196.23661 356.6875 198.625 C361.13903808 202.24834495 365.42382455 206.01963872 369.66796875 209.8828125 C371.75823889 211.78051169 373.86986115 213.64733415 376 215.5 C379.77511519 218.79190044 383.5095892 222.12646346 387.22192383 225.48901367 C388.92012365 227.02394514 390.62347964 228.55322657 392.33569336 230.07250977 C402.50323921 239.20908407 412.09507224 248.94287567 421.74682617 258.61645508 C424.30943823 261.1847941 426.87655832 263.74857308 429.44501209 266.31106853 C431.45016072 268.31257917 433.45289171 270.31649539 435.45493126 272.32111549 C436.8531996 273.72035829 438.25345152 275.11761801 439.65376282 276.51481628 C444.11257317 280.9899378 448.44526924 285.51440206 452.55317688 290.31506348 C454.75673922 292.88128088 457.0695678 295.33744891 459.375 297.8125 C463.72004303 302.51028818 467.80609467 307.36593252 471.8203125 312.3515625 C473.97757399 314.97275119 476.21311 317.49154281 478.5 320 C483.20423388 325.17546974 487.61715487 330.5514389 492 336 C492.90210662 337.10956783 493.80446083 338.21893441 494.70703125 339.328125 C502.4129594 348.83734517 509.76100898 358.59742459 517.06787109 368.41503906 C518.97788075 370.97040705 520.90227326 373.51420916 522.83203125 376.0546875 C530.65065636 386.36306483 538.16305186 396.82235902 545.36865234 407.56835938 C547.03717489 410.05541184 548.7155181 412.53564549 550.39453125 415.015625 C564.43932381 435.83636188 577.53712729 457.19876926 590 479 C590.57073242 479.99580078 591.14146484 480.99160156 591.72949219 482.01757812 C627.60632451 544.78685836 656.08115622 611.07349805 678.5625 679.75 C678.97330811 680.99539551 679.38411621 682.24079102 679.80737305 683.52392578 C680.68736943 686.21405258 681.5148315 688.91536006 682.32398033 691.62755871 C683.49216121 695.48691395 684.8223532 699.25693751 686.21206093 703.04163837 C694.82377906 727.97800366 694.32156569 752.85550164 694.23515821 778.97580206 C694.22415054 784.98091807 694.2557369 790.98573885 694.28534659 796.99075641 C694.3513494 810.76071277 694.35765343 824.53028462 694.34467439 838.30036255 C694.33499232 848.94857027 694.34188782 859.59665649 694.36009598 870.24485207 C694.36266024 871.78323315 694.36521981 873.32161424 694.36777473 874.85999534 C694.37164237 877.17919811 694.37551831 879.49840086 694.37943103 881.81760356 C694.41534912 903.34030941 694.43321775 924.86296961 694.41274071 946.38569927 C694.41159126 947.59895943 694.41159126 947.59895943 694.41041858 948.83672989 C694.4040987 955.40199096 694.3973208 961.96725157 694.39050244 968.53251214 C694.36436231 994.10241863 694.39642129 1019.67166246 694.47509766 1045.24145508 C694.56371686 1074.07911735 694.60826308 1102.91637315 694.58918345 1131.75417835 C694.58728187 1134.84129983 694.58552276 1137.92842137 694.58385086 1141.01554298 C694.58340886 1141.77546945 694.58296685 1142.53539592 694.58251145 1143.31835047 C694.5767585 1154.69123443 694.60431702 1166.06371275 694.64957809 1177.43649864 C694.70113088 1190.40499453 694.7055937 1203.3725926 694.65113668 1216.34109446 C694.62463766 1222.93553932 694.61869164 1229.52862927 694.67079544 1236.12306404 C694.90865668 1268.43649104 691.46529837 1296.30666028 680.73928896 1326.86054601 C679.30375035 1331.01490104 678.01339518 1335.21396239 676.70801866 1339.41076201 C675.32534382 1343.80230422 673.82062138 1348.15029065 672.3125 1352.5 C671.99149323 1353.43620178 671.67048645 1354.37240356 671.3397522 1355.3369751 C660.76520453 1386.11491645 648.56030883 1416.41566344 635 1446 C634.26136719 1447.62518555 634.26136719 1447.62518555 633.5078125 1449.28320312 C622.1640518 1474.21408019 610.16448535 1498.70020199 596.47119141 1522.42919922 C594.66093987 1525.5924831 592.90246102 1528.78228685 591.14990234 1531.9777832 C569.50080741 1571.43528587 544.15078004 1609.03761678 516.75488281 1644.70605469 C514.54166481 1647.59912596 512.36178845 1650.51506929 510.1875 1653.4375 C502.63902704 1663.52122859 494.80680515 1673.33055105 486.625 1682.90625 C484.16084036 1685.7955132 481.76339 1688.73518458 479.375 1691.6875 C475.75165505 1696.13903808 471.98036128 1700.42382455 468.1171875 1704.66796875 C466.21948831 1706.75823889 464.35266585 1708.86986115 462.5 1711 C458.38683615 1715.71554941 454.20146201 1720.36310796 450 1725 C449.23679443 1725.85005615 448.47358887 1726.7001123 447.68725586 1727.57592773 C438.3627683 1737.83470458 428.54697489 1747.6061694 418.73535156 1757.39501953 C416.23541788 1759.88921754 413.74005719 1762.38793521 411.24596786 1764.88797569 C409.29507161 1766.84251009 407.34176982 1768.79462658 405.38776398 1770.74605179 C404.02618995 1772.10665245 402.66659699 1773.4692347 401.30706787 1774.83187866 C396.8941858 1779.22823209 392.4262012 1783.49227243 387.69386292 1787.54425049 C385.12541048 1789.75164481 382.6656244 1792.0667051 380.1875 1794.375 C375.48971182 1798.72004303 370.63406748 1802.80609467 365.6484375 1806.8203125 C363.02724881 1808.97757399 360.50845719 1811.21311 358 1813.5 C352.82453026 1818.20423388 347.4485611 1822.61715487 342 1827 C340.89043217 1827.90210662 339.78106559 1828.80446083 338.671875 1829.70703125 C329.16265483 1837.4129594 319.40257541 1844.76100898 309.58496094 1852.06787109 C307.02959295 1853.97788075 304.48579084 1855.90227326 301.9453125 1857.83203125 C291.64117813 1865.64743819 281.18639258 1873.15720918 270.44482422 1880.35986328 C267.91827569 1882.05482563 265.3985109 1883.75957989 262.87890625 1885.46484375 C185.60661215 1937.57871651 101.28497666 1978.8086618 -1.75 2013.5625 C-2.99539551 2013.97330811 -4.24079102 2014.38411621 -5.52392578 2014.80737305 C-8.21405258 2015.68736943 -10.91536006 2016.5148315 -13.62755871 2017.32398033 C-17.48691395 2018.49216121 -21.25693751 2019.8223532 -25.04163837 2021.21206093 C-49.97800366 2029.82377906 -74.85550164 2029.32156569 -100.97580206 2029.23515821 C-106.98091807 2029.22415054 -112.98573885 2029.2557369 -118.99075641 2029.28534659 C-132.76071277 2029.3513494 -146.53028462 2029.35765343 -160.30036255 2029.34467439 C-170.94857027 2029.33499232 -181.59665649 2029.34188782 -192.24485207 2029.36009598 C-193.78323315 2029.36266024 -195.32161424 2029.36521981 -196.85999534 2029.36777473 C-199.17919811 2029.37164237 -201.49840086 2029.37551831 -203.81760356 2029.37943103 C-225.34030941 2029.41534912 -246.86296961 2029.43321775 -268.38569927 2029.41274071 C-269.19453937 2029.41197441 -270.00337948 2029.4112081 -270.83672989 2029.41041858 C-277.40199096 2029.4040987 -283.96725157 2029.3973208 -290.53251214 2029.39050244 C-316.10241863 2029.36436231 -341.67166246 2029.39642129 -367.24145508 2029.47509766 C-396.07911735 2029.56371686 -424.91637315 2029.60826308 -453.75417835 2029.58918345 C-456.84129983 2029.58728187 -459.92842137 2029.58552276 -463.01554298 2029.58385086 C-464.15543269 2029.58318785 -464.15543269 2029.58318785 -465.31835047 2029.58251145 C-476.69123443 2029.5767585 -488.06371275 2029.60431702 -499.43649864 2029.64957809 C-512.40499453 2029.70113088 -525.3725926 2029.7055937 -538.34109446 2029.65113668 C-544.93553932 2029.62463766 -551.52862927 2029.61869164 -558.12306404 2029.67079544 C-590.43649104 2029.90865668 -618.30666028 2026.46529837 -648.86054601 2015.73928896 C-653.01490104 2014.30375035 -657.21396239 2013.01339518 -661.41076201 2011.70801866 C-665.80230422 2010.32534382 -670.15029065 2008.82062138 -674.5 2007.3125 C-675.43620178 2006.99149323 -676.37240356 2006.67048645 -677.3369751 2006.3397522 C-708.11491645 1995.76520453 -738.41566344 1983.56030883 -768 1970 C-769.08345703 1969.50757813 -770.16691406 1969.01515625 -771.28320312 1968.5078125 C-796.21408019 1957.1640518 -820.70020199 1945.16448535 -844.42919922 1931.47119141 C-847.5924831 1929.66093987 -850.78228685 1927.90246102 -853.9777832 1926.14990234 C-893.43528587 1904.50080741 -931.03761678 1879.15078004 -966.70605469 1851.75488281 C-969.59912596 1849.54166481 -972.51506929 1847.36178845 -975.4375 1845.1875 C-985.52122859 1837.63902704 -995.33055105 1829.80680515 -1004.90625 1821.625 C-1007.7955132 1819.16084036 -1010.73518458 1816.76339 -1013.6875 1814.375 C-1018.13903808 1810.75165505 -1022.42382455 1806.98036128 -1026.66796875 1803.1171875 C-1028.75823889 1801.21948831 -1030.86986115 1799.35266585 -1033 1797.5 C-1036.77511519 1794.20809956 -1040.5095892 1790.87353654 -1044.22192383 1787.51098633 C-1045.92012365 1785.97605486 -1047.62347964 1784.44677343 -1049.33569336 1782.92749023 C-1059.50323921 1773.79091593 -1069.09507224 1764.05712433 -1078.74682617 1754.38354492 C-1081.30943823 1751.8152059 -1083.87655832 1749.25142692 -1086.44501209 1746.68893147 C-1088.45016072 1744.68742083 -1090.45289171 1742.68350461 -1092.45493126 1740.67888451 C-1093.8531996 1739.27964171 -1095.25345152 1737.88238199 -1096.65376282 1736.48518372 C-1101.11257317 1732.0100622 -1105.44526924 1727.48559794 -1109.55317688 1722.68493652 C-1111.75673922 1720.11871912 -1114.0695678 1717.66255109 -1116.375 1715.1875 C-1120.72004303 1710.48971182 -1124.80609467 1705.63406748 -1128.8203125 1700.6484375 C-1130.97757399 1698.02724881 -1133.21311 1695.50845719 -1135.5 1693 C-1140.20423388 1687.82453026 -1144.61715487 1682.4485611 -1149 1677 C-1149.90210662 1675.89043217 -1150.80446083 1674.78106559 -1151.70703125 1673.671875 C-1159.4129594 1664.16265483 -1166.76100898 1654.40257541 -1174.06787109 1644.58496094 C-1175.97788075 1642.02959295 -1177.90227326 1639.48579084 -1179.83203125 1636.9453125 C-1187.61848568 1626.67971339 -1195.10373399 1616.26721008 -1202.27832031 1605.56494141 C-1204.1120256 1602.83310537 -1205.95824812 1600.10996154 -1207.8046875 1597.38671875 C-1227.90814154 1567.61809507 -1246.14484794 1536.71171151 -1263 1505 C-1263.48645996 1504.09024414 -1263.97291992 1503.18048828 -1264.47412109 1502.24316406 C-1302.04177556 1431.88480409 -1330.63436775 1357.075695 -1351 1280 C-1351.21358154 1279.19316772 -1351.42716309 1278.38633545 -1351.6472168 1277.55505371 C-1375.46989261 1187.2004539 -1386.34002047 1093.95080763 -1335 678 C-1334.73850159 677.18499023 -1334.47700317 676.36998047 -1334.20758057 675.53027344 C-1305.29607082 585.67225485 -1263.68413614 498.64739734 -1200 404 C-1199.2255957 402.87803223 -1199.2255957 402.87803223 -1198.43554688 401.73339844 C-1190.55568887 390.31850532 -1182.20278686 379.29280176 -1173.75488281 368.29394531 C-1171.54166481 365.40087404 -1169.36178845 362.48493071 -1167.1875 359.5625 C-1159.63902704 349.47877141 -1151.80680515 339.66944895 -1143.625 330.09375 C-1141.16084036 327.2044868 -1138.76339 324.26481542 -1136.375 321.3125 C-1132.75165505 316.86096192 -1128.98036128 312.57617545 -1125.1171875 308.33203125 C-1123.21948831 306.24176111 -1121.35266585 304.13013885 -1119.5 302 C-1116.20809956 298.22488481 -1112.87353654 294.4904108 -1109.51098633 290.77807617 C-1107.97605486 289.07987635 -1106.44677343 287.37652036 -1104.92749023 285.66430664 C-1095.79091593 275.49676079 -1086.05712433 265.90492776 -1076.38354492 256.25317383 C-1073.8152059 253.69056177 -1071.25142692 251.12344168 -1068.68893147 248.55498791 C-1066.68742083 246.54983928 -1064.68350461 244.54710829 -1062.67888451 242.54506874 C-1061.27964171 241.1468004 -1059.88238199 239.74654848 -1058.48518372 238.34623718 C-1054.0100622 233.88742683 -1049.48559794 229.55473076 -1044.68493652 225.44682312 C-1042.11871912 223.24326078 -1039.66255109 220.9304322 -1037.1875 218.625 C-1032.48971182 214.27995697 -1027.63406748 210.19390533 -1022.6484375 206.1796875 C-1020.02724881 204.02242601 -1017.50845719 201.78689 -1015 199.5 C-1009.82453026 194.79576612 -1004.4485611 190.38284513 -999 186 C-997.89043217 185.09789338 -996.78106559 184.19553917 -995.671875 183.29296875 C-986.16265483 175.5870406 -976.40257541 168.23899102 -966.58496094 160.93212891 C-964.02959295 159.02211925 -961.48579084 157.09772674 -958.9453125 155.16796875 C-948.67971339 147.38151432 -938.26721008 139.89626601 -927.56494141 132.72167969 C-924.83310537 130.8879744 -922.10996154 129.04175188 -919.38671875 127.1953125 C-889.61809507 107.09185846 -858.71171151 88.85515206 -827 72 C-826.09024414 71.51354004 -825.18048828 71.02708008 -824.24316406 70.52587891 C-753.88480409 32.95822444 -679.075695 4.36563225 -602 -16 C-601.19316772 -16.21358154 -600.38633545 -16.42716309 -599.55505371 -16.6472168 C-509.2004539 -40.46989261 -415.95080763 -51.34002047 0 0 Z M-665 46 C-665.76358826 46.2537439 -666.52717651 46.50748779 -667.31390381 46.7689209 C-720.01049698 64.32562856 -771.89167671 86.40278077 -820.38623047 113.54833984 C-823.0910085 115.05054517 -825.8101583 116.5231005 -828.53515625 117.98828125 C-840.90996298 124.64657096 -853.0390462 131.62399702 -865 139 C-865.75249023 139.4630957 -866.50498047 139.92619141 -867.28027344 140.40332031 C-887.97449352 153.18742928 -908.30581446 166.72206658 -928 181 C-928.74620605 181.54043945 -929.49241211 182.08087891 -930.26123047 182.63769531 C-948.76036424 196.0728204 -966.75210395 210.10008962 -984.1652832 224.91699219 C-987.57001037 227.80952162 -991.01757422 230.63839905 -994.5 233.4375 C-999.87790918 237.810486 -1004.93369053 242.48609203 -1009.99609375 247.21484375 C-1012.36894178 249.42787414 -1014.78580018 251.57602859 -1017.25 253.6875 C-1020.86617434 256.80986902 -1024.20551021 260.16567976 -1027.53125 263.59375 C-1029.52534903 265.53736551 -1031.54560647 267.34881187 -1033.65600586 269.16040039 C-1037.93247903 272.89113661 -1041.96690512 276.8221763 -1045.97265625 280.83984375 C-1046.69940048 281.56563126 -1047.42614471 282.29141876 -1048.1749115 283.03919983 C-1049.69962296 284.56323556 -1051.2230915 286.08851569 -1052.74536133 287.61499023 C-1055.05633891 289.93132463 -1057.37260771 292.24227078 -1059.68945312 294.55273438 C-1061.1800082 296.04395034 -1062.670253 297.53547653 -1064.16015625 299.02734375 C-1065.18388084 300.048032 -1065.18388084 300.048032 -1066.22828674 301.08934021 C-1070.11925337 304.99905041 -1073.83584749 309.0086839 -1077.43080139 313.19268799 C-1079.99416431 316.14502083 -1082.69242645 318.96893918 -1085.375 321.8125 C-1090.09873109 326.85565818 -1094.56834291 332.02690976 -1098.890625 337.421875 C-1101.01985146 340.0242629 -1103.23449357 342.51575502 -1105.5 345 C-1110.20423388 350.17546974 -1114.61715487 355.5514389 -1119 361 C-1119.90210662 362.10956783 -1120.80446083 363.21893441 -1121.70703125 364.328125 C-1134.74650303 380.41797304 -1146.99366905 397.12998508 -1159 414 C-1159.57637207 414.80969238 -1160.15274414 415.61938477 -1160.74658203 416.45361328 C-1168.79415023 427.78787601 -1176.56842996 439.25332477 -1184 451 C-1184.55768066 451.87575684 -1185.11536133 452.75151367 -1185.68994141 453.65380859 C-1200.46268388 476.87384828 -1214.10606349 500.68999705 -1227 525 C-1227.5657373 526.06299316 -1228.13147461 527.12598633 -1228.71435547 528.22119141 C-1261.86195021 590.67921163 -1287.84407217 657.66939931 -1306 726 C-1306.20091248 726.74993225 -1306.40182495 727.4998645 -1306.60882568 728.27252197 C-1324.63702752 795.58550939 -1335.23078772 864.43903333 -1339 934 C-1339.08677002 935.47267334 -1339.08677002 935.47267334 -1339.17529297 936.97509766 C-1344.51459802 1029.67620695 -1334.8359536 1123.50069585 -1290 1298 C-1289.7720575 1298.69242798 -1289.54411499 1299.38485596 -1289.30926514 1300.0982666 C-1269.03402214 1361.52238749 -1242.3760206 1421.00526485 -1210 1477 C-1209.66875122 1477.57399536 -1209.33750244 1478.14799072 -1208.99621582 1478.73937988 C-1200.80625255 1492.92964533 -1192.61789381 1507.10887209 -1183.51074219 1520.73681641 C-1181.72932536 1523.40548705 -1179.96265281 1526.08370604 -1178.1953125 1528.76171875 C-1159.1723955 1557.51977305 -1138.9861723 1585.42468357 -1117 1612 C-1115.96552734 1613.27810547 -1115.96552734 1613.27810547 -1114.91015625 1614.58203125 C-1105.63731899 1626.03473983 -1095.89914104 1637.08698046 -1086 1648 C-1084.56225299 1649.60394529 -1083.12475923 1651.20811761 -1081.6875 1652.8125 C-1080.12590894 1654.54248757 -1078.56327869 1656.27153728 -1077 1658 C-1076.20601807 1658.88083252 -1075.41203613 1659.76166504 -1074.59399414 1660.66918945 C-1066.09622623 1669.99099271 -1057.22828013 1678.92450078 -1048.29882812 1687.83154297 C-1045.73711354 1690.3878593 -1043.18083894 1692.94952929 -1040.625 1695.51171875 C-1038.97427914 1697.16177933 -1037.3232484 1698.81152998 -1035.671875 1700.4609375 C-1034.54347198 1701.59237686 -1034.54347198 1701.59237686 -1033.39227295 1702.74667358 C-1029.31366256 1706.80746375 -1025.15161946 1710.70779117 -1020.7827301 1714.4553833 C-1017.83650501 1717.00809078 -1015.0226064 1719.70040222 -1012.1875 1722.375 C-1007.14089056 1727.10196376 -1001.96665852 1731.57509143 -996.56640625 1735.8984375 C-994.02440637 1737.98001427 -991.60470665 1740.1503838 -989.1875 1742.375 C-984.21797891 1746.89773449 -978.98892712 1751.01364031 -973.68359375 1755.12890625 C-970.65580139 1757.47834513 -967.66768272 1759.87250368 -964.68896484 1762.28369141 C-955.77569777 1769.48868226 -946.64018565 1776.38390258 -937.42871094 1783.20214844 C-935.91172961 1784.32509279 -934.39645985 1785.45035737 -932.88378906 1786.57910156 C-894.82038166 1814.94553549 -853.87724459 1839.74135648 -812 1862 C-810.91412598 1862.57717773 -809.82825195 1863.15435547 -808.70947266 1863.74902344 C-739.00647721 1900.63503678 -664.81118213 1928.3327668 -435 1973 C-434.07000183 1973.0835675 -433.14000366 1973.16713501 -432.18182373 1973.25323486 C-352.60386897 1980.29142657 -270.73809084 1977.4572567 -192 1964 C-190.13936676 1963.69114204 -188.27868965 1963.38254818 -186.41796875 1963.07421875 C-158.75212735 1958.42666611 -131.1538107 1953.07326352 -104 1946 C-102.6082959 1945.63865967 -102.6082959 1945.63865967 -101.18847656 1945.27001953 C-67.00652767 1936.35037707 -33.06168016 1925.78178855 -0.17285156 1912.84375 C2.47256401 1911.81649649 5.13614104 1910.84519775 7.80322266 1909.87597656 C46.59428565 1895.70251224 85.10056126 1877.79270339 121.14355469 1857.59228516 C124.23408737 1855.8695113 127.33847235 1854.17364606 130.4453125 1852.48046875 C146.28704654 1843.81660871 161.71364421 1834.60584638 177 1825 C178.90358446 1823.81370359 180.80722829 1822.62750245 182.7109375 1821.44140625 C202.00833702 1809.3544932 220.57953307 1796.25090648 238.81835938 1782.62744141 C240.93147034 1781.05112117 243.05084509 1779.48361049 245.171875 1777.91796875 C254.07685023 1771.32216793 262.71335591 1764.4424251 271.27539062 1757.40869141 C273.53888507 1755.55982915 275.83083305 1753.74809255 278.125 1751.9375 C283.94361477 1747.29623036 289.55721937 1742.41898728 295.18994141 1737.55566406 C296.94605242 1736.04636553 298.71125915 1734.54859789 300.48046875 1733.0546875 C308.48379177 1726.28290592 316.19203872 1719.24646336 323.81054688 1712.04589844 C325.96578545 1710.03197122 328.14406594 1708.04462942 330.32380676 1706.05731201 C338.18401565 1698.86967441 345.74883018 1691.40435307 353.26806641 1683.86230469 C355.38981009 1681.73515216 357.51691491 1679.61346439 359.64453125 1677.4921875 C361.0211544 1676.11490417 362.39746766 1674.73731101 363.7734375 1673.359375 C364.39648773 1672.738349 365.01953796 1672.117323 365.66146851 1671.47747803 C369.41401614 1667.70515587 372.98079986 1663.81616343 376.45539856 1659.78614807 C378.68890338 1657.20336508 380.99831951 1654.69833316 383.3125 1652.1875 C384.2644157 1651.15112688 385.21623654 1650.11466662 386.16796875 1649.078125 C387.98035392 1647.10682377 389.79594069 1645.13862323 391.61328125 1643.171875 C396.45573036 1637.90015746 401.09023493 1632.52222621 405.58203125 1626.94921875 C407.84331311 1624.19111244 410.15769662 1621.49251263 412.49731445 1618.80126953 C417.32263483 1613.24812435 421.84368055 1607.62452298 426.09765625 1601.61328125 C428.01290509 1598.98227207 430.03628095 1596.49496533 432.125 1594 C442.43188548 1581.55697245 451.69030127 1568.19782428 461 1555 C461.49274414 1554.30648438 461.98548828 1553.61296875 462.49316406 1552.8984375 C467.78069938 1545.41264407 472.84414615 1537.78450697 477.875 1530.125 C478.33165039 1529.42980255 478.78830078 1528.7346051 479.25878906 1528.01834106 C496.98660729 1500.9827253 513.36985606 1473.19455451 528.1796875 1444.44921875 C529.90469993 1441.10124839 531.65192332 1437.76886237 533.4453125 1434.45703125 C567.06068466 1372.2543754 591.18002189 1304.2843525 609 1236 C609.19422546 1235.25574768 609.38845093 1234.51149536 609.58856201 1233.74468994 C628.55483079 1160.75819447 640.0145339 1084.56833444 640.203125 1009.0703125 C640.21010856 1007.31802346 640.21714948 1005.56573464 640.22424316 1003.81344604 C640.24349252 998.25062741 640.24841866 992.68784832 640.25 987.125 C640.25058914 986.17715637 640.25117828 985.22931274 640.25178528 984.25274658 C640.26423264 955.87335167 639.98551828 927.64495985 637.2310791 899.37445068 C636.99604538 896.95936437 636.77028949 894.54353791 636.54589844 892.12744141 C628.50662014 806.55977183 609.41682321 722.20822318 553.34228516 577.8671875 C552.31566384 575.67427358 551.2949274 573.47902613 550.27880859 571.28125 C535.49975115 539.32715162 519.28696272 508.3831803 501.26123047 478.12646484 C499.9462224 475.90932967 498.64655048 473.68363987 497.34765625 471.45703125 C488.81022442 456.91690372 479.45417015 442.95237911 470 429 C469.44892578 428.18450684 468.89785156 427.36901367 468.33007812 426.52880859 C457.3350708 410.28087446 445.77669317 394.49339445 433.63720703 379.08251953 C432.10383635 377.13207934 430.57941765 375.17507436 429.05859375 373.21484375 C423.73513841 366.36706333 418.25598305 359.68336985 412.62109375 353.08984375 C410.17696666 350.22422306 407.80304266 347.30594478 405.4375 344.375 C401.56187067 339.61192782 397.48765711 335.06635751 393.33203125 330.546875 C391.37594748 328.41058251 389.45812303 326.25219343 387.5625 324.0625 C381.18454563 316.73463753 374.64825222 309.53477545 367.70532227 302.73779297 C366.04492219 301.04577755 364.51383666 299.29554222 362.98046875 297.48828125 C358.70482789 292.57495587 354.12526661 287.97460354 349.51196289 283.3815918 C348.06475615 281.93974779 346.62297974 280.49262884 345.18164062 279.04492188 C340.47358912 274.33384547 335.70054194 269.75921877 330.64233398 265.42407227 C328.6619289 263.70685763 326.82024492 261.88525366 325 260 C321.8501997 256.80738688 318.58780511 253.82838721 315.1875 250.90625 C312.64488601 248.69054352 310.16889802 246.40901408 307.6875 244.125 C303.14959482 239.98196778 298.46855965 236.07619586 293.6875 232.21875 C291.0330038 230.02724732 288.47999115 227.75752317 285.9375 225.4375 C281.12509075 221.0632693 276.11800125 217.00922336 271 213 C270.00871094 212.21367187 269.01742188 211.42734375 267.99609375 210.6171875 C264.34610206 207.72497002 260.6765243 204.85839199 257 202 C255.8248584 201.08589355 255.8248584 201.08589355 254.62597656 200.15332031 C243.80961528 191.76384087 232.86438587 183.68332315 221.4921875 176.0625 C218.16834285 173.82608829 214.92697158 171.49789702 211.69921875 169.125 C205.90283933 164.88678709 199.95465406 160.91654285 193.9375 157 C193.10570724 156.45791397 193.10570724 156.45791397 192.2571106 155.90487671 C172.55452162 143.07725745 152.52401423 130.91145471 131.90966797 119.60107422 C129.22495334 118.12378285 126.55058265 116.62960809 123.87890625 115.12890625 C52.6827064 75.37815531 -24.37208372 45.76729082 -298 -4 C-299.49829346 -4.08677002 -299.49829346 -4.08677002 -301.02685547 -4.17529297 C-392.09591613 -9.38675051 -484.23417459 -0.08583347 -665 46 Z " fill="#000000" transform="translate(1391,56)"/>
<path d="M0 0 C0 453.75 0 907.5 0 1375 C-3.50424302 1373.59830279 -5.83817606 1372.60418992 -8.81665039 1370.57104492 C-9.53685867 1370.08306931 -10.25706696 1369.59509369 -10.99909973 1369.09233093 C-11.77412338 1368.56041641 -12.54914703 1368.02850189 -13.34765625 1367.48046875 C-14.17524948 1366.91854324 -15.00284271 1366.35661774 -15.85551453 1365.77766418 C-17.65111288 1364.55819964 -19.44535825 1363.33674107 -21.23840332 1362.11352539 C-26.08504525 1358.80813026 -30.94265514 1355.51895296 -35.80078125 1352.23046875 C-37.30957352 1351.20879105 -37.30957352 1351.20879105 -38.84884644 1350.16647339 C-49.42189317 1343.01853225 -60.08082075 1336.00327475 -70.75 1329 C-83.70344826 1320.49181128 -96.61619188 1311.93382311 -109.42614746 1303.21102905 C-121.23482955 1295.17064585 -133.10941342 1287.23119877 -145 1279.3125 C-145.88955383 1278.72008514 -146.77910767 1278.12767029 -147.69561768 1277.51730347 C-151.77434905 1274.80141357 -155.85366597 1272.08640665 -159.93359375 1269.37231445 C-161.01872597 1268.60827862 -161.01872597 1268.60827862 -162.12578005 1267.82880771 C-164.34342586 1266.41776477 -166.34049788 1265.36113385 -168.7112661 1264.2902137 C-173.7102495 1261.83525164 -178.74402463 1259.20000161 -180.86970453 1253.78414771 C-182.30535483 1246.95895222 -181.97125673 1239.97898641 -181.84178162 1233.04415894 C-181.85245752 1230.67198037 -181.86972044 1228.29982387 -181.89299351 1225.92773545 C-181.92848569 1220.77493722 -181.91758272 1215.62440102 -181.86545753 1210.47183418 C-181.78820702 1202.81060055 -181.79728552 1195.15114777 -181.82379113 1187.48965693 C-181.86594781 1174.60119131 -181.83848499 1161.71375692 -181.77114677 1148.82543564 C-181.70471618 1136.06715138 -181.6693502 1123.3094016 -181.67534065 1110.55093765 C-181.6756959 1109.75724834 -181.67605116 1108.96355904 -181.67641717 1108.14581854 C-181.67838263 1104.11496205 -181.68090183 1100.08410612 -181.68363417 1096.05325009 C-181.70198464 1067.5131426 -181.65088322 1038.97354083 -181.55883789 1010.43359375 C-181.46958439 982.70993336 -181.41185222 954.98649962 -181.39672852 927.26269531 C-181.39624968 926.40791654 -181.39577084 925.55313776 -181.3952775 924.6724566 C-181.39050353 916.08830489 -181.38636969 907.50415297 -181.38270481 898.92000072 C-181.37522465 881.43357242 -181.36347243 863.94714785 -181.34913635 846.46072388 C-181.34848249 845.65675162 -181.34782863 844.85277937 -181.34715496 844.02444432 C-181.30301215 790.34949124 -181.15897581 736.67472073 -181 683 C-186.87374884 686.86279736 -192.74617659 690.72759735 -198.61779785 694.59362793 C-200.60465435 695.90151607 -202.59178501 697.20898783 -204.57922363 698.51599121 C-218.61799107 707.74888641 -232.58773772 717.07764682 -246.5 726.5 C-248.43098196 727.80640597 -250.36205291 729.11268042 -252.29321289 730.41882324 C-253.1631337 731.00723747 -254.0330545 731.5956517 -254.92933655 732.20189667 C-266.55658711 740.06425343 -278.26761685 747.79570728 -290 755.5 C-305.39842947 765.61277792 -320.72903647 775.82065551 -336 786.125 C-336.93730957 786.75704346 -337.87461914 787.38908691 -338.84033203 788.0402832 C-341.47791479 789.81961232 -344.11427875 791.60072737 -346.75 793.3828125 C-347.53012451 793.90952545 -348.31024902 794.4362384 -349.11401367 794.97891235 C-351.92500404 796.88299599 -354.70536763 798.77186452 -357.390625 800.85107422 C-359 802 -359 802 -361 802 C-361 911.89 -361 1021.78 -361 1135 C-367.75688974 1130.70016107 -374.49834836 1126.39395481 -381.1875 1121.9921875 C-382.03098999 1121.43769928 -382.87447998 1120.88321106 -383.74353027 1120.31192017 C-386.49658282 1118.5009703 -389.24844666 1116.68822685 -392 1114.875 C-392.95962646 1114.24295654 -393.91925293 1113.61091309 -394.90795898 1112.9597168 C-410.05874216 1102.97604304 -425.12676769 1092.87547899 -440.15234375 1082.70462036 C-456.77748069 1071.45469261 -473.51816265 1060.38668464 -490.29298401 1049.36157227 C-491.17469772 1048.78205811 -492.05641144 1048.20254395 -492.96484375 1047.60546875 C-493.83048447 1047.03658936 -494.69612518 1046.46770996 -495.58799744 1045.8815918 C-504.31248135 1040.14419143 -513.0016738 1034.35447125 -521.67382812 1028.53833008 C-522.62837891 1027.89919678 -523.58292969 1027.26006348 -524.56640625 1026.6015625 C-525.40424507 1026.01125224 -526.24208388 1025.42094199 -527.10531175 1024.81274354 C-529.89132979 1022.91489373 -529.89132979 1022.91489373 -532.88019717 1022.01530993 C-536.6425152 1020.51036028 -538.46774445 1019.20493594 -541 1016 C-543.34415195 1007.8542618 -542.6245873 998.83743665 -542.6121521 990.44906616 C-542.6477324 987.7576441 -542.68758551 985.06658928 -542.73257029 982.37533915 C-542.83330144 975.74485686 -542.87480383 969.1151971 -542.89808901 962.48404236 C-542.92865485 954.54064204 -543.02231698 946.59829481 -543.11657863 938.65544017 C-543.34101724 919.45245012 -543.45169061 900.2493009 -543.54462346 881.04529829 C-543.5890532 871.95312026 -543.64487363 862.86102197 -543.70116413 853.768911 C-543.89293969 822.62354758 -544.05358066 791.4781677 -544.13136864 760.33229637 C-544.13633779 758.37703187 -544.14131846 756.42176739 -544.14631061 754.46650294 C-544.15001998 753.01208961 -544.15001998 753.01208961 -544.15380429 751.52829419 C-544.16636809 746.61603041 -544.1790786 741.70376703 -544.19189453 736.79150391 C-544.19440542 735.81665932 -544.19691631 734.84181473 -544.19950329 733.83742939 C-544.28196715 702.26763558 -544.53195873 670.70222244 -544.88064433 639.13432331 C-545.24890931 605.73254956 -545.459114 572.33333101 -545.49317896 538.92949259 C-545.49752548 535.25641633 -545.50253647 531.58334157 -545.5080452 527.91026688 C-545.50933288 527.00590093 -545.51062057 526.10153499 -545.51194727 525.16976401 C-545.53634434 510.6616826 -545.70351689 496.1586692 -545.92335072 481.65238308 C-546.14120291 467.04252902 -546.19790717 452.43873317 -546.0952044 437.82756452 C-546.04381614 429.91959717 -546.06004547 422.0266637 -546.27387619 414.12102127 C-547.50287738 366.71940233 -547.50287738 366.71940233 -536.73663759 354.6457715 C-526.97465403 345.25770092 -515.14922263 338.98948464 -502.94656682 333.35760808 C-496.72962066 330.47714501 -491.26498556 326.81625712 -485.6875 322.84375 C-484.05078345 321.76065634 -482.41018455 320.68337713 -480.76367188 319.61523438 C-463.69853192 308.45773559 -446.74432748 297.14562493 -429.86203003 285.71368408 C-413.60028497 274.70557693 -397.22794882 263.87101167 -380.80859375 253.09960938 C-379.9114415 252.51055817 -379.01428925 251.92150696 -378.08995056 251.31460571 C-376.41545384 250.21550574 -374.74017972 249.11758885 -373.0639801 248.02108765 C-372.3204277 247.53314728 -371.57687531 247.04520691 -370.81079102 246.54248047 C-370.167715 246.12143036 -369.52463898 245.70038025 -368.86207581 245.26657104 C-367.50171396 244.34126235 -366.18092996 243.35700556 -364.88682556 242.34109497 C-363 241 -363 241 -361 241 C-361 364.09 -361 487.18 -361 614 C-348.16915686 606.01652019 -348.16915686 606.01652019 -335.578125 597.69921875 C-333.89853716 596.56035716 -332.21893021 595.42152374 -330.53930664 594.28271484 C-329.67854523 593.69754089 -328.81778381 593.11236694 -327.93093872 592.50946045 C-311.72822044 581.49812638 -295.43682782 570.62923136 -279.0625 559.875 C-264.57371276 550.35475402 -250.15707286 540.7478667 -235.83782959 530.97451782 C-227.25087434 525.11852044 -218.63293747 519.30815329 -210.0173645 513.49438477 C-207.11165349 511.53317613 -204.2070632 509.57031542 -201.30249023 507.60742188 C-199.50511972 506.39442137 -197.70767829 505.18152594 -195.91015625 503.96875 C-195.08436066 503.41026367 -194.25856506 502.85177734 -193.40774536 502.27636719 C-182.61146938 495 -182.61146938 495 -180 495 C-180.01670769 494.2154073 -180.03341539 493.4308146 -180.05062938 492.62244636 C-181.03754813 446.01082712 -181.79132552 399.40035331 -182.2468745 352.78036093 C-182.30189859 347.16971853 -182.35884944 341.55909723 -182.41699219 335.94848633 C-182.42853385 334.83162218 -182.44007551 333.71475802 -182.45196691 332.5640495 C-182.6428916 314.53225648 -182.98947051 296.50670208 -183.39472303 278.47859768 C-183.8077682 259.94777506 -184.05090103 241.42019337 -184.13989377 222.88495749 C-184.19461424 212.48400793 -184.32605564 202.09612001 -184.6521225 191.69983864 C-186.63458801 126.62515204 -186.63458801 126.62515204 -175.72209167 112.75347519 C-166.16015544 102.72582872 -154.07631199 97.06261071 -141.3110733 92.19460106 C-134.20450737 89.41987411 -128.23459707 85.24447048 -122.13283229 80.7353493 C-119.1566045 78.56664118 -116.09341016 76.52518829 -113.0390625 74.46875 C-111.75160209 73.59248541 -110.46416125 72.71619205 -109.17675781 71.83984375 C-100.90013035 66.20964739 -92.60798831 60.60235717 -84.3125 55 C-83.41484924 54.39367737 -82.51719849 53.78735474 -81.59234619 53.16265869 C-65.43121323 42.25348725 -49.17427778 31.49316674 -32.86645508 20.8046875 C-31.13610152 19.66946736 -29.40587367 18.53405558 -27.67578125 17.3984375 C-26.85294144 16.85886414 -26.03010162 16.31929077 -25.18232727 15.7633667 C-18.99194888 11.68963684 -12.87794871 7.51225478 -6.82991028 3.22982788 C-2.21478754 0 -2.21478754 0 0 0 Z " fill="#467B76" transform="translate(944,353)"/>
<path d="M0 0 C2.55520448 0.89000081 4.28766196 1.89417198 6.43823242 3.52539062 C7.18137695 4.08162109 7.92452148 4.63785156 8.69018555 5.2109375 C9.48102539 5.81615234 10.27186523 6.42136719 11.08666992 7.04492188 C12.79743505 8.33030757 14.50837746 9.61545734 16.21948242 10.90039062 C17.09121094 11.55958496 17.96293945 12.2187793 18.86108398 12.89794922 C22.86972683 15.91835548 26.91610354 18.8867685 30.96166992 21.85742188 C32.54393085 23.02247459 34.12596139 24.18784027 35.70776367 25.35351562 C36.49135254 25.93085449 37.27494141 26.50819336 38.08227539 27.10302734 C40.47156511 28.86471788 42.85937066 30.62840286 45.24682617 32.39257812 C53.70061981 38.63626912 62.17500409 44.84826558 70.70996094 50.98071289 C72.0715212 51.95998829 73.4151579 52.96460682 74.74092031 53.99182671 C76.91025066 55.47931832 78.77726164 56.4940595 81.13687778 57.57452089 C85.74673055 59.92526103 89.55498586 62.49893004 92.46166992 66.85742188 C95.22379972 75.43450618 94.54280221 84.86910464 94.4258914 93.78344546 C94.39314084 97.54455018 94.44750945 101.30459196 94.49053645 105.0654543 C94.55386882 111.65224698 94.56152271 118.23727183 94.53237534 124.82427788 C94.48914838 134.61923801 94.53158776 144.41253504 94.59049786 154.20734596 C94.6986391 172.7192777 94.7055537 191.23041125 94.68161944 209.74257877 C94.66374324 224.03908713 94.6734071 238.33534232 94.70253754 252.63183022 C94.70661535 254.686154 94.71068688 256.74047779 94.71475218 258.7948016 C94.72090956 261.89052808 94.7270852 264.98625452 94.73332696 268.08198083 C94.79073081 296.86406289 94.81791346 325.64604834 94.78169632 354.42817211 C94.78033567 355.51314473 94.77897502 356.59811735 94.77757314 357.71596793 C94.76635329 366.5266065 94.75435328 375.33724405 94.74228873 384.1478815 C94.6959171 418.50867991 94.74474908 452.86816995 94.86987305 487.22875977 C95.01027409 525.83940241 95.08095679 564.44924772 95.04758334 603.0601576 C95.04424916 607.17808317 95.04114135 611.29600886 95.03816986 615.41393471 C95.03738824 616.42786004 95.03660662 617.44178537 95.03580131 618.48643571 C95.02539876 633.78559186 95.0692438 649.08398015 95.14048004 664.38295555 C95.22139768 681.78617124 95.2285474 699.18763621 95.13789681 716.59084155 C95.08934302 726.32709277 95.09844837 736.05921678 95.19136642 745.79516813 C95.24765199 752.30526058 95.22708423 758.81223889 95.14500051 765.32204824 C95.10038129 769.02918289 95.08800971 772.72826886 95.16939846 776.43496122 C95.60463405 797.69565364 95.60463405 797.69565364 90.42124647 804.55925657 C85.5350797 809.36870608 80.05887016 812.94811767 74.11355051 816.3128157 C70.01330164 818.70103399 66.26381926 821.52822138 62.46166992 824.35742188 C60.99333344 825.41319739 59.5234707 826.46685624 58.05151367 827.51757812 C52.06878655 831.83879717 46.22552529 836.34159898 40.36816406 840.83032227 C33.64551511 845.97532681 26.8603624 851.02788698 20.03051758 856.02954102 C16.56077444 858.57093345 13.09962205 861.11936486 9.68041992 863.72851562 C9.11846924 864.15656494 8.55651855 864.58461426 7.97753906 865.02563477 C6.51997455 866.14005725 5.06679112 867.26020356 3.61401367 868.38085938 C1.46166992 869.85742188 1.46166992 869.85742188 -0.53833008 869.85742188 C-0.53833008 869.19742188 -0.53833008 868.53742187 -0.53833008 867.85742188 C-1.11848877 867.58285156 -1.69864746 867.30828125 -2.29638672 867.02539062 C-4.49063414 865.88226968 -6.40641857 864.61889384 -8.40942383 863.16992188 C-9.14153076 862.64148682 -9.8736377 862.11305176 -10.62792969 861.56860352 C-11.40273682 861.00391357 -12.17754395 860.43922363 -12.97583008 859.85742188 C-13.7835083 859.2714624 -14.59118652 858.68550293 -15.42333984 858.08178711 C-21.05710735 853.97855162 -26.59399729 849.77113359 -32.09692383 845.49414062 C-36.19059005 842.33443677 -40.36706077 839.28846042 -44.53833008 836.23242188 C-51.59753134 831.05824672 -58.58660996 825.80008468 -65.53833008 820.48242188 C-76.41317896 811.48006424 -76.41317896 811.48006424 -88.26737231 804.02237571 C-90.4464841 802.82957633 -91.91385709 801.74902876 -93.53833008 799.85742188 C-94.61473812 795.87343736 -94.49335883 791.9503286 -94.44435787 787.84378719 C-94.45722833 786.60572359 -94.47009878 785.36765999 -94.48335925 784.09207931 C-94.51205934 780.64216579 -94.50928069 777.19483591 -94.49341521 773.74500762 C-94.48380123 769.99720327 -94.51452418 766.24969679 -94.54011112 762.50199753 C-94.5793127 755.92928251 -94.59224637 749.35691664 -94.58810043 742.78409195 C-94.58194814 733.009963 -94.61548885 723.23625173 -94.65655545 713.46222182 C-94.73253183 694.99049844 -94.75999992 676.51889215 -94.77122914 658.0470302 C-94.77247398 656.00919858 -94.77372852 653.97136695 -94.7749927 651.93353534 C-94.7756196 650.92179432 -94.7762465 649.9100533 -94.77689239 648.86765347 C-94.7845876 637.66277683 -94.80472645 626.45792766 -94.82548714 615.25306892 C-94.88699032 581.41727723 -94.93816675 547.5815189 -94.94224453 513.74566555 C-94.94238592 512.66304454 -94.9425273 511.58042353 -94.94267297 510.46499583 C-94.94337038 504.97761144 -94.94397246 499.49022705 -94.94456779 494.00284266 C-94.94481592 491.80031633 -94.94506416 489.59779 -94.9453125 487.39526367 C-94.94542444 486.30402236 -94.94553638 485.21278105 -94.94565171 484.08847182 C-94.94962425 449.8027763 -95.01632285 415.5176787 -95.12988281 381.23217773 C-95.2573993 342.72647751 -95.33062506 304.22117913 -95.32843834 265.71525532 C-95.32840809 261.60966525 -95.32859542 257.50407524 -95.32893562 253.39848518 C-95.32898889 252.38756061 -95.32904215 251.37663604 -95.32909703 250.33507738 C-95.33124517 234.06074498 -95.38523806 217.7869796 -95.45737106 201.51282467 C-95.52846654 185.15684431 -95.53992072 168.80165371 -95.4909445 152.44558524 C-95.46353971 142.72686173 -95.48047161 133.01059082 -95.56113321 123.29215045 C-95.61060522 116.79878675 -95.60183742 110.30717862 -95.54590826 103.81387191 C-95.51567759 100.11373878 -95.51047002 96.41833672 -95.57621246 92.71855801 C-95.93175547 71.37726852 -95.93175547 71.37726852 -91.95471592 65.5285091 C-88.27384232 61.7247955 -84.13618707 59.13198786 -79.40929414 56.80888594 C-76.90855746 55.53715596 -74.75960198 53.91448116 -72.55786133 52.18554688 C-71.15575486 51.15918098 -69.75341361 50.13313574 -68.35083008 49.10742188 C-61.41458764 44.01916432 -54.55488538 38.8385016 -47.72583008 33.60742188 C-41.00461252 28.4597721 -34.23001359 23.43849061 -27.29223633 18.58789062 C-24.18266788 16.37074658 -21.18708407 14.02571776 -18.19067383 11.65820312 C-16.77625 10.54928711 -16.77625 10.54928711 -15.33325195 9.41796875 C-13.45601409 7.94107143 -11.58843632 6.45179611 -9.73168945 4.94921875 C-8.8725293 4.27568359 -8.01336914 3.60214844 -7.12817383 2.90820312 C-6.3636792 2.29630127 -5.59918457 1.68439941 -4.81152344 1.05395508 C-2.53833008 -0.14257812 -2.53833008 -0.14257812 0 0 Z " fill="#120F11" transform="translate(1416.538330078125,606.142578125)"/>
<path d="M0 0 C6.93 0 13.86 0 21 0 C21 280.17 21 560.34 21 849 C14.07 849 7.14 849 0 849 C0 568.83 0 288.66 0 0 Z " fill="#406F6D" transform="translate(1031,617)"/>
<path d="M0 0 C0.91910156 0.63421875 1.83820313 1.2684375 2.78515625 1.921875 C3.50832031 2.41171875 4.23148438 2.9015625 4.9765625 3.40625 C12.32740846 9.05830435 18.38212095 18.78384506 19.78515625 27.921875 C20.85346247 41.96952563 20.39174635 53.44397616 11.05688477 64.71142578 C3.41322484 73.38786829 -6.13036158 79.33328315 -17.86328125 80.1875 C-30.13139661 80.13606136 -38.03382946 78.9520263 -48.21484375 71.921875 C-48.85550781 71.47972656 -49.49617187 71.03757812 -50.15625 70.58203125 C-58.07845942 64.46757431 -63.68405187 54.78238126 -65.21484375 44.921875 C-66.42806305 29.28672485 -63.49208179 18.95006724 -53.58984375 6.953125 C-40.26097514 -7.65736559 -16.66170408 -9.92950184 0 0 Z " fill="#FCFCFC" transform="translate(1034.21484375,1808.078125)"/>
<path d="M0 0 C23.76 0 47.52 0 72 0 C71.194448 4.02776001 70.57184736 6.18909416 68.71484375 9.64453125 C68.31128662 10.40354736 67.90772949 11.16256348 67.49194336 11.94458008 C66.97897705 12.89099365 66.46601074 13.83740723 65.9375 14.8125 C64.308125 17.844375 62.67875 20.87625 61 24 C48.79 24 36.58 24 24 24 C24 25.98 24 27.96 24 30 C24.91700684 29.97381592 25.83401367 29.94763184 26.77880859 29.9206543 C30.22688934 29.83472421 33.67380995 29.77241469 37.12255859 29.7253418 C38.60646679 29.70041162 40.09025495 29.66645375 41.57373047 29.62280273 C50.63109481 29.36323565 58.31736862 29.51386156 66 35 C71.25298568 40.11829374 73.35749046 46.28276893 73.46777344 53.45825195 C73.4577832 54.21452881 73.44779297 54.97080566 73.4375 55.75 C73.43137695 56.53914795 73.42525391 57.3282959 73.41894531 58.14135742 C73.2103327 65.98278449 71.21014857 72.15270435 67.3125 78.9375 C60.4950243 85.0179513 52.97117997 85.56386267 44.18359375 85.390625 C43.08652603 85.38496521 41.98945831 85.37930542 40.85914612 85.37347412 C37.38480394 85.35123774 33.91152593 85.30106382 30.4375 85.25 C28.06967644 85.2299186 25.70183658 85.21167072 23.33398438 85.1953125 C17.55525837 85.15483106 11.77880814 85.07651235 6 85 C6 77.08 6 69.16 6 61 C8.70832031 60.93941406 11.41664062 60.87882812 14.20703125 60.81640625 C16.82823457 60.75460902 19.44939503 60.69122456 22.07055664 60.62768555 C23.89310904 60.58435713 25.71570148 60.54268053 27.53833008 60.50268555 C30.15718661 60.44493238 32.77584195 60.38125244 35.39453125 60.31640625 C36.21025101 60.29969376 37.02597076 60.28298126 37.8664093 60.26576233 C41.14179544 60.17986755 43.87256401 60.04247866 47 59 C47 58.01 47 57.02 47 56 C44.23829856 55.07943285 42.47821145 54.85199851 39.62036133 54.79467773 C38.28092468 54.76440491 38.28092468 54.76440491 36.91442871 54.73352051 C35.97973755 54.71704468 35.04504639 54.70056885 34.08203125 54.68359375 C33.22009155 54.66494263 32.35815186 54.6462915 31.47009277 54.6270752 C28.25099923 54.55878839 25.03173735 54.49863272 21.8125 54.4375 C14.614375 54.293125 7.41625 54.14875 0 54 C0 36.18 0 18.36 0 0 Z " fill="#FEFEFE" transform="translate(1135,1803)"/>
<path d="M0 0 C5.35272952 -0.09977129 10.70490357 -0.1718895 16.05834961 -0.21972656 C17.87485193 -0.23969343 19.69129121 -0.26687687 21.50756836 -0.30175781 C33.75158711 -0.53080686 44.28576095 -0.58034689 54.4375 7.1875 C60.25661038 12.8393259 62.20293218 18.44963244 62.4375 26.5 C62.20442002 33.37987794 60.82617168 38.78593785 57.4375 44.75 C48.70644104 52.80943904 37.39972922 54.26643888 26.0625 55.125 C24.99708984 55.21136719 23.93167969 55.29773437 22.83398438 55.38671875 C20.22309173 55.59746345 17.61186316 55.80171135 15 56 C14.67 57.32 14.34 58.64 14 60 C19.01787717 59.98053311 24.03401191 59.92867687 29.05126953 59.84741211 C30.75625096 59.8242844 32.46137419 59.80984867 34.16650391 59.80444336 C36.62491687 59.79511488 39.08111578 59.75404475 41.5390625 59.70703125 C42.29555084 59.7109639 43.05203918 59.71489655 43.83145142 59.71894836 C44.5517453 59.69930527 45.27203918 59.67966217 46.01416016 59.65942383 C46.64037262 59.65276199 47.26658508 59.64610016 47.91177368 59.63923645 C50.96507954 58.85199425 50.96507954 58.85199425 56 54 C56 64.23 56 74.46 56 85 C33.56 85 11.12 85 -12 85 C-12 45.91588785 -12 45.91588785 -5 38 C4.44508774 30.5363992 14.40264339 29.72810607 26.0625 29.375 C27.64708008 29.31699219 27.64708008 29.31699219 29.26367188 29.2578125 C31.84228408 29.16446907 34.42090608 29.07868747 37 29 C36.34 27.68 35.68 26.36 35 25 C19.82 24.67 4.64 24.34 -11 24 C-9.71785687 20.15357062 -8.62257334 16.99878744 -6.8359375 13.4765625 C-6.43632813 12.68378906 -6.03671875 11.89101562 -5.625 11.07421875 C-5.2125 10.26597656 -4.8 9.45773437 -4.375 8.625 C-3.74464844 7.37783203 -3.74464844 7.37783203 -3.1015625 6.10546875 C-2.07133925 4.06843641 -1.03741179 2.03337811 0 0 Z " fill="#FCFCFC" transform="translate(907,1803)"/>
<path d="M0 0 C4.15849515 -0.07546125 8.31660338 -0.12920345 12.47558594 -0.16479492 C13.88353435 -0.17966762 15.2914383 -0.19997219 16.69921875 -0.22631836 C30.02346581 -0.46901 44.33197626 -0.03145192 55 9 C61.73451012 17.09076563 61.73416884 25.86847 61 36 C59.41665756 42.77212729 55.82074669 47.31614023 50 51 C41.00960276 55.25043388 32.31701167 55.75168472 22.52539062 56.1328125 C21.45353516 56.19210937 20.38167969 56.25140625 19.27734375 56.3125 C18.31046631 56.34988281 17.34358887 56.38726563 16.34741211 56.42578125 C13.8250857 56.75897952 13.8250857 56.75897952 12.67016602 59.04296875 C12.44901123 59.68878906 12.22785645 60.33460937 12 61 C17.32083684 60.95579624 22.64049276 60.88591026 27.96069336 60.79248047 C29.76951689 60.76430111 31.57846286 60.74307145 33.38745117 60.72900391 C35.99200994 60.70753186 38.59510134 60.66086189 41.19921875 60.609375 C42.00461594 60.60814636 42.81001312 60.60691772 43.63981628 60.60565186 C44.4002272 60.58593323 45.16063812 60.5662146 45.9440918 60.54589844 C46.60805466 60.53701599 47.27201752 60.52813354 47.95610046 60.51898193 C50.75991924 59.9569123 50.75991924 59.9569123 55 56 C55 65.9 55 75.8 55 86 C32.89 86 10.78 86 -12 86 C-12.061875 77.8015625 -12.061875 77.8015625 -12.125 69.4375 C-12.14320801 67.72618896 -12.16141602 66.01487793 -12.18017578 64.25170898 C-12.18602437 62.87484042 -12.19111906 61.49796835 -12.1953125 60.12109375 C-12.20554443 59.42278442 -12.21577637 58.7244751 -12.22631836 58.00500488 C-12.22912922 49.98702363 -10.39716959 44.55933473 -4.9765625 38.79296875 C5.54126102 29.25209721 21.69796128 30.52381085 35 30 C35 28.68 35 27.36 35 26 C11.735 25.505 11.735 25.505 -12 25 C-3 6 -3 6 0 0 Z " fill="#FCFCFC" transform="translate(1067,1802)"/>
<path d="M0 0 C3 1 3 1 4.0715332 3.07861328 C4.39468506 3.98337402 4.71783691 4.88813477 5.05078125 5.8203125 C5.4161499 6.82247803 5.78151855 7.82464355 6.15795898 8.85717773 C6.53895752 9.93555908 6.91995605 11.01394043 7.3125 12.125 C8.12123243 14.34807983 8.93112466 16.57073808 9.7421875 18.79296875 C10.13245117 19.8711084 10.52271484 20.94924805 10.92480469 22.06005859 C13.13356099 28.09953257 15.58174249 34.0420684 18 40 C19.75531177 44.33120487 21.50377869 48.66512317 23.25 53 C23.68691162 54.07564209 24.12382324 55.15128418 24.57397461 56.25952148 C30.30353864 70.49253037 30.30353864 70.49253037 30.125 78.4375 C30.10695313 79.48808594 30.08890625 80.53867188 30.0703125 81.62109375 C30.04710937 82.40613281 30.02390625 83.19117188 30 84 C25.27676747 83.30047668 21.17540824 81.55218503 16.80859375 79.7109375 C16.00220459 79.3752626 15.19581543 79.03958771 14.36499023 78.69374084 C11.72067308 77.59180021 9.07910133 76.48343337 6.4375 75.375 C4.6089848 74.61163055 2.78028811 73.84869566 0.95141602 73.08618164 C-2.81725056 71.51411636 -6.58483928 69.93950878 -10.3515625 68.36279297 C-15.804677 66.08062001 -21.26113973 63.80655378 -26.71875 61.53515625 C-28.39510371 60.83740906 -30.07145468 60.13965531 -31.74780273 59.44189453 C-32.54870331 59.10853088 -33.34960388 58.77516724 -34.17477417 58.43170166 C-40.11765615 55.95720352 -46.0587741 53.47847111 -52 51 C-51.67 49.68 -51.34 48.36 -51 47 C-50.27296875 46.84144531 -49.5459375 46.68289063 -48.796875 46.51953125 C-34.95629981 43.30780803 -22.06883513 38.65829383 -13.625 26.5625 C-10.06714227 20.70309024 -7.2709909 14.96170129 -6.0625 8.1875 C-5.39797189 4.79959331 -5.04444763 4.04786667 -2.5625 1.375 C-1.716875 0.92125 -0.87125 0.4675 0 0 Z " fill="#DEEDE3" transform="translate(1616,1614)"/>
<path d="M0 0 C3.38622018 0.60468218 5.46846951 1.66163851 8 4 C8.8359375 6.49609375 8.8359375 6.49609375 9.375 9.4375 C12.41850952 22.89729879 18.82209433 32.25151375 30.375 39.6875 C38.07119701 44.00053586 46.48494748 45.94692623 55 48 C54.49365234 49.77612305 54.49365234 49.77612305 53 52 C50.36417826 53.36947557 47.85307323 54.50027076 45.1015625 55.58203125 C44.29106445 55.9134613 43.48056641 56.24489136 42.64550781 56.58636475 C39.97696131 57.6744283 37.30121167 58.74344513 34.625 59.8125 C32.77987822 60.56039247 30.93531901 61.30967426 29.09130859 62.06030273 C26.24938549 63.21665199 23.40699128 64.37170676 20.56240845 65.52149963 C14.14541426 68.11620793 7.75266261 70.76327454 1.375 73.453125 C0.54374603 73.80312057 -0.28750793 74.15311615 -1.14395142 74.51371765 C-4.33909317 75.85948101 -7.53396654 77.20581141 -10.72576904 78.55947876 C-12.90632494 79.48329273 -15.08953688 80.40053341 -17.2734375 81.31640625 C-17.91531006 81.59055359 -18.55718262 81.86470093 -19.21850586 82.14715576 C-22.00145936 83.30849416 -23.94751588 84 -27 84 C-28.53439216 68.21280952 -21.11488155 53.15656881 -15 39 C-11.81127331 31.52360691 -8.89191138 24.0180078 -6.19921875 16.34765625 C-4.82774518 12.51914534 -3.33966907 8.75042254 -1.796875 4.98828125 C-1.13938675 3.34778361 -0.5588849 1.67665469 0 0 Z " fill="#DEEDE3" transform="translate(469,1604)"/>
<path d="M0 0 C-0.6084087 7.00110877 -2.34050558 13.5866678 -4.15118408 20.36526489 C-5.07301657 23.81964514 -5.97739164 27.27855016 -6.87890625 30.73828125 C-7.06096619 31.43692795 -7.24302612 32.13557465 -7.43060303 32.85539246 C-9.12333249 39.39574757 -10.6435214 45.97124789 -12.125 52.5625 C-14.73379726 64.1424475 -17.76271143 75.58101107 -21 87 C-21.99 87 -22.98 87 -24 87 C-24.44988281 85.83984375 -24.89976563 84.6796875 -25.36328125 83.484375 C-31.12360412 69.25298909 -38.41373954 57.58584733 -53 51 C-59.40731379 48.39993064 -65.44336249 47.64030285 -72.3359375 47.50390625 C-75.72079711 46.86366154 -76.92742269 45.70613767 -79 43 C-79 42.01 -79 41.02 -79 40 C-78.42258057 39.68885254 -77.84516113 39.37770508 -77.25024414 39.05712891 C-62.52340923 31.10810937 -47.896549 23.06081395 -33.78833008 14.04931641 C-11.74816798 0 -11.74816798 0 0 0 Z " fill="#DEEDE3" transform="translate(1620,372)"/>
<path d="M0 0 C16.07654096 -0.79064956 32.42973474 6.86021212 46.75 13.625 C52.5218315 16.35134695 58.51359217 18.35952512 64.5390625 20.44140625 C69.07496475 22.01245054 73.57136287 23.68077502 78.0625 25.375 C78.75947998 25.63788818 79.45645996 25.90077637 80.17456055 26.17163086 C81.78355496 26.77972739 83.3918616 27.3896433 85 28 C83.82768724 31.33658248 82.91025255 33.89346975 80 36 C77.21484375 36.73828125 77.21484375 36.73828125 73.9375 37.3125 C67.31861341 38.7260998 62.4768903 41.08654824 57 45 C56.37609375 45.40605469 55.7521875 45.81210937 55.109375 46.23046875 C43.93307058 54.41132221 39.59251138 70.09844339 37 83 C36.01 83 35.02 83 34 83 C27.65531647 68.00478427 21.3206936 53.00534482 15 38 C14.60147827 37.05392883 14.20295654 36.10785767 13.7923584 35.13311768 C11.62162921 29.97777807 9.45533931 24.82061387 7.29592896 19.66052246 C6.64097837 18.09677079 5.98479153 16.53353632 5.32736206 14.9708252 C4.41925234 12.8113882 3.51563801 10.65012725 2.61328125 8.48828125 C2.10579346 7.27696533 1.59830566 6.06564941 1.07543945 4.81762695 C0 2 0 2 0 0 Z " fill="#DEEDE3" transform="translate(420,419)"/>
<path d="M0 0 C5.60555535 3.06719066 9.07388902 6.80359684 11.3125 12.8125 C12.02516197 19.12464885 10.9698893 23.57807127 7.3125 28.8125 C2.93520619 33.42980208 -1.08342197 34.98415867 -7.375 35.25 C-12.89622974 35.20320992 -16.02629136 34.184677 -20.12890625 30.5 C-24.88747502 25.34786539 -25.22395601 20.44688439 -25.0390625 13.65625 C-24.40101746 8.49517458 -21.92423782 5.92556403 -18.1875 2.5625 C-12.09273901 -1.70383269 -7.11562135 -2.29147128 0 0 Z " fill="#242021" transform="translate(1018.6875,1828.1875)"/>
</svg>
