<?xml version="1.0" encoding="UTF-8"?>
<svg version="1.1" xmlns="http://www.w3.org/2000/svg" width="2084" height="2084">
<path d="M0 0 C2.89059638 1.41707057 5.78577256 2.824249 8.68212891 4.22949219 C20.48577399 9.99775807 31.90068945 16.36991671 43.29296875 22.90771484 C46.20517568 24.56968539 49.12857793 26.20979809 52.05712891 27.84277344 C64.14973131 34.5935524 76.01547953 41.6271767 87.73144531 49.01220703 C90.14422165 50.53017264 92.5643502 52.0356452 94.98681641 53.53808594 C113.59292639 65.12013252 131.55035306 77.63082416 149.22509766 90.58105469 C150.84097903 91.75944565 152.45686454 92.93783094 154.07275391 94.11621094 C163.60805336 101.088105 172.99691937 108.20790461 182.22509766 115.58105469 C183.11455078 116.28746094 184.00400391 116.99386719 184.92041016 117.72167969 C194.93168004 125.69303564 204.78761576 133.84212138 214.52929688 142.13964844 C216.22744612 143.58305084 217.93099958 145.01986891 219.63525391 146.45605469 C226.61278536 152.35928503 233.37813967 158.44398289 240.0300293 164.7121582 C243.14850276 167.65006471 246.28049934 170.54580965 249.53759766 173.33105469 C253.50760611 176.74130056 257.13062764 180.47333844 260.80712891 184.19433594 C262.78777349 186.14938253 264.7879793 187.97576393 266.91259766 189.76855469 C275.73423725 197.32996005 284.06677427 205.81759175 291.55712891 214.69433594 C293.68039722 217.09606567 295.94487606 219.32810032 298.22509766 221.58105469 C301.77427923 225.09282019 305.14478223 228.6711437 308.38916016 232.46386719 C310.57715935 234.98704924 312.83802878 237.43659988 315.10009766 239.89355469 C319.24755024 244.43630154 323.15742461 249.1222543 327.01806641 253.90917969 C329.14133103 256.47964518 331.34321614 258.94024832 333.60009766 261.39355469 C337.66382544 265.85305423 341.38393742 270.51629196 345.07714844 275.28100586 C347.96241252 278.99726997 350.92368032 282.62329602 353.97509766 286.20605469 C360.46204147 293.92860684 366.4062215 302.05942838 372.41601562 310.15478516 C374.02908816 312.31817447 375.65524336 314.47033971 377.29150391 316.61621094 C413.53449357 364.211541 444.09582439 416.35212753 471.22509766 469.58105469 C471.74313965 470.58990723 472.26118164 471.59875977 472.79492188 472.63818359 C498.2483829 522.2450413 518.89980703 574.70962162 535.35009766 627.95605469 C535.73770767 629.21030746 535.73770767 629.21030746 536.13314819 630.48989868 C537.3465758 634.43690266 538.53658356 638.38921434 539.68768895 642.35485578 C540.67931216 645.75987928 541.71700128 649.14534633 542.7893914 652.52570415 C546.99132181 666.21049716 548.09516442 678.76094921 548.02737427 693.01397705 C548.03861462 695.29230902 548.05243133 697.57062946 548.0685662 699.84893203 C548.10492569 706.04614982 548.10451449 712.24287784 548.09739995 718.44017768 C548.09629393 724.45843222 548.12333574 730.47652631 548.14907728 736.49471017 C548.2068266 750.31028275 548.22397208 764.12572082 548.22741963 777.94140002 C548.23018816 788.62560625 548.24259646 799.30976056 548.26162338 809.99394989 C548.26700964 813.08134573 548.27234853 816.16874166 548.27767265 819.25613761 C548.27899894 820.02393104 548.28032523 820.79172447 548.28169171 821.58278437 C548.31857381 843.15547681 548.34229966 864.72815125 548.33963203 886.30087662 C548.33953856 887.11275253 548.33944509 887.92462845 548.33934878 888.76110667 C548.33885022 892.87497892 548.33825599 896.98885115 548.33764054 901.10272339 C548.33746103 902.32801302 548.33746103 902.32801302 548.3372779 903.57805597 C548.33703527 905.22994673 548.33678448 906.88183749 548.33652555 908.53372825 C548.3328555 934.18919396 548.37778625 959.84418246 548.45996094 985.49951172 C548.55250505 1014.40332492 548.6037351 1043.3068247 548.59818161 1072.21079516 C548.59773392 1075.30447817 548.59744162 1078.39816115 548.59725571 1081.49184418 C548.59718578 1082.25343792 548.59711585 1083.01503166 548.59704381 1083.799704 C548.59686059 1095.95817806 548.63487282 1108.11623177 548.68684929 1120.27458153 C548.73818731 1132.53907915 548.74328095 1144.80297463 548.70419337 1157.0675213 C548.68422177 1163.6878087 548.68349705 1170.30692426 548.73631287 1176.92715263 C548.96821601 1207.94527741 546.34933866 1234.93235836 536.02407464 1264.27071589 C534.61340941 1268.34982538 533.304912 1272.46181414 531.98909187 1276.57229996 C529.19805912 1285.2879649 526.24922196 1293.94372399 523.22509766 1302.58105469 C522.99691345 1303.23424683 522.76872925 1303.88743896 522.53363037 1304.5604248 C508.38271024 1344.99198907 491.09028053 1384.1483488 472.22509766 1422.58105469 C471.70415527 1423.6501709 471.18321289 1424.71928711 470.64648438 1425.82080078 C463.84379846 1439.77385088 456.57058933 1453.37121653 448.81445312 1466.81689453 C447.27285074 1469.49800393 445.74801844 1472.18787642 444.22900391 1474.88183594 C425.29967019 1508.40580539 404.3367179 1541.10989224 381.35009766 1572.01855469 C380.76768311 1572.80512451 380.18526855 1573.59169434 379.58520508 1574.40209961 C373.55160411 1582.52804364 367.4186268 1590.57652888 361.22509766 1598.58105469 C360.74443848 1599.20351074 360.2637793 1599.8259668 359.76855469 1600.46728516 C353.97037071 1607.96269385 348.00590416 1615.28311495 341.85009766 1622.48730469 C339.38593802 1625.37656789 336.98848766 1628.31623927 334.60009766 1631.26855469 C330.9767527 1635.72009277 327.20545893 1640.00487924 323.34228516 1644.24902344 C321.44458596 1646.33929358 319.57776351 1648.45091584 317.72509766 1650.58105469 C314.37316397 1654.42728275 310.9656942 1658.22133512 307.54541016 1662.00683594 C306.01304379 1663.70688549 304.48685965 1665.41253037 302.96728516 1667.12402344 C298.56609555 1672.06961106 294.0318216 1676.80764203 289.31884766 1681.45605469 C287.48626271 1683.31599165 285.78401185 1685.21285013 284.10009766 1687.20605469 C276.50796138 1696.04280347 268.01306568 1704.40205347 259.11181641 1711.91308594 C256.71008668 1714.03635425 254.47805203 1716.30083309 252.22509766 1718.58105469 C248.73468325 1722.10860116 245.17865452 1725.45489942 241.40869141 1728.67871094 C239.21689404 1730.58820167 237.08124901 1732.55171291 234.95068359 1734.52905273 C229.73966331 1739.36372155 224.40297164 1743.95096064 218.86181641 1748.40917969 C216.30089737 1750.51861818 213.85386311 1752.70993117 211.41259766 1754.95605469 C207.03730175 1758.93860749 202.47780499 1762.59923539 197.80639648 1766.22216797 C194.0099755 1769.16881014 190.26700329 1772.16899417 186.55615234 1775.22265625 C171.65679802 1787.47389767 156.06318291 1798.83205854 140.37353516 1810.04443359 C138.28941462 1811.53505344 136.21033317 1813.03250431 134.13134766 1814.53027344 C99.25895322 1839.53162474 62.07251168 1861.43009896 24.22509766 1881.58105469 C22.98300537 1882.24548584 22.98300537 1882.24548584 21.71582031 1882.92333984 C16.24007744 1885.85070864 10.74067821 1888.72952914 5.22509766 1891.58105469 C3.95303467 1892.24258545 3.95303467 1892.24258545 2.65527344 1892.91748047 C-44.58228842 1917.3851758 -94.94502486 1937.55544004 -145.64204979 1953.64217186 C-150.17813538 1955.08179095 -154.70162045 1956.54179073 -159.1917851 1958.11961102 C-188.9189672 1968.53781726 -216.63010557 1970.332306 -247.95874906 1970.12043262 C-253.9615412 1970.09190859 -259.96393719 1970.12091707 -265.96667535 1970.14726995 C-278.96297505 1970.20209715 -291.95852206 1970.19015645 -304.95483116 1970.14823993 C-316.32555417 1970.1117953 -327.69601376 1970.09912931 -339.06679153 1970.10896683 C-339.8267161 1970.1095932 -340.58664066 1970.11021957 -341.36959323 1970.11086492 C-344.45580227 1970.11343823 -347.54201118 1970.11611678 -350.62821998 1970.11895466 C-379.45880502 1970.14511957 -408.28892908 1970.10346247 -437.11941171 1970.02932015 C-462.63707509 1969.96408871 -488.15416249 1969.95506294 -513.671875 1969.99462891 C-520.21338044 1970.00471773 -526.75488594 1970.01472782 -533.29639244 1970.02411461 C-534.10216907 1970.02527097 -534.90794571 1970.02642733 -535.73813981 1970.02761874 C-557.17597993 1970.05745427 -578.61378227 1970.04070866 -600.05161345 1970.00998366 C-602.36257389 1970.00672557 -604.67353435 1970.00348911 -606.98449487 1970.00028363 C-608.51697105 1969.99815663 -610.04944718 1969.99599724 -611.58192327 1969.99380522 C-622.9392853 1969.97805047 -634.29646857 1969.98580392 -645.65382004 1970.0051384 C-658.58493987 1970.02694846 -671.51546893 1970.01172327 -684.44647138 1969.95022683 C-691.02546572 1969.9198091 -697.60369117 1969.90525172 -704.18277359 1969.93460846 C-731.91008216 1970.04668225 -757.02567684 1969.01235944 -783.34904027 1959.77795911 C-787.45886049 1958.34209804 -791.60754845 1957.07901713 -795.77932394 1955.83745229 C-799.84346198 1954.6170573 -803.87044065 1953.28563661 -807.89990234 1951.95605469 C-808.77136902 1951.67068848 -809.64283569 1951.38532227 -810.54071045 1951.09130859 C-850.92448237 1937.83126185 -890.33189058 1921.68831745 -928.77490234 1903.58105469 C-929.76828613 1903.11521973 -930.76166992 1902.64938477 -931.78515625 1902.16943359 C-965.16897382 1886.47781882 -997.20905854 1868.76876555 -1028.63720703 1849.49951172 C-1031.35624193 1847.83703302 -1034.0819896 1846.18698467 -1036.81396484 1844.54589844 C-1066.7336902 1826.53952797 -1095.25769786 1806.05621302 -1122.77490234 1784.58105469 C-1123.34547363 1784.13665039 -1123.91604492 1783.69224609 -1124.50390625 1783.234375 C-1135.16415561 1774.92595049 -1145.64566106 1766.42420104 -1155.93920898 1757.66479492 C-1159.34434363 1754.77212018 -1162.79216009 1751.94291001 -1166.27490234 1749.14355469 C-1171.02981284 1745.27715301 -1175.54151879 1741.19576601 -1180.00927734 1737.00512695 C-1182.8024739 1734.38650518 -1185.62956571 1731.82266548 -1188.52246094 1729.31420898 C-1201.48643189 1717.99019541 -1213.68193429 1705.83542434 -1225.83276367 1693.65356445 C-1228.36245538 1691.11844792 -1230.89753767 1688.58880832 -1233.43310547 1686.05957031 C-1235.06949436 1684.42252151 -1236.70557352 1682.78516303 -1238.34130859 1681.14746094 C-1239.08619034 1680.40460342 -1239.83107208 1679.66174591 -1240.598526 1678.89637756 C-1244.63228669 1674.84467338 -1248.50329391 1670.70694849 -1252.22657776 1666.36749268 C-1254.78089756 1663.4203497 -1257.47410113 1660.60493675 -1260.14990234 1657.76855469 C-1264.87363344 1652.72539651 -1269.34324525 1647.55414493 -1273.66552734 1642.15917969 C-1275.7947538 1639.55679179 -1278.00939591 1637.06529967 -1280.27490234 1634.58105469 C-1284.97898378 1629.40575266 -1289.39482894 1624.03165722 -1293.77490234 1618.58105469 C-1294.23799805 1618.00693848 -1294.70109375 1617.43282227 -1295.17822266 1616.84130859 C-1302.16391833 1608.17950706 -1309.05126762 1599.44825955 -1315.77490234 1590.58105469 C-1316.33580566 1589.84226074 -1316.89670898 1589.1034668 -1317.47460938 1588.34228516 C-1326.13916495 1576.91171025 -1334.59432137 1565.36257504 -1342.77490234 1553.58105469 C-1343.22784668 1552.93249512 -1343.68079102 1552.28393555 -1344.14746094 1551.61572266 C-1365.35457267 1521.24250222 -1384.68537399 1489.54971531 -1402.43066406 1457.03857422 C-1403.37864228 1455.30549235 -1404.33122771 1453.5749267 -1405.28710938 1451.84619141 C-1428.0697627 1410.6227314 -1447.11430111 1367.61255183 -1463.77490234 1323.58105469 C-1464.17228607 1322.5326239 -1464.17228607 1322.5326239 -1464.57769775 1321.4630127 C-1478.66832068 1284.21189172 -1490.14840781 1246.21638317 -1499.77490234 1207.58105469 C-1499.9680603 1206.81100098 -1500.16121826 1206.04094727 -1500.36022949 1205.24755859 C-1520.34095534 1125.59123151 -1530.70092119 1043.68905149 -1531.77490234 961.58105469 C-1531.79149902 960.33437012 -1531.8080957 959.08768555 -1531.82519531 957.80322266 C-1531.91675872 949.39408407 -1531.8868457 940.98984828 -1531.77490234 932.58105469 C-1531.76630188 931.9235321 -1531.75770142 931.26600952 -1531.74884033 930.58856201 C-1530.96916382 873.86498133 -1525.33078094 817.48089953 -1515.77490234 761.58105469 C-1515.56574188 760.35509583 -1515.56574188 760.35509583 -1515.35235596 759.10437012 C-1510.93212011 733.33566924 -1505.12418322 707.9376077 -1498.77490234 682.58105469 C-1498.58476563 681.81921875 -1498.39462891 681.05738281 -1498.19873047 680.27246094 C-1479.39648281 605.06347032 -1451.41972014 532.50552239 -1392.25146484 419.08935547 C-1390.21127896 415.62360319 -1388.27413712 412.10522437 -1386.33740234 408.58105469 C-1380.2728403 397.6443439 -1373.47809076 387.13291127 -1366.77490234 376.58105469 C-1366.26636719 375.77958008 -1365.75783203 374.97810547 -1365.23388672 374.15234375 C-1354.53679439 357.33734316 -1343.21098968 340.96334106 -1331.45166016 324.87548828 C-1330.31106081 323.31472056 -1329.17246272 321.75248879 -1328.03564453 320.18896484 C-1320.65634917 310.04090571 -1313.09795872 300.09389265 -1305.1953125 290.34863281 C-1303.31583335 288.00978285 -1301.47645795 285.64095502 -1299.63647461 283.27099609 C-1294.95399922 277.24431359 -1290.11284719 271.38959918 -1285.11474609 265.62207031 C-1282.09851137 262.13969023 -1279.15977517 258.61162734 -1276.27490234 255.01855469 C-1272.43209327 250.28141914 -1268.36973275 245.79321238 -1264.19873047 241.34643555 C-1261.58020275 238.55330954 -1259.01643738 235.72630396 -1256.50805664 232.83349609 C-1245.18404307 219.86952514 -1233.029272 207.67402274 -1220.84741211 195.52319336 C-1218.31229558 192.99350165 -1215.78265597 190.45841936 -1213.25341797 187.92285156 C-1211.61636917 186.28646267 -1209.97901068 184.65038352 -1208.34130859 183.01464844 C-1207.59845108 182.26976669 -1206.85559357 181.52488495 -1206.09022522 180.75743103 C-1202.03852104 176.72367034 -1197.90079614 172.85266312 -1193.56134033 169.12937927 C-1190.61419736 166.57505947 -1187.7987844 163.8818559 -1184.96240234 161.20605469 C-1179.91924416 156.48232359 -1174.74799259 152.01271178 -1169.35302734 147.69042969 C-1166.75063945 145.56120323 -1164.25914733 143.34656112 -1161.77490234 141.08105469 C-1156.59975418 136.37637454 -1151.21287394 131.97669125 -1145.77490234 127.58105469 C-1144.54370147 126.57022701 -1143.31327616 125.55845419 -1142.08349609 124.54589844 C-1133.47980309 117.47850303 -1124.71412958 110.68531053 -1115.76611328 104.06054688 C-1113.78576274 102.58912408 -1111.81410596 101.10683089 -1109.84521484 99.62011719 C-1076.89880745 74.74263504 -1042.42596667 52.37476057 -1006.77490234 31.58105469 C-1005.85354492 31.0423877 -1004.9321875 30.5037207 -1003.98291016 29.94873047 C-969.64049531 9.92101646 -934.22873871 -7.59856627 -897.77490234 -23.41894531 C-897.10203186 -23.71176392 -896.42916138 -24.00458252 -895.73590088 -24.30627441 C-815.51463 -59.20073977 -731.2740291 -82.6980724 0 0 Z " fill="#242C2C" transform="translate(1536.77490234375,115.4189453125)"/>
<path d="M0 0 C3.72328265 2.46709914 7.21382587 5.15736858 10.6953125 7.953125 C17.0555388 12.98041648 23.46859302 17.91068333 30.0078125 22.703125 C30.79575195 23.2811084 31.58369141 23.8590918 32.39550781 24.45458984 C34.78590089 26.20575968 37.17798323 27.9546015 39.5703125 29.703125 C50.37307884 37.60912291 61.09684387 45.60369968 71.72949219 53.73730469 C80.59308887 60.50688075 89.57194027 67.11435872 98.5703125 73.703125 C109.39973719 81.63262006 120.14892794 89.64965714 130.80419922 97.81201172 C136.33093615 102.03281857 141.91386045 106.15812602 147.5703125 110.203125 C155.05375255 115.55462575 162.37898431 121.09387153 169.68139648 126.68920898 C176.22533699 131.6969287 182.83146477 136.61142283 189.47631836 141.48413086 C196.05101169 146.30867186 202.57522052 151.19810422 209.09228516 156.10009766 C214.70455303 160.31665874 220.34714088 164.48934785 226.0078125 168.640625 C233.70572499 174.29063106 241.31620359 180.04900597 248.90112305 185.84960938 C255.19223605 190.66014808 261.51250652 195.4294732 267.86206055 200.16259766 C272.47028278 203.60309528 272.47028278 203.60309528 273.5703125 204.703125 C273.67515673 206.64167886 273.70844456 208.58410775 273.71522301 210.52548289 C273.72208236 211.80157399 273.72894171 213.07766508 273.73600891 214.3924256 C273.73864428 215.82992923 273.7411844 217.26743303 273.74363995 218.70493698 C273.74983339 220.22170647 273.75645801 221.73847425 273.76347807 223.25524014 C273.78162627 227.46202154 273.79342377 231.66880118 273.8042032 235.87560705 C273.81692125 240.43778149 273.83523826 244.99993405 273.85276586 249.56209207 C273.88660575 258.6282574 273.91471175 267.69443264 273.94094357 276.76062284 C273.96288079 284.3011241 273.98709442 291.84161521 274.01270103 299.38210487 C274.29411322 382.46603094 274.45591562 465.55029032 274.5791183 548.63458794 C274.59603653 559.99854093 274.61353259 571.36249303 274.63136489 582.72644461 C274.63452227 584.74122625 274.6376597 586.75600792 274.64079657 588.77078958 C274.70713631 631.21828735 274.83193502 673.6653492 274.99067687 716.1125948 C275.15884767 761.09009025 275.26977208 806.06737063 275.30187433 851.04518759 C275.30636087 857.30162266 275.31150483 863.55805704 275.3170414 869.81449127 C275.31810851 871.04585535 275.31917562 872.27721943 275.32027508 873.54589757 C275.33915966 893.3760156 275.4197787 913.205426 275.52325032 933.035263 C275.62588664 952.96513789 275.66290394 972.89428012 275.63285049 992.82440427 C275.6169711 1004.66925812 275.65135586 1016.51148955 275.75753148 1028.35589145 C275.82351018 1036.26775968 275.82411825 1044.17789045 275.77160931 1052.08985501 C275.7435475 1056.59958865 275.74385397 1061.10435224 275.82388856 1065.6135734 C276.25967975 1091.6616736 276.25967975 1091.6616736 271.79195978 1098.37554771 C267.66722242 1102.61427228 263.05468584 1105.32310249 257.68246225 1107.70873335 C254.71804681 1109.10436828 252.42160243 1110.91408918 249.88671875 1112.98046875 C249.09507324 1113.58842285 248.30342773 1114.19637695 247.48779297 1114.82275391 C246.71064941 1115.42265137 245.93350586 1116.02254883 245.1328125 1116.640625 C234.60615128 1124.71061033 223.93778808 1132.57631233 213.23632812 1140.41210938 C204.11667468 1147.09376023 195.04991349 1153.83404352 186.0703125 1160.703125 C175.55869175 1168.74414814 164.91400817 1176.59372441 154.23632812 1184.41210938 C145.09280895 1191.11124581 136.00625228 1197.87246815 127.0078125 1204.765625 C119.8811962 1210.22489185 112.67840669 1215.55026352 105.37646484 1220.77197266 C99.54726028 1224.95733896 93.82937263 1229.27683711 88.1328125 1233.640625 C77.60313227 1241.70677192 66.93788658 1249.57624021 56.23632812 1257.41210938 C47.11666499 1264.09376733 38.05022167 1270.83443574 29.0703125 1277.703125 C22.06144951 1283.06019696 15.03074179 1288.38509905 7.9453125 1293.640625 C7.14544922 1294.23810547 6.34558594 1294.83558594 5.52148438 1295.45117188 C4.41256836 1296.27004883 4.41256836 1296.27004883 3.28125 1297.10546875 C2.31131104 1297.82464478 2.31131104 1297.82464478 1.32177734 1298.55834961 C-0.4296875 1299.703125 -0.4296875 1299.703125 -3.4296875 1300.703125 C-5.18115234 1299.78540039 -5.18115234 1299.78540039 -7.140625 1298.30078125 C-7.88030518 1297.7480957 -8.61998535 1297.19541016 -9.38208008 1296.62597656 C-10.18154053 1296.01206055 -10.98100098 1295.39814453 -11.8046875 1294.765625 C-12.63959717 1294.1375293 -13.47450684 1293.50943359 -14.3347168 1292.86230469 C-17.04197702 1290.82073947 -19.73689424 1288.76372634 -22.4296875 1286.703125 C-24.24078991 1285.32148938 -26.05198745 1283.93997845 -27.86328125 1282.55859375 C-30.55719034 1280.50315234 -33.25039791 1278.44683906 -35.94091797 1276.38696289 C-41.24101697 1272.33744353 -46.59570204 1268.39654448 -52.05297852 1264.56274414 C-57.36427446 1260.80570927 -62.51771161 1256.84926952 -67.6796875 1252.890625 C-74.93556557 1247.32810979 -82.25946908 1241.88765315 -89.69262695 1236.56494141 C-96.16440311 1231.92113688 -102.53601537 1227.15091994 -108.89868164 1222.35913086 C-114.55028145 1218.10527963 -120.2284514 1213.89018282 -125.9296875 1209.703125 C-133.30506082 1204.28493585 -140.63473702 1198.8086304 -147.94921875 1193.30859375 C-153.58595086 1189.07446994 -159.24825814 1184.87704409 -164.9296875 1180.703125 C-172.30496472 1175.28480359 -179.63473543 1169.8086316 -186.94921875 1164.30859375 C-192.58595086 1160.07446994 -198.24825814 1155.87704409 -203.9296875 1151.703125 C-211.30496472 1146.28480359 -218.63473543 1140.8086316 -225.94921875 1135.30859375 C-231.58595128 1131.07446963 -237.24828072 1126.8770754 -242.9296875 1122.703125 C-251.99473568 1116.04270213 -260.99822347 1109.30187775 -269.98706055 1102.5390625 C-272.26551608 1100.71290807 -272.26551608 1100.71290807 -274.38155584 1099.72327318 C-276.91126458 1098.27247253 -278.57805953 1096.97114795 -280.4296875 1094.703125 C-281.66112693 1089.88971857 -281.52787068 1085.07763532 -281.47272968 1080.14130592 C-281.48502095 1078.62470362 -281.50080554 1077.10812631 -281.5197669 1075.59159273 C-281.56183057 1071.40823555 -281.55391524 1067.22621774 -281.53804563 1063.04273369 C-281.52950159 1058.49751475 -281.56701426 1053.95264049 -281.59864825 1049.40755594 C-281.65409227 1040.38582662 -281.66640846 1031.36450009 -281.66571096 1022.34262063 C-281.66687279 1011.53903811 -281.71411 1000.73578163 -281.76228319 989.93232415 C-281.86564936 966.29483802 -281.90485223 942.65745356 -281.9286549 919.0197735 C-281.92989141 917.79509693 -281.93112792 916.57042036 -281.9324019 915.30863237 C-281.93363237 914.0815251 -281.93486284 912.85441783 -281.9361306 911.59012549 C-281.95051115 897.99981733 -281.97827852 884.40954123 -282.00641441 870.81925583 C-282.08986649 829.77847699 -282.15963158 788.73773044 -282.1747942 747.69686317 C-282.17529566 746.38368286 -282.17579712 745.07050254 -282.17631378 743.71752887 C-282.17833912 738.39565292 -282.18031091 733.07377696 -282.18227475 727.75190098 C-282.18350683 724.4144695 -282.18475662 721.07703802 -282.1860163 717.73960654 C-282.18651721 716.40295472 -282.18701124 715.06630289 -282.18749839 713.72965106 C-282.20292573 671.47775956 -282.2968898 629.22669474 -282.45336914 586.97509766 C-282.626313 540.27192385 -282.72754491 493.56929461 -282.73090857 446.8657831 C-282.73154195 441.88557259 -282.73247298 436.90536223 -282.73361778 431.92515182 C-282.73386166 430.69887197 -282.73410554 429.47259211 -282.73435681 428.20915226 C-282.7400185 408.47191791 -282.81430044 388.73551269 -282.91284985 368.99854911 C-283.01010626 349.15981517 -283.02926018 329.32218487 -282.969322 309.48329325 C-282.93594934 297.6965243 -282.96074946 285.91325524 -283.06934155 274.12692091 C-283.13610727 266.25001567 -283.12631136 258.37558461 -283.05474892 250.49872825 C-283.01613089 246.01108726 -283.01020698 241.53017368 -283.09766457 237.04306777 C-283.5689514 211.2445987 -283.5689514 211.2445987 -278.40430592 203.77306959 C-273.6143173 198.83173025 -268.2048299 195.40601781 -262.14821454 192.21434073 C-257.66007672 189.71940712 -253.68294406 186.57263952 -249.6171875 183.453125 C-248.05075146 182.29858235 -246.4820668 181.14707795 -244.91015625 180 C-240.72825774 176.92963202 -236.57445848 173.82335749 -232.4296875 170.703125 C-226.72996138 166.41230394 -220.99476157 162.17278327 -215.2421875 157.953125 C-208.39077452 152.9252129 -201.61270011 147.80960965 -194.8671875 142.640625 C-187.74066647 137.18123692 -180.53777773 131.85598365 -173.23583984 126.63427734 C-167.40663528 122.44891104 -161.68874763 118.12941289 -155.9921875 113.765625 C-145.46250727 105.69947808 -134.79726158 97.83000979 -124.09570312 89.99414062 C-114.97604968 83.31248977 -105.90928849 76.57220648 -96.9296875 69.703125 C-86.41806675 61.66210186 -75.77338317 53.81252559 -65.09570312 45.99414062 C-55.95218027 39.29500149 -46.86573883 32.53364048 -37.8671875 25.640625 C-29.14169264 18.95855455 -20.32987407 12.4035496 -11.33691406 6.08447266 C-10.04461205 5.14849662 -8.7807913 4.17213347 -7.54589844 3.16162109 C-3.11121558 -0.38014853 -3.11121558 -0.38014853 0 0 Z " fill="#407170" transform="translate(1419.4296875,391.296875)"/>
<path d="M0 0 C2.89059638 1.41707057 5.78577256 2.824249 8.68212891 4.22949219 C20.48577399 9.99775807 31.90068945 16.36991671 43.29296875 22.90771484 C46.20517568 24.56968539 49.12857793 26.20979809 52.05712891 27.84277344 C64.14973131 34.5935524 76.01547953 41.6271767 87.73144531 49.01220703 C90.14422165 50.53017264 92.5643502 52.0356452 94.98681641 53.53808594 C113.59292639 65.12013252 131.55035306 77.63082416 149.22509766 90.58105469 C150.84097903 91.75944565 152.45686454 92.93783094 154.07275391 94.11621094 C163.60805336 101.088105 172.99691937 108.20790461 182.22509766 115.58105469 C183.11455078 116.28746094 184.00400391 116.99386719 184.92041016 117.72167969 C194.93168004 125.69303564 204.78761576 133.84212138 214.52929688 142.13964844 C216.22744612 143.58305084 217.93099958 145.01986891 219.63525391 146.45605469 C226.61278536 152.35928503 233.37813967 158.44398289 240.0300293 164.7121582 C243.14850276 167.65006471 246.28049934 170.54580965 249.53759766 173.33105469 C253.50760611 176.74130056 257.13062764 180.47333844 260.80712891 184.19433594 C262.78777349 186.14938253 264.7879793 187.97576393 266.91259766 189.76855469 C275.73423725 197.32996005 284.06677427 205.81759175 291.55712891 214.69433594 C293.68039722 217.09606567 295.94487606 219.32810032 298.22509766 221.58105469 C301.77427923 225.09282019 305.14478223 228.6711437 308.38916016 232.46386719 C310.57715935 234.98704924 312.83802878 237.43659988 315.10009766 239.89355469 C319.24755024 244.43630154 323.15742461 249.1222543 327.01806641 253.90917969 C329.14133103 256.47964518 331.34321614 258.94024832 333.60009766 261.39355469 C337.66382544 265.85305423 341.38393742 270.51629196 345.07714844 275.28100586 C347.96241252 278.99726997 350.92368032 282.62329602 353.97509766 286.20605469 C360.46204147 293.92860684 366.4062215 302.05942838 372.41601562 310.15478516 C374.02908816 312.31817447 375.65524336 314.47033971 377.29150391 316.61621094 C413.53449357 364.211541 444.09582439 416.35212753 471.22509766 469.58105469 C471.74313965 470.58990723 472.26118164 471.59875977 472.79492188 472.63818359 C498.2483829 522.2450413 518.89980703 574.70962162 535.35009766 627.95605469 C535.73770767 629.21030746 535.73770767 629.21030746 536.13314819 630.48989868 C537.3465758 634.43690266 538.53658356 638.38921434 539.68768895 642.35485578 C540.67931216 645.75987928 541.71700128 649.14534633 542.7893914 652.52570415 C546.99132181 666.21049716 548.09516442 678.76094921 548.02737427 693.01397705 C548.03861462 695.29230902 548.05243133 697.57062946 548.0685662 699.84893203 C548.10492569 706.04614982 548.10451449 712.24287784 548.09739995 718.44017768 C548.09629393 724.45843222 548.12333574 730.47652631 548.14907728 736.49471017 C548.2068266 750.31028275 548.22397208 764.12572082 548.22741963 777.94140002 C548.23018816 788.62560625 548.24259646 799.30976056 548.26162338 809.99394989 C548.26700964 813.08134573 548.27234853 816.16874166 548.27767265 819.25613761 C548.27899894 820.02393104 548.28032523 820.79172447 548.28169171 821.58278437 C548.31857381 843.15547681 548.34229966 864.72815125 548.33963203 886.30087662 C548.33953856 887.11275253 548.33944509 887.92462845 548.33934878 888.76110667 C548.33885022 892.87497892 548.33825599 896.98885115 548.33764054 901.10272339 C548.33746103 902.32801302 548.33746103 902.32801302 548.3372779 903.57805597 C548.33703527 905.22994673 548.33678448 906.88183749 548.33652555 908.53372825 C548.3328555 934.18919396 548.37778625 959.84418246 548.45996094 985.49951172 C548.55250505 1014.40332492 548.6037351 1043.3068247 548.59818161 1072.21079516 C548.59773392 1075.30447817 548.59744162 1078.39816115 548.59725571 1081.49184418 C548.59718578 1082.25343792 548.59711585 1083.01503166 548.59704381 1083.799704 C548.59686059 1095.95817806 548.63487282 1108.11623177 548.68684929 1120.27458153 C548.73818731 1132.53907915 548.74328095 1144.80297463 548.70419337 1157.0675213 C548.68422177 1163.6878087 548.68349705 1170.30692426 548.73631287 1176.92715263 C548.96821601 1207.94527741 546.34933866 1234.93235836 536.02407464 1264.27071589 C534.61340941 1268.34982538 533.304912 1272.46181414 531.98909187 1276.57229996 C529.19805912 1285.2879649 526.24922196 1293.94372399 523.22509766 1302.58105469 C522.99691345 1303.23424683 522.76872925 1303.88743896 522.53363037 1304.5604248 C508.38271024 1344.99198907 491.09028053 1384.1483488 472.22509766 1422.58105469 C471.70415527 1423.6501709 471.18321289 1424.71928711 470.64648438 1425.82080078 C463.84379846 1439.77385088 456.57058933 1453.37121653 448.81445312 1466.81689453 C447.27285074 1469.49800393 445.74801844 1472.18787642 444.22900391 1474.88183594 C425.29967019 1508.40580539 404.3367179 1541.10989224 381.35009766 1572.01855469 C380.76768311 1572.80512451 380.18526855 1573.59169434 379.58520508 1574.40209961 C373.55160411 1582.52804364 367.4186268 1590.57652888 361.22509766 1598.58105469 C360.74443848 1599.20351074 360.2637793 1599.8259668 359.76855469 1600.46728516 C353.97037071 1607.96269385 348.00590416 1615.28311495 341.85009766 1622.48730469 C339.38593802 1625.37656789 336.98848766 1628.31623927 334.60009766 1631.26855469 C330.9767527 1635.72009277 327.20545893 1640.00487924 323.34228516 1644.24902344 C321.44458596 1646.33929358 319.57776351 1648.45091584 317.72509766 1650.58105469 C314.37316397 1654.42728275 310.9656942 1658.22133512 307.54541016 1662.00683594 C306.01304379 1663.70688549 304.48685965 1665.41253037 302.96728516 1667.12402344 C298.56609555 1672.06961106 294.0318216 1676.80764203 289.31884766 1681.45605469 C287.48626271 1683.31599165 285.78401185 1685.21285013 284.10009766 1687.20605469 C276.50796138 1696.04280347 268.01306568 1704.40205347 259.11181641 1711.91308594 C256.71008668 1714.03635425 254.47805203 1716.30083309 252.22509766 1718.58105469 C248.73468325 1722.10860116 245.17865452 1725.45489942 241.40869141 1728.67871094 C239.21689404 1730.58820167 237.08124901 1732.55171291 234.95068359 1734.52905273 C229.73966331 1739.36372155 224.40297164 1743.95096064 218.86181641 1748.40917969 C216.30089737 1750.51861818 213.85386311 1752.70993117 211.41259766 1754.95605469 C207.03730175 1758.93860749 202.47780499 1762.59923539 197.80639648 1766.22216797 C194.0099755 1769.16881014 190.26700329 1772.16899417 186.55615234 1775.22265625 C171.65679802 1787.47389767 156.06318291 1798.83205854 140.37353516 1810.04443359 C138.28941462 1811.53505344 136.21033317 1813.03250431 134.13134766 1814.53027344 C99.25895322 1839.53162474 62.07251168 1861.43009896 24.22509766 1881.58105469 C22.98300537 1882.24548584 22.98300537 1882.24548584 21.71582031 1882.92333984 C16.24007744 1885.85070864 10.74067821 1888.72952914 5.22509766 1891.58105469 C3.95303467 1892.24258545 3.95303467 1892.24258545 2.65527344 1892.91748047 C-44.58228842 1917.3851758 -94.94502486 1937.55544004 -145.64204979 1953.64217186 C-150.17813538 1955.08179095 -154.70162045 1956.54179073 -159.1917851 1958.11961102 C-188.9189672 1968.53781726 -216.63010557 1970.332306 -247.95874906 1970.12043262 C-253.9615412 1970.09190859 -259.96393719 1970.12091707 -265.96667535 1970.14726995 C-278.96297505 1970.20209715 -291.95852206 1970.19015645 -304.95483116 1970.14823993 C-316.32555417 1970.1117953 -327.69601376 1970.09912931 -339.06679153 1970.10896683 C-339.8267161 1970.1095932 -340.58664066 1970.11021957 -341.36959323 1970.11086492 C-344.45580227 1970.11343823 -347.54201118 1970.11611678 -350.62821998 1970.11895466 C-379.45880502 1970.14511957 -408.28892908 1970.10346247 -437.11941171 1970.02932015 C-462.63707509 1969.96408871 -488.15416249 1969.95506294 -513.671875 1969.99462891 C-520.21338044 1970.00471773 -526.75488594 1970.01472782 -533.29639244 1970.02411461 C-534.10216907 1970.02527097 -534.90794571 1970.02642733 -535.73813981 1970.02761874 C-557.17597993 1970.05745427 -578.61378227 1970.04070866 -600.05161345 1970.00998366 C-602.36257389 1970.00672557 -604.67353435 1970.00348911 -606.98449487 1970.00028363 C-608.51697105 1969.99815663 -610.04944718 1969.99599724 -611.58192327 1969.99380522 C-622.9392853 1969.97805047 -634.29646857 1969.98580392 -645.65382004 1970.0051384 C-658.58493987 1970.02694846 -671.51546893 1970.01172327 -684.44647138 1969.95022683 C-691.02546572 1969.9198091 -697.60369117 1969.90525172 -704.18277359 1969.93460846 C-731.91008216 1970.04668225 -757.02567684 1969.01235944 -783.34904027 1959.77795911 C-787.45886049 1958.34209804 -791.60754845 1957.07901713 -795.77932394 1955.83745229 C-799.84346198 1954.6170573 -803.87044065 1953.28563661 -807.89990234 1951.95605469 C-808.77136902 1951.67068848 -809.64283569 1951.38532227 -810.54071045 1951.09130859 C-850.92448237 1937.83126185 -890.33189058 1921.68831745 -928.77490234 1903.58105469 C-929.76828613 1903.11521973 -930.76166992 1902.64938477 -931.78515625 1902.16943359 C-965.16897382 1886.47781882 -997.20905854 1868.76876555 -1028.63720703 1849.49951172 C-1031.35624193 1847.83703302 -1034.0819896 1846.18698467 -1036.81396484 1844.54589844 C-1066.7336902 1826.53952797 -1095.25769786 1806.05621302 -1122.77490234 1784.58105469 C-1123.34547363 1784.13665039 -1123.91604492 1783.69224609 -1124.50390625 1783.234375 C-1135.16415561 1774.92595049 -1145.64566106 1766.42420104 -1155.93920898 1757.66479492 C-1159.34434363 1754.77212018 -1162.79216009 1751.94291001 -1166.27490234 1749.14355469 C-1171.02981284 1745.27715301 -1175.54151879 1741.19576601 -1180.00927734 1737.00512695 C-1182.8024739 1734.38650518 -1185.62956571 1731.82266548 -1188.52246094 1729.31420898 C-1201.48643189 1717.99019541 -1213.68193429 1705.83542434 -1225.83276367 1693.65356445 C-1228.36245538 1691.11844792 -1230.89753767 1688.58880832 -1233.43310547 1686.05957031 C-1235.06949436 1684.42252151 -1236.70557352 1682.78516303 -1238.34130859 1681.14746094 C-1239.08619034 1680.40460342 -1239.83107208 1679.66174591 -1240.598526 1678.89637756 C-1244.63228669 1674.84467338 -1248.50329391 1670.70694849 -1252.22657776 1666.36749268 C-1254.78089756 1663.4203497 -1257.47410113 1660.60493675 -1260.14990234 1657.76855469 C-1264.87363344 1652.72539651 -1269.34324525 1647.55414493 -1273.66552734 1642.15917969 C-1275.7947538 1639.55679179 -1278.00939591 1637.06529967 -1280.27490234 1634.58105469 C-1284.97898378 1629.40575266 -1289.39482894 1624.03165722 -1293.77490234 1618.58105469 C-1294.23799805 1618.00693848 -1294.70109375 1617.43282227 -1295.17822266 1616.84130859 C-1302.16391833 1608.17950706 -1309.05126762 1599.44825955 -1315.77490234 1590.58105469 C-1316.33580566 1589.84226074 -1316.89670898 1589.1034668 -1317.47460938 1588.34228516 C-1326.13916495 1576.91171025 -1334.59432137 1565.36257504 -1342.77490234 1553.58105469 C-1343.22784668 1552.93249512 -1343.68079102 1552.28393555 -1344.14746094 1551.61572266 C-1365.35457267 1521.24250222 -1384.68537399 1489.54971531 -1402.43066406 1457.03857422 C-1403.37864228 1455.30549235 -1404.33122771 1453.5749267 -1405.28710938 1451.84619141 C-1428.0697627 1410.6227314 -1447.11430111 1367.61255183 -1463.77490234 1323.58105469 C-1464.17228607 1322.5326239 -1464.17228607 1322.5326239 -1464.57769775 1321.4630127 C-1478.66832068 1284.21189172 -1490.14840781 1246.21638317 -1499.77490234 1207.58105469 C-1499.9680603 1206.81100098 -1500.16121826 1206.04094727 -1500.36022949 1205.24755859 C-1520.34095534 1125.59123151 -1530.70092119 1043.68905149 -1531.77490234 961.58105469 C-1531.79149902 960.33437012 -1531.8080957 959.08768555 -1531.82519531 957.80322266 C-1531.91675872 949.39408407 -1531.8868457 940.98984828 -1531.77490234 932.58105469 C-1531.76630188 931.9235321 -1531.75770142 931.26600952 -1531.74884033 930.58856201 C-1530.96916382 873.86498133 -1525.33078094 817.48089953 -1515.77490234 761.58105469 C-1515.56574188 760.35509583 -1515.56574188 760.35509583 -1515.35235596 759.10437012 C-1510.93212011 733.33566924 -1505.12418322 707.9376077 -1498.77490234 682.58105469 C-1498.58476563 681.81921875 -1498.39462891 681.05738281 -1498.19873047 680.27246094 C-1479.39648281 605.06347032 -1451.41972014 532.50552239 -1392.25146484 419.08935547 C-1390.21127896 415.62360319 -1388.27413712 412.10522437 -1386.33740234 408.58105469 C-1380.2728403 397.6443439 -1373.47809076 387.13291127 -1366.77490234 376.58105469 C-1366.26636719 375.77958008 -1365.75783203 374.97810547 -1365.23388672 374.15234375 C-1354.53679439 357.33734316 -1343.21098968 340.96334106 -1331.45166016 324.87548828 C-1330.31106081 323.31472056 -1329.17246272 321.75248879 -1328.03564453 320.18896484 C-1320.65634917 310.04090571 -1313.09795872 300.09389265 -1305.1953125 290.34863281 C-1303.31583335 288.00978285 -1301.47645795 285.64095502 -1299.63647461 283.27099609 C-1294.95399922 277.24431359 -1290.11284719 271.38959918 -1285.11474609 265.62207031 C-1282.09851137 262.13969023 -1279.15977517 258.61162734 -1276.27490234 255.01855469 C-1272.43209327 250.28141914 -1268.36973275 245.79321238 -1264.19873047 241.34643555 C-1261.58020275 238.55330954 -1259.01643738 235.72630396 -1256.50805664 232.83349609 C-1245.18404307 219.86952514 -1233.029272 207.67402274 -1220.84741211 195.52319336 C-1218.31229558 192.99350165 -1215.78265597 190.45841936 -1213.25341797 187.92285156 C-1211.61636917 186.28646267 -1209.97901068 184.65038352 -1208.34130859 183.01464844 C-1207.59845108 182.26976669 -1206.85559357 181.52488495 -1206.09022522 180.75743103 C-1202.03852104 176.72367034 -1197.90079614 172.85266312 -1193.56134033 169.12937927 C-1190.61419736 166.57505947 -1187.7987844 163.8818559 -1184.96240234 161.20605469 C-1179.91924416 156.48232359 -1174.74799259 152.01271178 -1169.35302734 147.69042969 C-1166.75063945 145.56120323 -1164.25914733 143.34656112 -1161.77490234 141.08105469 C-1156.59975418 136.37637454 -1151.21287394 131.97669125 -1145.77490234 127.58105469 C-1144.54370147 126.57022701 -1143.31327616 125.55845419 -1142.08349609 124.54589844 C-1133.47980309 117.47850303 -1124.71412958 110.68531053 -1115.76611328 104.06054688 C-1113.78576274 102.58912408 -1111.81410596 101.10683089 -1109.84521484 99.62011719 C-1076.89880745 74.74263504 -1042.42596667 52.37476057 -1006.77490234 31.58105469 C-1005.85354492 31.0423877 -1004.9321875 30.5037207 -1003.98291016 29.94873047 C-969.64049531 9.92101646 -934.22873871 -7.59856627 -897.77490234 -23.41894531 C-897.10203186 -23.71176392 -896.42916138 -24.00458252 -895.73590088 -24.30627441 C-815.51463 -59.20073977 -731.2740291 -82.6980724 0 0 Z M-775.77490234 -24.41894531 C-776.5256604 -24.19398376 -777.27641846 -23.96902222 -778.04992676 -23.73724365 C-826.75018896 -9.10611486 -873.67935572 9.1729044 -919.77490234 30.58105469 C-920.75571777 31.03351563 -921.7365332 31.48597656 -922.74707031 31.95214844 C-933.74895947 37.03025543 -944.52401219 42.46500638 -955.19824219 48.19921875 C-957.91335234 49.65530397 -960.63505356 51.09860634 -963.35693359 52.54199219 C-978.77495222 60.76047541 -993.82899733 69.53927781 -1008.77490234 78.58105469 C-1009.73058105 79.15887695 -1010.68625977 79.73669922 -1011.67089844 80.33203125 C-1049.97848564 103.57729083 -1086.29382644 129.77890934 -1120.97509766 158.11328125 C-1122.54800528 159.39601601 -1124.12588518 160.67264882 -1125.70458984 161.94824219 C-1136.84747493 170.97497106 -1147.61371205 180.42549077 -1158.13818359 190.16308594 C-1160.35975523 192.20034941 -1162.61073002 194.18336521 -1164.89990234 196.14355469 C-1168.83455086 199.54759707 -1172.45923863 203.2298325 -1176.08740234 206.95605469 C-1178.08822622 208.91034778 -1180.08390697 210.71516038 -1182.20849609 212.52246094 C-1188.06745696 217.60352552 -1193.48523912 223.14242183 -1198.95678711 228.63256836 C-1200.8331971 230.51433743 -1202.71489203 232.39070207 -1204.59716797 234.26660156 C-1209.97856217 239.64500987 -1215.31392594 245.00802896 -1220.24633789 250.80737305 C-1223.09466148 254.11244745 -1226.14278611 257.23362674 -1229.14990234 260.39355469 C-1234.25258808 265.79190304 -1239.10538418 271.26349445 -1243.73583984 277.07324219 C-1245.83672141 279.65708503 -1248.03076799 282.12098988 -1250.27490234 284.58105469 C-1254.08874342 288.77627987 -1257.71549618 293.08574966 -1261.27880859 297.49511719 C-1263.0868839 299.73045286 -1264.90602998 301.95293674 -1266.73974609 304.16699219 C-1274.51229864 313.5851875 -1281.82381645 323.28293312 -1289.00439453 333.15771484 C-1290.76138714 335.56255608 -1292.53446548 337.95454969 -1294.31396484 340.34277344 C-1350.58593514 415.92512779 -1394.97123938 500.37201198 -1436.77490234 616.58105469 C-1437.02393311 617.32754272 -1437.27296387 618.07403076 -1437.52954102 618.84313965 C-1451.35197984 660.4346368 -1462.26628509 703.39400079 -1469.77490234 746.58105469 C-1469.91651794 747.39072693 -1470.05813354 748.20039917 -1470.20404053 749.03460693 C-1479.33004545 801.41356683 -1484.95324836 854.39265334 -1485.77490234 907.58105469 C-1485.78585937 908.24572754 -1485.79681641 908.91040039 -1485.80810547 909.59521484 C-1487.23168776 998.5900429 -1476.86328103 1087.36818431 -1454.77490234 1173.58105469 C-1454.58690063 1174.31783447 -1454.39889893 1175.05461426 -1454.2052002 1175.8137207 C-1437.63449884 1240.61497916 -1414.00905239 1303.25585098 -1384.43457031 1363.21484375 C-1382.84223116 1366.44449544 -1381.26288939 1369.68023425 -1379.68505859 1372.91699219 C-1373.37589795 1385.7814995 -1366.56982705 1398.28975273 -1359.42041016 1410.70458984 C-1357.75555919 1413.61486789 -1356.11694843 1416.53846524 -1354.48583984 1419.46777344 C-1353.93726318 1420.4499585 -1353.38868652 1421.43214355 -1352.82348633 1422.4440918 C-1351.80902835 1424.26193778 -1350.79767528 1426.08152336 -1349.79077148 1427.90356445 C-1341.15586166 1443.30579011 -1331.27359411 1458.0105761 -1321.4753418 1472.68823242 C-1319.83721111 1475.14384135 -1318.20531871 1477.60351722 -1316.57373047 1480.06347656 C-1306.74500623 1494.83650838 -1296.45766397 1509.25675747 -1285.64990234 1523.33105469 C-1284.63790771 1524.65314941 -1284.63790771 1524.65314941 -1283.60546875 1526.00195312 C-1281.66602884 1528.53149663 -1279.72197393 1531.0573825 -1277.77490234 1533.58105469 C-1277.26185547 1534.24621094 -1276.74880859 1534.91136719 -1276.22021484 1535.59667969 C-1262.27117094 1553.63025026 -1247.62891319 1571.14427611 -1232.18896484 1587.92089844 C-1230.22907142 1590.08058682 -1228.30315506 1592.26077101 -1226.38818359 1594.45996094 C-1214.92524215 1607.5847532 -1202.58045556 1619.87950608 -1190.27490234 1632.20605469 C-1189.21965866 1633.26518066 -1189.21965866 1633.26518066 -1188.14309692 1634.34570312 C-1186.09623937 1636.39848998 -1184.04560808 1638.44742766 -1181.99365234 1640.49511719 C-1181.38569321 1641.10505524 -1180.77773407 1641.71499329 -1180.15135193 1642.34341431 C-1176.43612194 1646.03904515 -1172.6030119 1649.54663405 -1168.63008118 1652.96398926 C-1165.48826433 1655.70255188 -1162.48683416 1658.58938432 -1159.46240234 1661.45605469 C-1154.23541574 1666.37599242 -1148.91627373 1671.03480151 -1143.30615234 1675.51464844 C-1140.77352081 1677.58218251 -1138.36759074 1679.7421881 -1135.96240234 1681.95605469 C-1131.58789408 1685.93789055 -1127.0296116 1689.59847552 -1122.35839844 1693.2199707 C-1118.54175666 1696.18150952 -1114.78278517 1699.20065298 -1111.05517578 1702.2734375 C-1102.315569 1709.4689748 -1093.29718748 1716.22699798 -1084.13330078 1722.87109375 C-1081.87752205 1724.50665009 -1079.6265765 1726.14865222 -1077.37646484 1727.79199219 C-1060.89014191 1739.80107439 -1044.30061705 1751.70511886 -1026.86376953 1762.30322266 C-1024.55599911 1763.71496534 -1022.2625483 1765.14829321 -1019.97021484 1766.58496094 C-999.00591752 1779.70388305 -977.62468596 1791.99885965 -955.77490234 1803.58105469 C-954.17606201 1804.43183594 -954.17606201 1804.43183594 -952.54492188 1805.29980469 C-870.96457625 1848.59670366 -782.29139429 1879.4777563 -691.77490234 1897.58105469 C-690.90045471 1897.75594421 -690.02600708 1897.93083374 -689.12506104 1898.11102295 C-644.02224412 1907.07891271 -598.65324318 1912.57567358 -552.77490234 1915.58105469 C-551.96281311 1915.63546722 -551.15072388 1915.68987976 -550.31402588 1915.74594116 C-532.32401022 1916.9075291 -514.29384419 1916.78180231 -496.27490234 1916.76855469 C-495.05635118 1916.76815437 -495.05635118 1916.76815437 -493.81318283 1916.76774597 C-470.49060312 1916.75812579 -447.2130339 1916.73246441 -423.95727539 1914.76464844 C-421.60466091 1914.566733 -419.25138484 1914.37831771 -416.89794922 1914.19042969 C-350.79799136 1908.84442541 -284.20754743 1897.59793073 -220.65917969 1878.43847656 C-217.80481583 1877.5899472 -214.94297967 1876.7753282 -212.07568359 1875.97167969 C-163.50794954 1862.29248039 -116.34361372 1843.12159939 -70.77490234 1821.58105469 C-69.71013672 1821.0821875 -68.64537109 1820.58332031 -67.54833984 1820.06933594 C-54.02722294 1813.73233054 -40.79441839 1807.05671006 -27.79003906 1799.71630859 C-25.19283985 1798.25314209 -22.58011374 1796.81965003 -19.96240234 1795.39355469 C-18.71330078 1794.71099609 -18.71330078 1794.71099609 -17.43896484 1794.01464844 C-15.46219954 1792.95090523 -13.47634515 1791.90401596 -11.48583984 1790.86621094 C-0.64837783 1785.20860316 9.81032824 1778.97945755 20.22509766 1772.58105469 C20.97178711 1772.12279297 21.71847656 1771.66453125 22.48779297 1771.19238281 C33.32259002 1764.51213657 43.94016967 1757.50418485 54.53759766 1750.45605469 C55.16349792 1750.04057373 55.78939819 1749.62509277 56.43426514 1749.19702148 C65.4991285 1743.17342529 74.40836691 1736.96205601 83.22509766 1730.58105469 C84.07950439 1729.96278809 84.93391113 1729.34452148 85.81420898 1728.70751953 C101.30357923 1717.44580916 116.46932076 1705.78873824 131.22509766 1693.58105469 C132.50320313 1692.54658203 132.50320313 1692.54658203 133.80712891 1691.49121094 C145.25983749 1682.21837368 156.31207811 1672.48019573 167.22509766 1662.58105469 C168.82904294 1661.14330768 170.43321526 1659.70581391 172.03759766 1658.26855469 C173.76758522 1656.70696363 175.49663494 1655.14433337 177.22509766 1653.58105469 C178.10593018 1652.78707275 178.9867627 1651.99309082 179.89428711 1651.17504883 C189.21609037 1642.67728092 198.14959844 1633.80933482 207.05664062 1624.87988281 C209.61295696 1622.31816823 212.17462695 1619.76189363 214.73681641 1617.20605469 C216.38687699 1615.55533383 218.03662763 1613.90430308 219.68603516 1612.25292969 C220.44032806 1611.50066101 221.19462097 1610.74839233 221.97177124 1609.97332764 C226.03958444 1605.88766339 229.94632828 1601.7176108 233.70184326 1597.34242249 C236.09124831 1594.57950835 238.60135407 1591.93217077 241.10009766 1589.26855469 C245.63536309 1584.39865656 249.91190317 1579.38450945 254.08056641 1574.19433594 C256.22384721 1571.58257845 258.44890096 1569.07740167 260.72509766 1566.58105469 C265.42927608 1561.40564596 269.8433091 1556.0303809 274.22509766 1550.58105469 C275.20936348 1549.36612248 276.19374437 1548.15128349 277.17822266 1546.93652344 C282.32889347 1540.56143949 287.36525239 1534.14616599 292.13134766 1527.47558594 C293.6710277 1525.34703573 295.22846914 1523.24523825 296.81884766 1521.15527344 C304.98866824 1510.41495174 312.70190036 1499.3831798 320.36083984 1488.27416992 C322.18991478 1485.63188003 324.03565126 1483.00197132 325.88525391 1480.37402344 C328.7927798 1476.2249762 331.60863592 1472.02886268 334.35009766 1467.76855469 C335.04377441 1466.69142212 335.04377441 1466.69142212 335.75146484 1465.5925293 C347.10784442 1447.89027139 357.83991339 1429.86958104 368.22509766 1411.58105469 C368.70076172 1410.74445313 369.17642578 1409.90785156 369.66650391 1409.04589844 C376.3115546 1397.32283885 382.5952362 1385.41502606 388.7578125 1373.43212891 C389.69205631 1371.61680457 390.62953247 1369.80313745 391.57128906 1367.99169922 C412.26658206 1328.13438616 428.85950842 1286.08801117 443.22509766 1243.58105469 C443.46057312 1242.88558533 443.69604858 1242.19011597 443.93865967 1241.47357178 C470.76726864 1162.0920869 486.6787344 1079.68739767 495.22509766 936.58105469 C495.24314453 935.6190918 495.26119141 934.65712891 495.27978516 933.66601562 C495.36997545 927.96824395 495.32095424 922.27847236 495.22509766 916.58105469 C495.19826904 914.69531738 495.19826904 914.69531738 495.17089844 912.77148438 C494.61423014 875.67708438 492.32690257 838.66686391 487.52331543 801.87231445 C487.21306865 799.48863372 486.90885958 797.10422683 486.60498047 794.71972656 C481.5788724 755.57447531 473.97998154 716.82374303 464.22509766 678.58105469 C464.05081238 677.89769043 463.8765271 677.21432617 463.69696045 676.51025391 C449.90726486 622.74255804 431.303924 570.05637856 408.22509766 519.58105469 C407.78457062 518.61552673 407.78457062 518.61552673 407.33514404 517.63049316 C393.35283769 486.77305275 393.35283769 486.77305275 377.17431641 457.04199219 C375.49679482 454.06346689 373.97755488 451.0713176 372.47509766 448.00292969 C369.14589938 441.29054332 365.38930694 434.87931331 361.53759766 428.45605469 C360.89371094 427.37324219 360.24982422 426.29042969 359.58642578 425.17480469 C357.85931476 422.27771522 356.1241865 419.38587395 354.38146973 416.49816895 C353.58395684 415.17599648 352.78790195 413.85294385 351.99304199 412.5291748 C345.27208259 401.34670749 338.25717096 390.39173295 331.00097656 379.54931641 C329.35303899 377.08545233 327.71257637 374.61673133 326.07275391 372.14746094 C316.22297727 357.36243513 305.92109091 342.92244962 295.10009766 328.83105469 C294.42760986 327.95255859 293.75512207 327.0740625 293.06225586 326.16894531 C291.12052089 323.63655002 289.17415261 321.10781887 287.22509766 318.58105469 C286.69609863 317.89462891 286.16709961 317.20820313 285.62207031 316.50097656 C279.87704672 309.06466989 273.95136132 301.81399094 267.84619141 294.67089844 C265.40206432 291.80527775 263.02814032 288.88699946 260.66259766 285.95605469 C256.78696833 281.19298251 252.71275477 276.64741219 248.55712891 272.12792969 C246.60104514 269.9916372 244.68322068 267.83324811 242.78759766 265.64355469 C238.53100063 260.75341763 234.14037606 255.98716822 229.74072266 251.22607422 C228.26053071 249.61951279 226.78932007 248.00510393 225.31884766 246.38964844 C217.38696016 237.73107986 209.14306054 229.39154046 200.85009766 221.08105469 C200.28620331 220.51457214 199.72230896 219.9480896 199.1413269 219.36444092 C193.53700462 213.73983786 187.94592505 208.14056369 181.87304688 203.01464844 C180.07040943 201.44648739 178.39761277 199.78660775 176.72509766 198.08105469 C173.73637429 195.04510544 170.60803287 192.2359681 167.38134766 189.45605469 C165.02546808 187.40746375 162.72002306 185.30902467 160.41259766 183.20605469 C156.03873795 179.25417532 151.51537644 175.52830103 146.93212891 171.82324219 C144.35206175 169.68621686 141.87795281 167.47369723 139.41259766 165.20605469 C133.91039216 160.20483494 128.08600163 155.65941173 122.20703125 151.1171875 C120.12942793 149.50690416 118.06131817 147.88500512 115.99462891 146.26074219 C72.01340583 111.75277259 25.23059634 81.44189587 -23.77490234 54.58105469 C-24.37473938 54.25214233 -24.97457642 53.92322998 -25.59259033 53.58435059 C-95.20069091 15.46698665 -169.73209777 -13.27638592 -314.77490234 -48.41894531 C-315.48763306 -48.54916077 -316.20036377 -48.67937622 -316.93469238 -48.8135376 C-401.78434962 -64.28248408 -488.71947383 -68.32842229 -775.77490234 -24.41894531 Z " fill="#000000" transform="translate(1536.77490234375,115.4189453125)"/>
<path d="M0 0 C0 453.75 0 907.5 0 1375 C-8.88505747 1370.55747126 -8.88505747 1370.55747126 -12.75 1367.57421875 C-17.78183129 1363.82881758 -22.94284633 1360.33506149 -28.1875 1356.89453125 C-29.03711304 1356.33704193 -29.88672607 1355.77955261 -30.76208496 1355.20516968 C-32.56495685 1354.02375323 -34.36831651 1352.84308084 -36.17211914 1351.66308594 C-52.36595591 1341.0657206 -68.47588021 1330.3520808 -84.5 1319.5 C-101.66956035 1307.87629585 -118.9082121 1296.35894026 -136.28423655 1285.04544806 C-137.97966521 1283.9238899 -139.66105137 1282.78056403 -141.321998 1281.60854554 C-145.92000544 1278.4185606 -150.36309928 1275.75100125 -155.56413841 1273.64588012 C-164.95548018 1269.78838188 -174.4832653 1264.8659589 -180 1256 C-185.8905409 1241.21938449 -183.9514023 1222.83029237 -183.60927202 1207.26593458 C-183.46243898 1200.29390085 -183.49395184 1193.32526435 -183.53000308 1186.3521823 C-183.59166206 1173.48904462 -183.51478587 1160.6303056 -183.35709763 1147.76813507 C-183.20158302 1135.04578965 -183.10878381 1122.32548946 -183.0984993 1109.60216522 C-183.09782346 1108.80916331 -183.09714761 1108.0161614 -183.09645129 1107.19912913 C-183.09334143 1103.17136276 -183.09134004 1099.14359666 -183.08976515 1095.11582944 C-183.07663927 1066.6358489 -182.92477064 1038.15814711 -182.69042969 1009.67919922 C-182.46318619 982.0239382 -182.29933612 954.36947928 -182.22070312 926.71337891 C-182.2182514 925.85991539 -182.21579967 925.00645188 -182.21327364 924.12712583 C-182.18872053 915.55577312 -182.16544971 906.98441732 -182.14311806 898.41305855 C-182.09760257 880.95444608 -182.04353224 863.49586355 -181.98428345 846.03729248 C-181.98157024 845.23469313 -181.97885703 844.43209377 -181.9760616 843.60517323 C-181.79410199 790.06930767 -181.41213799 736.53452782 -181 683 C-186.87374884 686.86279736 -192.74617659 690.72759735 -198.61779785 694.59362793 C-200.60465435 695.90151607 -202.59178501 697.20898783 -204.57922363 698.51599121 C-218.61798989 707.74888563 -232.58779054 717.07756999 -246.5 726.5 C-248.42714241 727.80384231 -250.35437192 729.10755588 -252.28168869 730.41114044 C-253.14950053 730.99814869 -254.01731237 731.58515695 -254.91142154 732.18995333 C-266.66890458 740.14064446 -278.51174059 747.95832132 -290.375 755.75 C-304.51694552 765.03939394 -318.60966996 774.39547322 -332.625 783.875 C-333.39318054 784.39429077 -334.16136108 784.91358154 -334.95281982 785.4486084 C-337.12833189 786.92009969 -339.30280683 788.39310301 -341.4765625 789.8671875 C-342.14203094 790.31827881 -342.80749939 790.76937012 -343.49313354 791.23413086 C-348.11042737 794.37283624 -352.67351571 797.58119069 -357.19287109 800.85986328 C-359 802 -359 802 -361 802 C-361 911.56 -361 1021.12 -361 1134 C-364.48159692 1132.60736123 -366.91630902 1131.55776679 -369.92431641 1129.57104492 C-370.66779327 1129.08302902 -371.41127014 1128.59501312 -372.17727661 1128.09220886 C-372.97729095 1127.56033463 -373.7773053 1127.02846039 -374.6015625 1126.48046875 C-375.87953201 1125.63812431 -375.87953201 1125.63812431 -377.18331909 1124.77876282 C-380.00036388 1122.91972872 -382.8127723 1121.0538116 -385.625 1119.1875 C-387.60991591 1117.87483345 -389.59494373 1116.5623361 -391.58007812 1115.25 C-405.83270711 1105.81590449 -420.01244112 1096.275589 -434.16680908 1086.69491577 C-447.711933 1077.52799035 -461.32866696 1068.4775001 -475 1059.5 C-490.46128826 1049.3461108 -505.85382695 1039.09568834 -521.1875 1028.75 C-522.61267944 1027.78912476 -522.61267944 1027.78912476 -524.06665039 1026.80883789 C-526.72649928 1025.01477016 -529.38506838 1023.21882787 -532.04296875 1021.421875 C-532.83857712 1020.88483948 -533.63418549 1020.34780396 -534.4539032 1019.79449463 C-535.17447403 1019.3064032 -535.89504486 1018.81831177 -536.63745117 1018.31542969 C-537.26640793 1017.88993835 -537.89536469 1017.46444702 -538.54338074 1017.02606201 C-540 1016 -540 1016 -541 1015 C-541.11134835 1013.57183829 -541.15394496 1012.13825563 -541.16907454 1010.70583969 C-541.18131461 1009.77136599 -541.19355469 1008.83689228 -541.20616567 1007.87410119 C-541.21468671 1006.83331398 -541.22320775 1005.79252676 -541.231987 1004.72020054 C-541.24482511 1003.62095144 -541.25766321 1002.52170234 -541.27089036 1001.38914266 C-541.31308606 997.65558778 -541.34794112 993.92200089 -541.38269043 990.18836975 C-541.41101839 987.50428836 -541.43968515 984.82021217 -541.46866465 982.1361379 C-541.53922889 975.5002805 -541.60364643 968.8643755 -541.66583047 962.22843478 C-541.71759984 956.70879609 -541.77151437 951.18918178 -541.82654953 945.66957474 C-542.21408088 906.67042103 -542.51975122 867.67094505 -542.74475098 828.67051697 C-542.75006074 827.75080282 -542.75537051 826.83108867 -542.76084118 825.8835044 C-542.88142448 804.91899584 -542.99059605 783.95444468 -543.08899255 762.98982069 C-543.13062506 754.16207138 -543.17388885 745.33433017 -543.21777344 736.5065918 C-543.22259015 735.53115245 -543.22740687 734.55571311 -543.23236955 733.550715 C-543.38923479 701.9689579 -543.67540477 670.39001529 -544.03012469 638.80991146 C-544.39421546 606.33628218 -544.62966544 573.86419983 -544.70377662 541.38855198 C-544.71431326 536.79472583 -544.72629555 532.20090449 -544.739151 527.60708427 C-544.7428755 526.25098817 -544.7428755 526.25098817 -544.74667523 524.86749619 C-544.79025666 510.35303471 -544.96790349 495.84320971 -545.19641053 481.33061156 C-545.42358581 466.71618827 -545.50668864 452.10641729 -545.44606692 437.49030937 C-545.41714876 429.5774568 -545.4503064 421.67716751 -545.66247177 413.76677895 C-546.88866452 366.26239833 -546.88866452 366.26239833 -537.14728546 354.95161319 C-528.40239259 346.34731407 -517.6775598 340.89275167 -506.52869701 336.05750072 C-500.60196487 333.46256047 -495.54291606 329.95944613 -490.33203125 326.13671875 C-488.73262972 325.04473095 -487.1296996 323.95787169 -485.52148438 322.87890625 C-484.75537842 322.3595752 -483.98927246 321.84024414 -483.19995117 321.30517578 C-466.97560513 310.31197434 -450.65794454 299.46868835 -434.27636719 288.71148682 C-415.56193616 276.41858363 -396.98729928 263.9227131 -378.45246887 251.36097717 C-377.02399978 250.39331552 -375.59445832 249.42723456 -374.16372681 248.46292114 C-372.61383723 247.41502257 -371.06896211 246.3596924 -369.5274353 245.29953003 C-368.7194046 244.74878815 -367.9113739 244.19804626 -367.07885742 243.63061523 C-366.34559738 243.12707016 -365.61233734 242.62352509 -364.8568573 242.10472107 C-363 241 -363 241 -361 241 C-361 364.09 -361 487.18 -361 614 C-348.16915419 606.0165255 -348.16915419 606.0165255 -335.578125 597.69921875 C-333.89975884 596.56116952 -332.22137255 595.42314997 -330.54296875 594.28515625 C-329.6823584 593.70008301 -328.82174805 593.11500977 -327.93505859 592.51220703 C-312.04142785 581.71124357 -296.06428222 571.04521102 -280 560.5 C-265.20444372 550.78430683 -250.47667776 540.97541519 -235.8125 531.0625 C-234.02873516 529.85716597 -232.24496246 528.65184358 -230.46118164 527.4465332 C-227.84960687 525.6816813 -225.2380687 523.91677535 -222.62663269 522.15171814 C-214.46844517 516.63854652 -206.30564235 511.13239075 -198.12435913 505.65353394 C-196.67857756 504.68430605 -195.23391511 503.71340649 -193.79043579 502.74075317 C-191.83060888 501.42048066 -189.86705492 500.10595759 -187.90234375 498.79296875 C-187.32751251 498.40392365 -186.75268127 498.01487854 -186.16043091 497.61404419 C-182.22851091 495 -182.22851091 495 -180 495 C-180.01670769 494.2154073 -180.03341539 493.4308146 -180.05062938 492.62244636 C-181.03754813 446.01082712 -181.79132552 399.40035331 -182.2468745 352.78036093 C-182.30189859 347.16971853 -182.35884944 341.55909723 -182.41699219 335.94848633 C-182.42853385 334.83162218 -182.44007551 333.71475802 -182.45196691 332.5640495 C-182.6428916 314.53225648 -182.98947051 296.50670208 -183.39472303 278.47859768 C-183.8077682 259.94777506 -184.05090103 241.42019337 -184.13989377 222.88495749 C-184.19461424 212.48400736 -184.32607516 202.09612087 -184.6521225 191.69983864 C-186.63073472 126.71532909 -186.63073472 126.71532909 -175.81776428 112.81792831 C-167.15786233 103.66111132 -156.29921371 98.16110312 -144.68320632 93.64484793 C-134.45223355 89.65572317 -125.89610767 83.65901521 -117.01651907 77.28711569 C-112.66018864 74.19345089 -108.21724342 71.22775053 -103.78125 68.25 C-102.28658203 67.24066406 -102.28658203 67.24066406 -100.76171875 66.2109375 C-89.99103981 58.95903758 -79.1333204 51.83950692 -68.27902222 44.71368408 C-51.92607194 33.97458142 -35.68564102 23.07468749 -19.49023438 12.09960938 C-18.620233 11.51055817 -17.75023163 10.92150696 -16.85386658 10.31460571 C-15.23480755 9.21804161 -13.61655479 8.12028572 -11.99928284 7.02108765 C-1.6351686 0 -1.6351686 0 0 0 Z " fill="#467B76" transform="translate(944,353)"/>
<path d="M0 0 C2.65667231 0.82406275 4.31469759 1.78329016 6.52197266 3.45751953 C7.26519775 4.01383057 8.00842285 4.5701416 8.77416992 5.14331055 C9.5649292 5.74844482 10.35568848 6.3535791 11.17041016 6.97705078 C12.87989523 8.26110512 14.58953496 9.54495359 16.29931641 10.82861328 C17.17088379 11.48764648 18.04245117 12.14667969 18.94042969 12.82568359 C22.97314665 15.86590621 27.03984429 18.85938761 31.10791016 21.85205078 C31.89311035 22.43108154 32.67831055 23.0101123 33.48730469 23.60668945 C39.55266795 28.07495264 45.65580752 32.48912228 51.76953125 36.89086914 C69.12713588 49.40329942 69.12713588 49.40329942 74.70614719 53.80562627 C76.93960965 55.36624991 78.81009108 56.41291003 81.24635983 57.53073561 C85.84890384 59.87365746 89.64801894 62.43610061 92.54541016 66.78955078 C95.29991483 75.37522938 94.61036705 84.8141559 94.48482619 93.73417845 C94.44845529 97.49789833 94.49929632 101.26063569 94.53880787 105.02418482 C94.59599035 111.6156139 94.59752344 118.20522522 94.56228256 124.79678154 C94.51002159 134.59835257 94.5435441 144.39833419 94.59373981 154.19984858 C94.6804543 171.70602521 94.68105702 189.21141281 94.64463919 206.71771987 C94.61288347 222.03883164 94.60817348 237.35964532 94.63052368 252.68077469 C94.63195971 253.69709681 94.63339573 254.71341894 94.63487528 255.76053871 C94.64070891 259.88615455 94.64662729 264.01177026 94.65269916 268.13738577 C94.70901002 306.84044319 94.67620053 345.54298654 94.60471745 384.24599405 C94.54180741 418.6267472 94.5623293 453.00652083 94.65185547 487.38720703 C94.75219868 526.01646783 94.79699371 564.64516437 94.7549696 603.27455199 C94.75065104 607.39326632 94.7464867 611.51198078 94.74240112 615.63069534 C94.74134981 616.64482294 94.74029849 617.65895054 94.73921532 618.70380928 C94.72437481 634.01347832 94.75229373 649.32268851 94.80130005 664.63227463 C94.85685035 682.04310163 94.85211807 699.45273935 94.76763153 716.86347459 C94.72207538 726.60647534 94.72322177 736.34680981 94.79191648 746.08968967 C94.83309523 752.60046602 94.81229478 759.10915716 94.74141349 765.61967259 C94.70274891 769.32885204 94.69049103 773.0327765 94.75360596 776.74173968 C95.09212184 798.11730384 95.09212184 798.11730384 90.85727143 804.22377303 C86.92636447 808.27858991 82.50406519 811.14448473 77.51541579 813.73936231 C74.96465573 815.09914462 72.73499629 816.77431054 70.46728516 818.55908203 C69.07756912 819.57464995 67.68696072 820.58899802 66.29541016 821.60205078 C59.37727166 826.66625238 52.53853997 831.82526886 45.73291016 837.03955078 C38.98950222 842.20305367 32.1913444 847.24406867 25.24462891 852.12939453 C22.22563617 854.27507547 19.2679698 856.49544744 16.31494141 858.73095703 C15.40301025 859.42116943 14.4910791 860.11138184 13.55151367 860.82250977 C11.73762586 862.1993549 9.92682275 863.58027496 8.11938477 864.96557617 C7.29575439 865.59069092 6.47212402 866.21580566 5.62353516 866.85986328 C4.88522461 867.42463379 4.14691406 867.9894043 3.38623047 868.57128906 C1.54541016 869.78955078 1.54541016 869.78955078 -0.45458984 869.78955078 C-0.45458984 869.12955078 -0.45458984 868.46955078 -0.45458984 867.78955078 C-1.0360376 867.5151416 -1.61748535 867.24073242 -2.21655273 866.95800781 C-4.40271205 865.81663566 -6.28204005 864.55900538 -8.26318359 863.09423828 C-8.99964111 862.5512207 -9.73609863 862.00820312 -10.49487305 861.44873047 C-11.28595459 860.85995117 -12.07703613 860.27117188 -12.89208984 859.66455078 C-13.72248779 859.04999023 -14.55288574 858.43542969 -15.40844727 857.80224609 C-22.64734602 852.42829084 -29.80840621 846.95404338 -36.96606445 841.47265625 C-42.26357737 837.42621106 -47.61433026 833.48638512 -53.0690918 829.65576172 C-59.33255631 825.22628952 -65.39777028 820.53448762 -71.47021484 815.84814453 C-72.71544922 814.89101562 -72.71544922 814.89101562 -73.98583984 813.91455078 C-74.79097883 813.26523661 -75.59611781 812.61592244 -76.42565495 811.94693208 C-79.41353951 809.66785341 -79.41353951 809.66785341 -82.98746485 808.21516013 C-87.32813101 806.16218426 -90.80278019 803.87234552 -93.45458984 799.78955078 C-96.07057397 791.25772204 -95.3938594 781.91462535 -95.28414241 773.07820829 C-95.25306163 769.33097788 -95.30323254 765.58467063 -95.34287828 761.83764243 C-95.40109316 755.27367235 -95.40727948 748.71125472 -95.37917328 742.14710999 C-95.33749076 732.3861734 -95.37573135 722.62668152 -95.42942117 712.86586255 C-95.52791798 694.41874613 -95.53198951 675.97233794 -95.5074857 657.52503136 C-95.48915339 643.27950536 -95.49675015 629.03420106 -95.52270317 614.78868866 C-95.52633304 612.74205492 -95.52995815 610.69542118 -95.53357856 608.64878742 C-95.53906658 605.56469638 -95.54457476 602.48060538 -95.55014788 599.39651449 C-95.60140114 570.7212452 -95.62463075 542.046061 -95.58886051 513.37076187 C-95.58751544 512.28972138 -95.58617037 511.20868089 -95.58478454 510.09488159 C-95.57369772 501.31603551 -95.56186299 492.5371904 -95.54997067 483.75834538 C-95.50420823 449.51865421 -95.54554349 415.28005781 -95.65698242 381.04052734 C-95.78199557 342.57093788 -95.84410629 304.10201049 -95.81165594 265.63220954 C-95.80839636 261.5300318 -95.80533726 257.42785395 -95.80239677 253.32567596 C-95.80162681 252.31561874 -95.80085684 251.30556151 -95.80006354 250.26489649 C-95.78968641 235.01885408 -95.82823667 219.77343461 -95.89137459 204.52753448 C-95.96306858 187.18691725 -95.96801188 169.8477453 -95.88430078 152.50715092 C-95.83941235 142.80408121 -95.84678791 133.10439507 -95.92982805 123.40155841 C-95.98005265 116.91611535 -95.96091785 110.43324074 -95.88593263 103.94804361 C-95.84514293 100.25372783 -95.83376522 96.56602673 -95.90687323 92.87205938 C-96.2995739 71.60264228 -96.2995739 71.60264228 -91.57315223 65.26788682 C-87.12722941 60.94056146 -82.15901137 57.84832662 -76.67944115 54.99345323 C-73.67370134 53.36699958 -71.15509003 51.41676667 -68.49755859 49.27392578 C-67.68351562 48.64873047 -66.86947266 48.02353516 -66.03076172 47.37939453 C-65.2425 46.77224609 -64.45423828 46.16509766 -63.64208984 45.53955078 C-57.97513714 41.19696285 -52.29568317 36.89543126 -46.45458984 32.78955078 C-40.5528207 28.64024483 -34.81154386 24.29488957 -29.07958984 19.91455078 C-28.18498047 19.23336182 -27.29037109 18.55217285 -26.36865234 17.8503418 C-22.12931587 14.6180788 -17.90870027 11.36693537 -13.72802734 8.05908203 C-13.00276855 7.49366699 -12.27750977 6.92825195 -11.53027344 6.34570312 C-10.18234383 5.29456535 -8.84347531 4.23166481 -7.515625 3.15527344 C-3.09363767 -0.26523928 -3.09363767 -0.26523928 0 0 Z " fill="#130F11" transform="translate(1416.45458984375,606.21044921875)"/>
<path d="M0 0 C6.93 0 13.86 0 21 0 C21 280.17 21 560.34 21 849 C14.07 849 7.14 849 0 849 C0 568.83 0 288.66 0 0 Z " fill="#406F6D" transform="translate(1031,617)"/>
<path d="M0 0 C11.17921057 6.66478623 19.0708841 14.66532211 23.0625 27.25 C26.013958 39.8737059 24.51508814 51.21826132 17.765625 62.34375 C16.33597024 64.34219214 14.82435508 66.16866709 13.1875 68 C12.68734375 68.60328125 12.1871875 69.2065625 11.671875 69.828125 C5.62758845 76.57660028 -2.81306566 80.97707579 -11.8125 82 C-25.42189985 82.67889118 -35.57452482 80.60182312 -46.9375 72.875 C-53.70643348 66.74246197 -58.77988346 58.90319643 -60.8125 50 C-60.99296875 49.2265625 -61.1734375 48.453125 -61.359375 47.65625 C-63.39509105 35.72274212 -61.39747248 25.55113196 -55.125 15.3125 C-42.80668453 -2.04512634 -19.65143967 -9.42839565 0 0 Z " fill="#FCFCFC" transform="translate(1132.8125,1806)"/>
<path d="M0 0 C6.51027927 -0.10205759 13.02034955 -0.17173938 19.53125 -0.21972656 C21.74259145 -0.23974747 23.95388058 -0.26697259 26.16503906 -0.30175781 C29.35755378 -0.35069627 32.54936396 -0.37306467 35.7421875 -0.390625 C37.20686966 -0.42159271 37.20686966 -0.42159271 38.70114136 -0.45318604 C46.7058549 -0.45575822 53.10276129 1.54304516 59.875 5.8125 C66.4305346 12.56084444 67.2935119 19.92388948 67.2265625 28.984375 C66.82053864 34.38869257 65.01069981 38.48395028 62 43 C62.639375 43.763125 63.27875 44.52625 63.9375 45.3125 C68.20945315 50.87898441 67.5192666 57.27211099 67 64 C65.61928204 70.87720666 63.12316148 76.30165486 57.37231445 80.51196289 C46.8485693 87.11299476 33.20440446 85.3384149 21.3125 85.1875 C19.24284826 85.17242854 17.17318593 85.15874449 15.10351562 85.14648438 C10.06874574 85.11366789 5.03449137 85.06202071 0 85 C1.18942707 81.22153891 2.51670021 77.75079192 4.3828125 74.2578125 C4.98440186 73.12303467 4.98440186 73.12303467 5.59814453 71.96533203 C6.10200684 71.02802246 6.60586914 70.09071289 7.125 69.125 C8.73375 66.11375 10.3425 63.1025 12 60 C21.57 59.67 31.14 59.34 41 59 C41 58.01 41 57.02 41 56 C33.41 55.67 25.82 55.34 18 55 C18 46.75 18 38.5 18 30 C25.92 29.67 33.84 29.34 42 29 C41.505 27.02 41.505 27.02 41 25 C31.43 24.67 21.86 24.34 12 24 C10.39125 20.968125 8.7825 17.93625 7.125 14.8125 C6.6211377 13.86608643 6.11727539 12.91967285 5.59814453 11.94458008 C5.19708496 11.18556396 4.79602539 10.42654785 4.3828125 9.64453125 C3.97434082 8.87471924 3.56586914 8.10490723 3.14501953 7.31176758 C1.95923679 4.91770003 0.95988744 2.49223788 0 0 Z " fill="#FCFCFC" transform="translate(960,1803)"/>
<path d="M0 0 C0.40202637 1.08079834 0.80405273 2.16159668 1.21826172 3.27514648 C3.10006761 8.33067485 4.98687946 13.38432706 6.875 18.4375 C7.21469818 19.34726593 7.55439636 20.25703186 7.90438843 21.19436646 C12.43615138 33.31967701 17.03597908 45.40250343 22.02880859 57.34741211 C25.01056451 64.59301373 27.34818595 71.63939881 27.125 79.5625 C27.10695313 80.40941406 27.08890625 81.25632812 27.0703125 82.12890625 C27.04710937 82.74636719 27.02390625 83.36382813 27 84 C23.60970598 83.40446746 20.61100052 82.55479077 17.4387207 81.22509766 C16.56120148 80.85991028 15.68368225 80.4947229 14.77957153 80.11846924 C13.83782074 79.72101501 12.89606995 79.32356079 11.92578125 78.9140625 C10.93649628 78.50081726 9.9472113 78.08757202 8.927948 77.6618042 C5.7208678 76.32076136 2.51662368 74.97308971 -0.6875 73.625 C-2.87641178 72.70752424 -5.06545816 71.79036953 -7.25463867 70.87353516 C-12.56391097 68.64866469 -17.87082669 66.41823379 -23.17712402 64.1862793 C-26.4070322 62.82894967 -29.63887202 61.47629149 -32.87132263 60.12503052 C-35.85299468 58.87806635 -38.8327639 57.62658187 -41.8125 56.375 C-42.84012451 55.94525879 -43.86774902 55.51551758 -44.92651367 55.07275391 C-45.84408447 54.68522949 -46.76165527 54.29770508 -47.70703125 53.8984375 C-48.4750708 53.57536621 -49.24311035 53.25229492 -50.03442383 52.91943359 C-52 52 -52 52 -55 50 C-54.67 49.01 -54.34 48.02 -54 47 C-51.69921875 46.2265625 -51.69921875 46.2265625 -48.6875 45.625 C-35.23290233 42.52500956 -23.94079839 37.00385862 -15.56640625 25.734375 C-12.97648276 21.21331155 -11.54226484 16.42689906 -10.04296875 11.453125 C-6.58371041 0 -6.58371041 0 0 0 Z " fill="#DEEDE3" transform="translate(1619,1614)"/>
<path d="M0 0 C3.74083354 0.50551805 5.66861411 0.99176015 8 4 C9.02734375 7.07421875 9.02734375 7.07421875 9.9375 10.6875 C13.04294177 21.98528257 17.68752887 30.9449978 27.64453125 37.828125 C36.21830165 42.68536832 45.4179013 45.83046822 55 48 C55 48.99 55 49.98 55 51 C52.28648409 52.13678027 49.57294124 53.27349614 46.859375 54.41015625 C46.00156433 54.76948746 45.14375366 55.12881866 44.25994873 55.4990387 C39.47525985 57.5030656 34.69013925 59.50605343 29.90429688 61.50732422 C27.92056768 62.33690153 25.93684376 63.16649148 23.953125 63.99609375 C22.45676514 64.62185303 22.45676514 64.62185303 20.93017578 65.26025391 C15.22459339 67.64734921 9.52207431 70.04152878 3.82305908 72.44425964 C0.49999358 73.84463171 -2.82474108 75.24101001 -6.14978027 76.63668823 C-7.71381362 77.29439379 -9.27705122 77.95399493 -10.83947754 78.61550903 C-13.0055708 79.53236453 -15.17429407 80.44269853 -17.34375 81.3515625 C-17.97927795 81.62255264 -18.61480591 81.89354279 -19.26959229 82.17274475 C-22.03727471 83.32513339 -23.96465946 84 -27 84 C-29.08354031 68.02619094 -20.70031841 52.21027407 -14.42163086 37.97607422 C-10.45668267 28.9362969 -7.14256614 19.68641535 -3.85253906 10.38427734 C-2.60920713 6.90707813 -1.30759519 3.45349526 0 0 Z " fill="#DEEDE3" transform="translate(469,1604)"/>
<path d="M0 0 C1.8871875 0.0309375 1.8871875 0.0309375 3.8125 0.0625 C2.40171351 7.32296201 0.84603965 14.54224909 -0.8125 21.75 C-1.06757324 22.85851318 -1.32264648 23.96702637 -1.58544922 25.10913086 C-4.00231225 35.48467642 -6.658082 45.79255793 -9.3503418 56.09912109 C-11.52891139 64.45250938 -13.5972848 72.81710612 -15.49609375 81.23828125 C-16.1875 84.0625 -16.1875 84.0625 -17.1875 86.0625 C-19.76267132 85.07944705 -20.94989127 84.52011681 -22.2421875 82.03125 C-22.51289062 81.2165625 -22.78359375 80.401875 -23.0625 79.5625 C-25.12995445 73.93804715 -27.92032796 69.07096703 -31.1875 64.0625 C-31.765 63.175625 -32.3425 62.28875 -32.9375 61.375 C-42.49759772 51.54934401 -53.4465957 47.85449207 -66.76953125 46.75 C-70.64046615 45.9713891 -72.46048508 44.88820689 -75.1875 42.0625 C-75.1875 41.0725 -75.1875 40.0825 -75.1875 39.0625 C-74.383125 38.64742188 -73.57875 38.23234375 -72.75 37.8046875 C-57.89712829 30.05160096 -43.35696927 21.62733971 -29.1875 12.6875 C-8.62794333 -0.14144169 -8.62794333 -0.14144169 0 0 Z " fill="#DEEDE3" transform="translate(1616.1875,372.9375)"/>
<path d="M0 0 C5.6143609 -0.19962172 10.36383937 0.32134039 15.75 2 C16.47533936 2.22002686 17.20067871 2.44005371 17.94799805 2.66674805 C26.29879948 5.28297172 34.36556742 8.60715964 42.44726562 11.94726562 C46.64232166 13.67728491 50.85108773 15.37275359 55.0625 17.0625 C55.87533447 17.38903564 56.68816895 17.71557129 57.52563477 18.05200195 C66.28379045 21.54849179 75.13344331 24.79038672 84 28 C83.19136338 31.81728461 82.11709572 33.53361113 79 36 C76.1171875 36.8359375 76.1171875 36.8359375 72.875 37.375 C66.27494613 38.73208973 61.47788163 41.15207185 56 45 C55.113125 45.5775 54.22625 46.155 53.3125 46.75 C44.45767431 55.36550607 39.16934757 66.87003907 37.5546875 79.0390625 C37 81 37 81 34 83 C27.70055178 71.10503131 22.63718613 58.76726706 17.5625 46.3125 C16.34222455 43.33119767 15.1204174 40.35052805 13.89804077 37.37008667 C13.09851119 35.41915685 12.3004978 33.46760493 11.50405884 31.51541138 C9.58109276 26.81001817 7.63240567 22.1188615 5.62060547 17.45068359 C5.24653061 16.57937302 4.87245575 15.70806244 4.48704529 14.81034851 C3.7835841 13.1777529 3.07418692 11.54769729 2.35780334 9.92073059 C0.81407289 6.33373133 0 3.96304032 0 0 Z " fill="#DEEDE3" transform="translate(421,419)"/>
<path d="M0 0 C5.05547494 2.76620327 9.05138707 6.45723255 11.3125 11.8125 C12.26882614 18.65839567 11.43501653 23.27964887 7.3125 28.8125 C2.91925776 33.22868346 -0.77890705 34.96151346 -7 35.125 C-12.08255647 35.06473253 -14.82123329 34.31055083 -18.6875 30.8125 C-23.94441445 25.19748511 -25.16714668 21.58129157 -25.09375 13.9296875 C-24.35241077 8.24133455 -21.32585688 4.97730564 -17.01171875 1.4375 C-11.28694899 -2.35269239 -6.24547724 -2.01125538 0 0 Z " fill="#252122" transform="translate(1120.6875,1828.1875)"/>
<path d="M0 0 C8.25 0 16.5 0 25 0 C25 8.25 25 16.5 25 25 C16.75 25 8.5 25 0 25 C0 16.75 0 8.5 0 0 Z " fill="#F6F6F6" transform="translate(1042,1863)"/>
</svg>
