<?xml version="1.0" encoding="UTF-8"?>
<svg version="1.1" xmlns="http://www.w3.org/2000/svg" width="2084" height="2084">
<path d="M0 0 C2.89059638 1.41707057 5.78577256 2.824249 8.68212891 4.22949219 C20.48577399 9.99775807 31.90068945 16.36991671 43.29296875 22.90771484 C46.20517568 24.56968539 49.12857793 26.20979809 52.05712891 27.84277344 C64.14973131 34.5935524 76.01547953 41.6271767 87.73144531 49.01220703 C90.14422165 50.53017264 92.5643502 52.0356452 94.98681641 53.53808594 C113.59292639 65.12013252 131.55035306 77.63082416 149.22509766 90.58105469 C150.84097903 91.75944565 152.45686454 92.93783094 154.07275391 94.11621094 C163.60805336 101.088105 172.99691937 108.20790461 182.22509766 115.58105469 C183.11455078 116.28746094 184.00400391 116.99386719 184.92041016 117.72167969 C194.93168004 125.69303564 204.78761576 133.84212138 214.52929688 142.13964844 C216.22744612 143.58305084 217.93099958 145.01986891 219.63525391 146.45605469 C226.61278536 152.35928503 233.37813967 158.44398289 240.0300293 164.7121582 C243.14850276 167.65006471 246.28049934 170.54580965 249.53759766 173.33105469 C253.50760611 176.74130056 257.13062764 180.47333844 260.80712891 184.19433594 C262.78777349 186.14938253 264.7879793 187.97576393 266.91259766 189.76855469 C275.73423725 197.32996005 284.06677427 205.81759175 291.55712891 214.69433594 C293.68039722 217.09606567 295.94487606 219.32810032 298.22509766 221.58105469 C301.77427923 225.09282019 305.14478223 228.6711437 308.38916016 232.46386719 C310.57715935 234.98704924 312.83802878 237.43659988 315.10009766 239.89355469 C319.24755024 244.43630154 323.15742461 249.1222543 327.01806641 253.90917969 C329.14133103 256.47964518 331.34321614 258.94024832 333.60009766 261.39355469 C337.66382544 265.85305423 341.38393742 270.51629196 345.07714844 275.28100586 C347.96241252 278.99726997 350.92368032 282.62329602 353.97509766 286.20605469 C360.46204147 293.92860684 366.4062215 302.05942838 372.41601562 310.15478516 C374.02908816 312.31817447 375.65524336 314.47033971 377.29150391 316.61621094 C413.53449357 364.211541 444.09582439 416.35212753 471.22509766 469.58105469 C471.74313965 470.58990723 472.26118164 471.59875977 472.79492188 472.63818359 C498.2483829 522.2450413 518.89980703 574.70962162 535.35009766 627.95605469 C535.73770767 629.21030746 535.73770767 629.21030746 536.13314819 630.48989868 C537.3465758 634.43690266 538.53658356 638.38921434 539.68768895 642.35485578 C540.67931216 645.75987928 541.71700128 649.14534633 542.7893914 652.52570415 C546.99132181 666.21049716 548.09516442 678.76094921 548.02737427 693.01397705 C548.03861462 695.29230902 548.05243133 697.57062946 548.0685662 699.84893203 C548.10492569 706.04614982 548.10451449 712.24287784 548.09739995 718.44017768 C548.09629393 724.45843222 548.12333574 730.47652631 548.14907728 736.49471017 C548.2068266 750.31028275 548.22397208 764.12572082 548.22741963 777.94140002 C548.23018816 788.62560625 548.24259646 799.30976056 548.26162338 809.99394989 C548.26700964 813.08134573 548.27234853 816.16874166 548.27767265 819.25613761 C548.27899894 820.02393104 548.28032523 820.79172447 548.28169171 821.58278437 C548.31857381 843.15547681 548.34229966 864.72815125 548.33963203 886.30087662 C548.33953856 887.11275253 548.33944509 887.92462845 548.33934878 888.76110667 C548.33885022 892.87497892 548.33825599 896.98885115 548.33764054 901.10272339 C548.33746103 902.32801302 548.33746103 902.32801302 548.3372779 903.57805597 C548.33703527 905.22994673 548.33678448 906.88183749 548.33652555 908.53372825 C548.3328555 934.18919396 548.37778625 959.84418246 548.45996094 985.49951172 C548.55250505 1014.40332492 548.6037351 1043.3068247 548.59818161 1072.21079516 C548.59773392 1075.30447817 548.59744162 1078.39816115 548.59725571 1081.49184418 C548.59718578 1082.25343792 548.59711585 1083.01503166 548.59704381 1083.799704 C548.59686059 1095.95817806 548.63487282 1108.11623177 548.68684929 1120.27458153 C548.73818731 1132.53907915 548.74328095 1144.80297463 548.70419337 1157.0675213 C548.68422177 1163.6878087 548.68349705 1170.30692426 548.73631287 1176.92715263 C548.96821601 1207.94527741 546.34933866 1234.93235836 536.02407464 1264.27071589 C534.61340941 1268.34982538 533.304912 1272.46181414 531.98909187 1276.57229996 C529.19805912 1285.2879649 526.24922196 1293.94372399 523.22509766 1302.58105469 C522.99691345 1303.23424683 522.76872925 1303.88743896 522.53363037 1304.5604248 C508.38271024 1344.99198907 491.09028053 1384.1483488 472.22509766 1422.58105469 C471.70415527 1423.6501709 471.18321289 1424.71928711 470.64648438 1425.82080078 C463.84379846 1439.77385088 456.57058933 1453.37121653 448.81445312 1466.81689453 C447.27285074 1469.49800393 445.74801844 1472.18787642 444.22900391 1474.88183594 C425.29967019 1508.40580539 404.3367179 1541.10989224 381.35009766 1572.01855469 C380.76768311 1572.80512451 380.18526855 1573.59169434 379.58520508 1574.40209961 C373.55160411 1582.52804364 367.4186268 1590.57652888 361.22509766 1598.58105469 C360.74443848 1599.20351074 360.2637793 1599.8259668 359.76855469 1600.46728516 C353.97037071 1607.96269385 348.00590416 1615.28311495 341.85009766 1622.48730469 C339.38593802 1625.37656789 336.98848766 1628.31623927 334.60009766 1631.26855469 C330.9767527 1635.72009277 327.20545893 1640.00487924 323.34228516 1644.24902344 C321.44458596 1646.33929358 319.57776351 1648.45091584 317.72509766 1650.58105469 C314.37316397 1654.42728275 310.9656942 1658.22133512 307.54541016 1662.00683594 C306.01304379 1663.70688549 304.48685965 1665.41253037 302.96728516 1667.12402344 C298.56609555 1672.06961106 294.0318216 1676.80764203 289.31884766 1681.45605469 C287.48626271 1683.31599165 285.78401185 1685.21285013 284.10009766 1687.20605469 C276.50796138 1696.04280347 268.01306568 1704.40205347 259.11181641 1711.91308594 C256.71008668 1714.03635425 254.47805203 1716.30083309 252.22509766 1718.58105469 C248.73468325 1722.10860116 245.17865452 1725.45489942 241.40869141 1728.67871094 C239.21689404 1730.58820167 237.08124901 1732.55171291 234.95068359 1734.52905273 C229.73966331 1739.36372155 224.40297164 1743.95096064 218.86181641 1748.40917969 C216.30089737 1750.51861818 213.85386311 1752.70993117 211.41259766 1754.95605469 C207.03730175 1758.93860749 202.47780499 1762.59923539 197.80639648 1766.22216797 C194.0099755 1769.16881014 190.26700329 1772.16899417 186.55615234 1775.22265625 C171.65679802 1787.47389767 156.06318291 1798.83205854 140.37353516 1810.04443359 C138.28941462 1811.53505344 136.21033317 1813.03250431 134.13134766 1814.53027344 C99.25895322 1839.53162474 62.07251168 1861.43009896 24.22509766 1881.58105469 C22.98300537 1882.24548584 22.98300537 1882.24548584 21.71582031 1882.92333984 C16.24007744 1885.85070864 10.74067821 1888.72952914 5.22509766 1891.58105469 C3.95303467 1892.24258545 3.95303467 1892.24258545 2.65527344 1892.91748047 C-44.58228842 1917.3851758 -94.94502486 1937.55544004 -145.64204979 1953.64217186 C-150.17813538 1955.08179095 -154.70162045 1956.54179073 -159.1917851 1958.11961102 C-188.9189672 1968.53781726 -216.63010557 1970.332306 -247.95874906 1970.12043262 C-253.9615412 1970.09190859 -259.96393719 1970.12091707 -265.96667535 1970.14726995 C-278.96297505 1970.20209715 -291.95852206 1970.19015645 -304.95483116 1970.14823993 C-316.32555417 1970.1117953 -327.69601376 1970.09912931 -339.06679153 1970.10896683 C-339.8267161 1970.1095932 -340.58664066 1970.11021957 -341.36959323 1970.11086492 C-344.45580227 1970.11343823 -347.54201118 1970.11611678 -350.62821998 1970.11895466 C-379.45880502 1970.14511957 -408.28892908 1970.10346247 -437.11941171 1970.02932015 C-462.63707509 1969.96408871 -488.15416249 1969.95506294 -513.671875 1969.99462891 C-520.21338044 1970.00471773 -526.75488594 1970.01472782 -533.29639244 1970.02411461 C-534.10216907 1970.02527097 -534.90794571 1970.02642733 -535.73813981 1970.02761874 C-557.17597993 1970.05745427 -578.61378227 1970.04070866 -600.05161345 1970.00998366 C-602.36257389 1970.00672557 -604.67353435 1970.00348911 -606.98449487 1970.00028363 C-608.51697105 1969.99815663 -610.04944718 1969.99599724 -611.58192327 1969.99380522 C-622.9392853 1969.97805047 -634.29646857 1969.98580392 -645.65382004 1970.0051384 C-658.58493987 1970.02694846 -671.51546893 1970.01172327 -684.44647138 1969.95022683 C-691.02546572 1969.9198091 -697.60369117 1969.90525172 -704.18277359 1969.93460846 C-731.91008216 1970.04668225 -757.02567684 1969.01235944 -783.34904027 1959.77795911 C-787.45886049 1958.34209804 -791.60754845 1957.07901713 -795.77932394 1955.83745229 C-799.84346198 1954.6170573 -803.87044065 1953.28563661 -807.89990234 1951.95605469 C-808.77136902 1951.67068848 -809.64283569 1951.38532227 -810.54071045 1951.09130859 C-850.92448237 1937.83126185 -890.33189058 1921.68831745 -928.77490234 1903.58105469 C-929.76828613 1903.11521973 -930.76166992 1902.64938477 -931.78515625 1902.16943359 C-965.16897382 1886.47781882 -997.20905854 1868.76876555 -1028.63720703 1849.49951172 C-1031.35624193 1847.83703302 -1034.0819896 1846.18698467 -1036.81396484 1844.54589844 C-1066.7336902 1826.53952797 -1095.25769786 1806.05621302 -1122.77490234 1784.58105469 C-1123.34547363 1784.13665039 -1123.91604492 1783.69224609 -1124.50390625 1783.234375 C-1135.16415561 1774.92595049 -1145.64566106 1766.42420104 -1155.93920898 1757.66479492 C-1159.34434363 1754.77212018 -1162.79216009 1751.94291001 -1166.27490234 1749.14355469 C-1171.02981284 1745.27715301 -1175.54151879 1741.19576601 -1180.00927734 1737.00512695 C-1182.8024739 1734.38650518 -1185.62956571 1731.82266548 -1188.52246094 1729.31420898 C-1201.48643189 1717.99019541 -1213.68193429 1705.83542434 -1225.83276367 1693.65356445 C-1228.36245538 1691.11844792 -1230.89753767 1688.58880832 -1233.43310547 1686.05957031 C-1235.06949436 1684.42252151 -1236.70557352 1682.78516303 -1238.34130859 1681.14746094 C-1239.08619034 1680.40460342 -1239.83107208 1679.66174591 -1240.598526 1678.89637756 C-1244.63228669 1674.84467338 -1248.50329391 1670.70694849 -1252.22657776 1666.36749268 C-1254.78089756 1663.4203497 -1257.47410113 1660.60493675 -1260.14990234 1657.76855469 C-1264.87363344 1652.72539651 -1269.34324525 1647.55414493 -1273.66552734 1642.15917969 C-1275.7947538 1639.55679179 -1278.00939591 1637.06529967 -1280.27490234 1634.58105469 C-1284.97898378 1629.40575266 -1289.39482894 1624.03165722 -1293.77490234 1618.58105469 C-1294.23799805 1618.00693848 -1294.70109375 1617.43282227 -1295.17822266 1616.84130859 C-1302.16391833 1608.17950706 -1309.05126762 1599.44825955 -1315.77490234 1590.58105469 C-1316.33580566 1589.84226074 -1316.89670898 1589.1034668 -1317.47460938 1588.34228516 C-1326.13916495 1576.91171025 -1334.59432137 1565.36257504 -1342.77490234 1553.58105469 C-1343.22784668 1552.93249512 -1343.68079102 1552.28393555 -1344.14746094 1551.61572266 C-1365.35457267 1521.24250222 -1384.68537399 1489.54971531 -1402.43066406 1457.03857422 C-1403.37864228 1455.30549235 -1404.33122771 1453.5749267 -1405.28710938 1451.84619141 C-1428.0697627 1410.6227314 -1447.11430111 1367.61255183 -1463.77490234 1323.58105469 C-1464.17228607 1322.5326239 -1464.17228607 1322.5326239 -1464.57769775 1321.4630127 C-1478.66832068 1284.21189172 -1490.14840781 1246.21638317 -1499.77490234 1207.58105469 C-1499.9680603 1206.81100098 -1500.16121826 1206.04094727 -1500.36022949 1205.24755859 C-1520.34095534 1125.59123151 -1530.70092119 1043.68905149 -1531.77490234 961.58105469 C-1531.79149902 960.33437012 -1531.8080957 959.08768555 -1531.82519531 957.80322266 C-1531.91675872 949.39408407 -1531.8868457 940.98984828 -1531.77490234 932.58105469 C-1531.76630188 931.9235321 -1531.75770142 931.26600952 -1531.74884033 930.58856201 C-1530.96916382 873.86498133 -1525.33078094 817.48089953 -1515.77490234 761.58105469 C-1515.56574188 760.35509583 -1515.56574188 760.35509583 -1515.35235596 759.10437012 C-1510.93212011 733.33566924 -1505.12418322 707.9376077 -1498.77490234 682.58105469 C-1498.58476563 681.81921875 -1498.39462891 681.05738281 -1498.19873047 680.27246094 C-1479.39648281 605.06347032 -1451.41972014 532.50552239 -1392.25146484 419.08935547 C-1390.21127896 415.62360319 -1388.27413712 412.10522437 -1386.33740234 408.58105469 C-1380.2728403 397.6443439 -1373.47809076 387.13291127 -1366.77490234 376.58105469 C-1366.26636719 375.77958008 -1365.75783203 374.97810547 -1365.23388672 374.15234375 C-1354.53679439 357.33734316 -1343.21098968 340.96334106 -1331.45166016 324.87548828 C-1330.31106081 323.31472056 -1329.17246272 321.75248879 -1328.03564453 320.18896484 C-1320.65634917 310.04090571 -1313.09795872 300.09389265 -1305.1953125 290.34863281 C-1303.31583335 288.00978285 -1301.47645795 285.64095502 -1299.63647461 283.27099609 C-1294.95399922 277.24431359 -1290.11284719 271.38959918 -1285.11474609 265.62207031 C-1282.09851137 262.13969023 -1279.15977517 258.61162734 -1276.27490234 255.01855469 C-1272.43209327 250.28141914 -1268.36973275 245.79321238 -1264.19873047 241.34643555 C-1261.58020275 238.55330954 -1259.01643738 235.72630396 -1256.50805664 232.83349609 C-1245.18404307 219.86952514 -1233.029272 207.67402274 -1220.84741211 195.52319336 C-1218.31229558 192.99350165 -1215.78265597 190.45841936 -1213.25341797 187.92285156 C-1211.61636917 186.28646267 -1209.97901068 184.65038352 -1208.34130859 183.01464844 C-1207.59845108 182.26976669 -1206.85559357 181.52488495 -1206.09022522 180.75743103 C-1202.03852104 176.72367034 -1197.90079614 172.85266312 -1193.56134033 169.12937927 C-1190.61419736 166.57505947 -1187.7987844 163.8818559 -1184.96240234 161.20605469 C-1179.91924416 156.48232359 -1174.74799259 152.01271178 -1169.35302734 147.69042969 C-1166.75063945 145.56120323 -1164.25914733 143.34656112 -1161.77490234 141.08105469 C-1156.59975418 136.37637454 -1151.21287394 131.97669125 -1145.77490234 127.58105469 C-1144.54370147 126.57022701 -1143.31327616 125.55845419 -1142.08349609 124.54589844 C-1133.47980309 117.47850303 -1124.71412958 110.68531053 -1115.76611328 104.06054688 C-1113.78576274 102.58912408 -1111.81410596 101.10683089 -1109.84521484 99.62011719 C-1076.89880745 74.74263504 -1042.42596667 52.37476057 -1006.77490234 31.58105469 C-1005.85354492 31.0423877 -1004.9321875 30.5037207 -1003.98291016 29.94873047 C-969.64049531 9.92101646 -934.22873871 -7.59856627 -897.77490234 -23.41894531 C-897.10203186 -23.71176392 -896.42916138 -24.00458252 -895.73590088 -24.30627441 C-815.51463 -59.20073977 -731.2740291 -82.6980724 0 0 Z " fill="#242C2C" transform="translate(1536.77490234375,115.4189453125)"/>
<path d="M0 0 C3.75876951 1.44438109 6.94186052 3.97192554 10.1875 6.3125 C10.79698486 6.74981445 11.40646973 7.18712891 12.03442383 7.63769531 C17.5460391 11.6195817 22.93999909 15.7489573 28.32666016 19.89746094 C34.48342638 24.63046636 40.72249838 29.24456235 46.9831543 33.83886719 C52.01116762 37.53007354 57.01680652 41.24852984 62 45 C67.69972229 49.2908262 73.43492597 53.53034176 79.1875 57.75 C86.03891298 62.7779121 92.81698739 67.89351535 99.5625 73.0625 C105.974028 77.97415597 112.43031987 82.80194029 119 87.5 C126.48344005 92.85150075 133.80867181 98.39074653 141.11108398 103.98608398 C147.65502449 108.9938037 154.26115227 113.90829783 160.90600586 118.78100586 C167.48069919 123.60554686 174.00490802 128.49497922 180.52197266 133.39697266 C186.13423827 137.61353203 191.77669817 141.78640259 197.4375 145.9375 C204.2059922 150.90237608 210.89947511 155.95708115 217.5625 161.0625 C223.97404953 165.97413481 230.43036937 170.80186508 237 175.5 C247.17025155 182.7744279 257.10404986 190.35787042 267 198 C267.72206956 198.40063092 268.44413911 198.80126184 269.18808956 199.21403309 C273.09908665 201.64180654 275.58295608 203.49727625 276.84389886 208.04079933 C277.1720972 211.95320689 277.21336175 215.81663815 277.16050339 219.73730564 C277.17293092 221.2607996 277.18929099 222.78426564 277.20922136 224.30767992 C277.25265012 228.50562723 277.23993974 232.70183083 277.2182216 236.89987785 C277.20443643 241.46247806 277.24256599 246.02469058 277.27407002 250.58716196 C277.32203097 258.58739691 277.33627663 266.58714792 277.32855606 274.58751488 C277.31710217 286.48441144 277.35673356 298.38075528 277.40609401 310.27753498 C277.49731297 332.76081143 277.52648009 355.24391326 277.53524467 377.7273537 C277.54212795 395.08932498 277.56299872 412.45122442 277.59372711 429.81316948 C277.60239286 434.80797882 277.61097816 439.80278829 277.61953282 444.79759783 C277.62166141 446.03927349 277.62378999 447.28094916 277.62598308 448.56025136 C277.68526443 483.49531551 277.72432432 518.43035525 277.72361374 553.36547184 C277.72359875 554.68308516 277.72358376 556.00069848 277.72356831 557.35823948 C277.72347078 563.36721705 277.72327056 569.37619461 277.72302948 575.38517217 C277.72292321 578.06471405 277.72282708 580.74425593 277.72273235 583.42379782 C277.72268161 584.7649573 277.72262487 586.10611677 277.72256213 587.44727625 C277.72061517 629.84920211 277.79354381 672.2503921 277.92773438 714.65209961 C278.07599669 761.52115005 278.15992078 808.38978406 278.15371442 855.25909036 C278.15328882 860.25610031 278.1531146 865.2531102 278.15311432 870.25012016 C278.15307685 871.48053782 278.15303939 872.71095547 278.15300079 873.97865851 C278.1539056 893.78774367 278.21604013 913.59618407 278.29945949 933.40507319 C278.38160749 953.31194764 278.39281666 973.2178976 278.33214495 993.12485708 C278.29810067 1004.95400226 278.3167025 1016.78031418 278.41092217 1028.60914814 C278.4686179 1036.51175531 278.45719847 1044.41231869 278.38972196 1052.31484319 C278.35321438 1056.8183985 278.34647569 1061.31647708 278.42388949 1065.8196379 C278.87511862 1093.8661854 278.87511862 1093.8661854 271.94319391 1101.04365814 C268.08589263 1104.22331354 264.00490208 1106.54965592 259.5067884 1108.6991524 C255.20217682 1110.93294431 251.45579399 1113.92231763 247.625 1116.875 C246.32103271 1117.8330957 246.32103271 1117.8330957 244.99072266 1118.81054688 C238.02891744 1123.9504642 231.15253136 1129.19988543 224.27832031 1134.45605469 C219.19382261 1138.34017789 214.08304423 1142.17486752 208.890625 1145.9140625 C197.97816851 1153.78872705 187.18766669 1161.82324354 176.5 1170 C165.98843584 1178.04109548 155.34369394 1185.89060067 144.66601562 1193.70898438 C134.45647696 1201.18915598 124.33263472 1208.76831016 114.27832031 1216.45605469 C109.19526703 1220.33907447 104.08657512 1224.17351995 98.89453125 1227.91015625 C84.79503315 1238.08995582 70.89810976 1248.5481476 57 1259 C53.64660755 1261.52186546 50.29260163 1264.04290879 46.9375 1266.5625 C46.11217773 1267.18229736 45.28685547 1267.80209473 44.43652344 1268.44067383 C37.97803516 1273.28327416 31.48822152 1278.08231031 24.96411133 1282.83618164 C20.9744226 1285.75531296 17.05488429 1288.73158922 13.20703125 1291.8359375 C12.43641357 1292.45065918 11.6657959 1293.06538086 10.87182617 1293.69873047 C9.40771867 1294.87249828 7.95529949 1296.06104383 6.5168457 1297.26611328 C5.86417725 1297.7867334 5.21150879 1298.30735352 4.5390625 1298.84375 C3.97396973 1299.30974609 3.40887695 1299.77574219 2.82666016 1300.25585938 C1 1301 1 1301 -1.43432617 1300.34375 C-4.05293122 1298.97227772 -6.2597083 1297.47340695 -8.58984375 1295.65625 C-9.87858398 1294.66044922 -9.87858398 1294.66044922 -11.19335938 1293.64453125 C-12.09892578 1292.93683594 -13.00449219 1292.22914062 -13.9375 1291.5 C-15.84118878 1290.02961837 -17.74613644 1288.56086513 -19.65234375 1287.09375 C-20.57515137 1286.38347656 -21.49795898 1285.67320313 -22.44873047 1284.94140625 C-26.1100722 1282.15528286 -29.85466448 1279.50642324 -33.61987305 1276.86254883 C-38.93163549 1273.10356248 -44.08682515 1269.14709536 -49.25 1265.1875 C-56.59848474 1259.55359573 -64.01760888 1254.04406376 -71.54418945 1248.65087891 C-77.05215307 1244.699926 -82.4884455 1240.66312398 -87.90063477 1236.58227539 C-92.99056357 1232.74746609 -98.11407436 1228.96043605 -103.25 1225.1875 C-110.70873026 1219.70583738 -118.12331239 1214.16802479 -125.52075195 1208.60400391 C-131.13337047 1204.38704672 -136.77625932 1200.21387983 -142.4375 1196.0625 C-149.29013273 1191.03632909 -156.06592945 1185.91754731 -162.8125 1180.75 C-169.00798593 1176.0050334 -175.23807167 1171.34531016 -181.62329102 1166.85961914 C-186.93458392 1163.10258642 -192.08807844 1159.14621107 -197.25 1155.1875 C-203.76527568 1150.19152322 -210.32023574 1145.27392837 -217 1140.5 C-224.47763713 1135.15300237 -231.79729585 1129.61846856 -239.09350586 1124.02709961 C-245.75911535 1118.92574873 -252.48518498 1113.91390305 -259.25756836 1108.95532227 C-260.66489683 1107.92468601 -262.06373839 1106.88233288 -263.4526828 1105.8270519 C-266.02377443 1103.92449955 -266.02377443 1103.92449955 -269.01925388 1102.22619534 C-277.30766286 1096.98869658 -277.30766286 1096.98869658 -279.11904795 1091.78560244 C-279.55338495 1087.85528847 -279.61018504 1084.01347482 -279.5352335 1080.06903744 C-279.55049703 1078.54891041 -279.57100469 1077.02882866 -279.5962567 1075.50883475 C-279.65044755 1071.32913106 -279.63003748 1067.1526151 -279.5974229 1062.97281011 C-279.57510309 1058.42690403 -279.62217097 1053.88162737 -279.66033548 1049.33589989 C-279.71755718 1041.36806335 -279.72998161 1033.40112678 -279.71308899 1025.43311691 C-279.68803343 1013.5843715 -279.73125236 1001.7365591 -279.78758554 989.88795676 C-279.89139467 967.49516368 -279.91332299 945.10273888 -279.90935881 922.70973992 C-279.90661951 905.41693896 -279.92423507 888.1242698 -279.95623589 870.8314991 C-279.96073068 868.34798215 -279.96521278 865.86446517 -279.96968226 863.38094817 C-279.97190173 862.14815458 -279.97412121 860.91536099 -279.97640795 859.64521002 C-279.97862919 858.41017007 -279.98085043 857.17513012 -279.98313898 855.90266472 C-279.9853741 854.66557051 -279.98760922 853.4284763 -279.98991207 852.15389438 C-280.0521372 817.35171371 -280.08880665 782.54958085 -280.07363224 747.74734402 C-280.07306964 746.43496175 -280.07250704 745.12257947 -280.07192739 743.77042804 C-280.06901136 737.11861704 -280.0658798 730.46680615 -280.06267924 723.81499528 C-280.06171979 721.8129556 -280.06076088 719.81091591 -280.05980256 717.80887622 C-280.05915937 716.47308208 -280.05850982 715.13728794 -280.0578539 713.8014938 C-280.03716987 671.56964858 -280.10367057 629.33878956 -280.2434082 587.10717773 C-280.39776739 540.4182232 -280.48153594 493.72987385 -280.46390241 447.04064709 C-280.46226858 442.06216852 -280.4608917 437.08368995 -280.45968437 432.10521126 C-280.45934225 430.8793709 -280.45900013 429.65353055 -280.45864764 428.39054351 C-280.45497621 409.88359602 -280.50684056 391.37733112 -280.58711433 372.87057304 C-280.67839475 351.82048438 -280.69679049 330.77179807 -280.61768729 309.72162866 C-280.57561565 297.94156223 -280.59152773 286.16494546 -280.69110688 274.3852063 C-280.75183581 266.51278444 -280.73599376 258.64289727 -280.65835808 250.77063075 C-280.61626885 246.28567971 -280.60683296 241.80742179 -280.69069219 237.32290643 C-281.14153156 211.53042599 -281.14153156 211.53042599 -275.96041219 204.05869527 C-271.15450596 199.10599401 -265.7321535 195.64418456 -259.65220588 192.45079578 C-255.49244624 190.17534583 -251.78489869 187.34044 -248 184.5 C-246.5320909 183.44363035 -245.06227536 182.38990047 -243.58984375 181.33984375 C-238.51112679 177.67157541 -233.53562475 173.87210808 -228.5625 170.0625 C-218.03281977 161.99635308 -207.36757408 154.12688479 -196.66601562 146.29101562 C-187.54636218 139.60936477 -178.47960099 132.86908148 -169.5 126 C-158.98837925 117.95897686 -148.34369567 110.10940059 -137.66601562 102.29101562 C-128.52249645 95.59187919 -119.43593978 88.83065685 -110.4375 81.9375 C-103.3108837 76.47823315 -96.10809419 71.15286148 -88.80615234 65.93115234 C-82.97694778 61.74578604 -77.25906013 57.42628789 -71.5625 53.0625 C-61.03281977 44.99635308 -50.36757408 37.12688479 -39.66601562 29.29101562 C-29.24964943 21.65930873 -18.91432172 13.93493484 -8.67626953 6.06494141 C-7.41145752 5.09500244 -7.41145752 5.09500244 -6.12109375 4.10546875 C-5.3727124 3.52949951 -4.62433105 2.95353027 -3.85327148 2.36010742 C-2 1 -2 1 0 0 Z " fill="#407170" transform="translate(1417,391)"/>
<path d="M0 0 C2.89059638 1.41707057 5.78577256 2.824249 8.68212891 4.22949219 C20.48577399 9.99775807 31.90068945 16.36991671 43.29296875 22.90771484 C46.20517568 24.56968539 49.12857793 26.20979809 52.05712891 27.84277344 C64.14973131 34.5935524 76.01547953 41.6271767 87.73144531 49.01220703 C90.14422165 50.53017264 92.5643502 52.0356452 94.98681641 53.53808594 C113.59292639 65.12013252 131.55035306 77.63082416 149.22509766 90.58105469 C150.84097903 91.75944565 152.45686454 92.93783094 154.07275391 94.11621094 C163.60805336 101.088105 172.99691937 108.20790461 182.22509766 115.58105469 C183.11455078 116.28746094 184.00400391 116.99386719 184.92041016 117.72167969 C194.93168004 125.69303564 204.78761576 133.84212138 214.52929688 142.13964844 C216.22744612 143.58305084 217.93099958 145.01986891 219.63525391 146.45605469 C226.61278536 152.35928503 233.37813967 158.44398289 240.0300293 164.7121582 C243.14850276 167.65006471 246.28049934 170.54580965 249.53759766 173.33105469 C253.50760611 176.74130056 257.13062764 180.47333844 260.80712891 184.19433594 C262.78777349 186.14938253 264.7879793 187.97576393 266.91259766 189.76855469 C275.73423725 197.32996005 284.06677427 205.81759175 291.55712891 214.69433594 C293.68039722 217.09606567 295.94487606 219.32810032 298.22509766 221.58105469 C301.77427923 225.09282019 305.14478223 228.6711437 308.38916016 232.46386719 C310.57715935 234.98704924 312.83802878 237.43659988 315.10009766 239.89355469 C319.24755024 244.43630154 323.15742461 249.1222543 327.01806641 253.90917969 C329.14133103 256.47964518 331.34321614 258.94024832 333.60009766 261.39355469 C337.66382544 265.85305423 341.38393742 270.51629196 345.07714844 275.28100586 C347.96241252 278.99726997 350.92368032 282.62329602 353.97509766 286.20605469 C360.46204147 293.92860684 366.4062215 302.05942838 372.41601562 310.15478516 C374.02908816 312.31817447 375.65524336 314.47033971 377.29150391 316.61621094 C413.53449357 364.211541 444.09582439 416.35212753 471.22509766 469.58105469 C471.74313965 470.58990723 472.26118164 471.59875977 472.79492188 472.63818359 C498.2483829 522.2450413 518.89980703 574.70962162 535.35009766 627.95605469 C535.73770767 629.21030746 535.73770767 629.21030746 536.13314819 630.48989868 C537.3465758 634.43690266 538.53658356 638.38921434 539.68768895 642.35485578 C540.67931216 645.75987928 541.71700128 649.14534633 542.7893914 652.52570415 C546.99132181 666.21049716 548.09516442 678.76094921 548.02737427 693.01397705 C548.03861462 695.29230902 548.05243133 697.57062946 548.0685662 699.84893203 C548.10492569 706.04614982 548.10451449 712.24287784 548.09739995 718.44017768 C548.09629393 724.45843222 548.12333574 730.47652631 548.14907728 736.49471017 C548.2068266 750.31028275 548.22397208 764.12572082 548.22741963 777.94140002 C548.23018816 788.62560625 548.24259646 799.30976056 548.26162338 809.99394989 C548.26700964 813.08134573 548.27234853 816.16874166 548.27767265 819.25613761 C548.27899894 820.02393104 548.28032523 820.79172447 548.28169171 821.58278437 C548.31857381 843.15547681 548.34229966 864.72815125 548.33963203 886.30087662 C548.33953856 887.11275253 548.33944509 887.92462845 548.33934878 888.76110667 C548.33885022 892.87497892 548.33825599 896.98885115 548.33764054 901.10272339 C548.33746103 902.32801302 548.33746103 902.32801302 548.3372779 903.57805597 C548.33703527 905.22994673 548.33678448 906.88183749 548.33652555 908.53372825 C548.3328555 934.18919396 548.37778625 959.84418246 548.45996094 985.49951172 C548.55250505 1014.40332492 548.6037351 1043.3068247 548.59818161 1072.21079516 C548.59773392 1075.30447817 548.59744162 1078.39816115 548.59725571 1081.49184418 C548.59718578 1082.25343792 548.59711585 1083.01503166 548.59704381 1083.799704 C548.59686059 1095.95817806 548.63487282 1108.11623177 548.68684929 1120.27458153 C548.73818731 1132.53907915 548.74328095 1144.80297463 548.70419337 1157.0675213 C548.68422177 1163.6878087 548.68349705 1170.30692426 548.73631287 1176.92715263 C548.96821601 1207.94527741 546.34933866 1234.93235836 536.02407464 1264.27071589 C534.61340941 1268.34982538 533.304912 1272.46181414 531.98909187 1276.57229996 C529.19805912 1285.2879649 526.24922196 1293.94372399 523.22509766 1302.58105469 C522.99691345 1303.23424683 522.76872925 1303.88743896 522.53363037 1304.5604248 C508.38271024 1344.99198907 491.09028053 1384.1483488 472.22509766 1422.58105469 C471.70415527 1423.6501709 471.18321289 1424.71928711 470.64648438 1425.82080078 C463.84379846 1439.77385088 456.57058933 1453.37121653 448.81445312 1466.81689453 C447.27285074 1469.49800393 445.74801844 1472.18787642 444.22900391 1474.88183594 C425.29967019 1508.40580539 404.3367179 1541.10989224 381.35009766 1572.01855469 C380.76768311 1572.80512451 380.18526855 1573.59169434 379.58520508 1574.40209961 C373.55160411 1582.52804364 367.4186268 1590.57652888 361.22509766 1598.58105469 C360.74443848 1599.20351074 360.2637793 1599.8259668 359.76855469 1600.46728516 C353.97037071 1607.96269385 348.00590416 1615.28311495 341.85009766 1622.48730469 C339.38593802 1625.37656789 336.98848766 1628.31623927 334.60009766 1631.26855469 C330.9767527 1635.72009277 327.20545893 1640.00487924 323.34228516 1644.24902344 C321.44458596 1646.33929358 319.57776351 1648.45091584 317.72509766 1650.58105469 C314.37316397 1654.42728275 310.9656942 1658.22133512 307.54541016 1662.00683594 C306.01304379 1663.70688549 304.48685965 1665.41253037 302.96728516 1667.12402344 C298.56609555 1672.06961106 294.0318216 1676.80764203 289.31884766 1681.45605469 C287.48626271 1683.31599165 285.78401185 1685.21285013 284.10009766 1687.20605469 C276.50796138 1696.04280347 268.01306568 1704.40205347 259.11181641 1711.91308594 C256.71008668 1714.03635425 254.47805203 1716.30083309 252.22509766 1718.58105469 C248.73468325 1722.10860116 245.17865452 1725.45489942 241.40869141 1728.67871094 C239.21689404 1730.58820167 237.08124901 1732.55171291 234.95068359 1734.52905273 C229.73966331 1739.36372155 224.40297164 1743.95096064 218.86181641 1748.40917969 C216.30089737 1750.51861818 213.85386311 1752.70993117 211.41259766 1754.95605469 C207.03730175 1758.93860749 202.47780499 1762.59923539 197.80639648 1766.22216797 C194.0099755 1769.16881014 190.26700329 1772.16899417 186.55615234 1775.22265625 C171.65679802 1787.47389767 156.06318291 1798.83205854 140.37353516 1810.04443359 C138.28941462 1811.53505344 136.21033317 1813.03250431 134.13134766 1814.53027344 C99.25895322 1839.53162474 62.07251168 1861.43009896 24.22509766 1881.58105469 C22.98300537 1882.24548584 22.98300537 1882.24548584 21.71582031 1882.92333984 C16.24007744 1885.85070864 10.74067821 1888.72952914 5.22509766 1891.58105469 C3.95303467 1892.24258545 3.95303467 1892.24258545 2.65527344 1892.91748047 C-44.58228842 1917.3851758 -94.94502486 1937.55544004 -145.64204979 1953.64217186 C-150.17813538 1955.08179095 -154.70162045 1956.54179073 -159.1917851 1958.11961102 C-188.9189672 1968.53781726 -216.63010557 1970.332306 -247.95874906 1970.12043262 C-253.9615412 1970.09190859 -259.96393719 1970.12091707 -265.96667535 1970.14726995 C-278.96297505 1970.20209715 -291.95852206 1970.19015645 -304.95483116 1970.14823993 C-316.32555417 1970.1117953 -327.69601376 1970.09912931 -339.06679153 1970.10896683 C-339.8267161 1970.1095932 -340.58664066 1970.11021957 -341.36959323 1970.11086492 C-344.45580227 1970.11343823 -347.54201118 1970.11611678 -350.62821998 1970.11895466 C-379.45880502 1970.14511957 -408.28892908 1970.10346247 -437.11941171 1970.02932015 C-462.63707509 1969.96408871 -488.15416249 1969.95506294 -513.671875 1969.99462891 C-520.21338044 1970.00471773 -526.75488594 1970.01472782 -533.29639244 1970.02411461 C-534.10216907 1970.02527097 -534.90794571 1970.02642733 -535.73813981 1970.02761874 C-557.17597993 1970.05745427 -578.61378227 1970.04070866 -600.05161345 1970.00998366 C-602.36257389 1970.00672557 -604.67353435 1970.00348911 -606.98449487 1970.00028363 C-608.51697105 1969.99815663 -610.04944718 1969.99599724 -611.58192327 1969.99380522 C-622.9392853 1969.97805047 -634.29646857 1969.98580392 -645.65382004 1970.0051384 C-658.58493987 1970.02694846 -671.51546893 1970.01172327 -684.44647138 1969.95022683 C-691.02546572 1969.9198091 -697.60369117 1969.90525172 -704.18277359 1969.93460846 C-731.91008216 1970.04668225 -757.02567684 1969.01235944 -783.34904027 1959.77795911 C-787.45886049 1958.34209804 -791.60754845 1957.07901713 -795.77932394 1955.83745229 C-799.84346198 1954.6170573 -803.87044065 1953.28563661 -807.89990234 1951.95605469 C-808.77136902 1951.67068848 -809.64283569 1951.38532227 -810.54071045 1951.09130859 C-850.92448237 1937.83126185 -890.33189058 1921.68831745 -928.77490234 1903.58105469 C-929.76828613 1903.11521973 -930.76166992 1902.64938477 -931.78515625 1902.16943359 C-965.16897382 1886.47781882 -997.20905854 1868.76876555 -1028.63720703 1849.49951172 C-1031.35624193 1847.83703302 -1034.0819896 1846.18698467 -1036.81396484 1844.54589844 C-1066.7336902 1826.53952797 -1095.25769786 1806.05621302 -1122.77490234 1784.58105469 C-1123.34547363 1784.13665039 -1123.91604492 1783.69224609 -1124.50390625 1783.234375 C-1135.16415561 1774.92595049 -1145.64566106 1766.42420104 -1155.93920898 1757.66479492 C-1159.34434363 1754.77212018 -1162.79216009 1751.94291001 -1166.27490234 1749.14355469 C-1171.02981284 1745.27715301 -1175.54151879 1741.19576601 -1180.00927734 1737.00512695 C-1182.8024739 1734.38650518 -1185.62956571 1731.82266548 -1188.52246094 1729.31420898 C-1201.48643189 1717.99019541 -1213.68193429 1705.83542434 -1225.83276367 1693.65356445 C-1228.36245538 1691.11844792 -1230.89753767 1688.58880832 -1233.43310547 1686.05957031 C-1235.06949436 1684.42252151 -1236.70557352 1682.78516303 -1238.34130859 1681.14746094 C-1239.08619034 1680.40460342 -1239.83107208 1679.66174591 -1240.598526 1678.89637756 C-1244.63228669 1674.84467338 -1248.50329391 1670.70694849 -1252.22657776 1666.36749268 C-1254.78089756 1663.4203497 -1257.47410113 1660.60493675 -1260.14990234 1657.76855469 C-1264.87363344 1652.72539651 -1269.34324525 1647.55414493 -1273.66552734 1642.15917969 C-1275.7947538 1639.55679179 -1278.00939591 1637.06529967 -1280.27490234 1634.58105469 C-1284.97898378 1629.40575266 -1289.39482894 1624.03165722 -1293.77490234 1618.58105469 C-1294.23799805 1618.00693848 -1294.70109375 1617.43282227 -1295.17822266 1616.84130859 C-1302.16391833 1608.17950706 -1309.05126762 1599.44825955 -1315.77490234 1590.58105469 C-1316.33580566 1589.84226074 -1316.89670898 1589.1034668 -1317.47460938 1588.34228516 C-1326.13916495 1576.91171025 -1334.59432137 1565.36257504 -1342.77490234 1553.58105469 C-1343.22784668 1552.93249512 -1343.68079102 1552.28393555 -1344.14746094 1551.61572266 C-1365.35457267 1521.24250222 -1384.68537399 1489.54971531 -1402.43066406 1457.03857422 C-1403.37864228 1455.30549235 -1404.33122771 1453.5749267 -1405.28710938 1451.84619141 C-1428.0697627 1410.6227314 -1447.11430111 1367.61255183 -1463.77490234 1323.58105469 C-1464.17228607 1322.5326239 -1464.17228607 1322.5326239 -1464.57769775 1321.4630127 C-1478.66832068 1284.21189172 -1490.14840781 1246.21638317 -1499.77490234 1207.58105469 C-1499.9680603 1206.81100098 -1500.16121826 1206.04094727 -1500.36022949 1205.24755859 C-1520.34095534 1125.59123151 -1530.70092119 1043.68905149 -1531.77490234 961.58105469 C-1531.79149902 960.33437012 -1531.8080957 959.08768555 -1531.82519531 957.80322266 C-1531.91675872 949.39408407 -1531.8868457 940.98984828 -1531.77490234 932.58105469 C-1531.76630188 931.9235321 -1531.75770142 931.26600952 -1531.74884033 930.58856201 C-1530.96916382 873.86498133 -1525.33078094 817.48089953 -1515.77490234 761.58105469 C-1515.56574188 760.35509583 -1515.56574188 760.35509583 -1515.35235596 759.10437012 C-1510.93212011 733.33566924 -1505.12418322 707.9376077 -1498.77490234 682.58105469 C-1498.58476563 681.81921875 -1498.39462891 681.05738281 -1498.19873047 680.27246094 C-1479.39648281 605.06347032 -1451.41972014 532.50552239 -1392.25146484 419.08935547 C-1390.21127896 415.62360319 -1388.27413712 412.10522437 -1386.33740234 408.58105469 C-1380.2728403 397.6443439 -1373.47809076 387.13291127 -1366.77490234 376.58105469 C-1366.26636719 375.77958008 -1365.75783203 374.97810547 -1365.23388672 374.15234375 C-1354.53679439 357.33734316 -1343.21098968 340.96334106 -1331.45166016 324.87548828 C-1330.31106081 323.31472056 -1329.17246272 321.75248879 -1328.03564453 320.18896484 C-1320.65634917 310.04090571 -1313.09795872 300.09389265 -1305.1953125 290.34863281 C-1303.31583335 288.00978285 -1301.47645795 285.64095502 -1299.63647461 283.27099609 C-1294.95399922 277.24431359 -1290.11284719 271.38959918 -1285.11474609 265.62207031 C-1282.09851137 262.13969023 -1279.15977517 258.61162734 -1276.27490234 255.01855469 C-1272.43209327 250.28141914 -1268.36973275 245.79321238 -1264.19873047 241.34643555 C-1261.58020275 238.55330954 -1259.01643738 235.72630396 -1256.50805664 232.83349609 C-1245.18404307 219.86952514 -1233.029272 207.67402274 -1220.84741211 195.52319336 C-1218.31229558 192.99350165 -1215.78265597 190.45841936 -1213.25341797 187.92285156 C-1211.61636917 186.28646267 -1209.97901068 184.65038352 -1208.34130859 183.01464844 C-1207.59845108 182.26976669 -1206.85559357 181.52488495 -1206.09022522 180.75743103 C-1202.03852104 176.72367034 -1197.90079614 172.85266312 -1193.56134033 169.12937927 C-1190.61419736 166.57505947 -1187.7987844 163.8818559 -1184.96240234 161.20605469 C-1179.91924416 156.48232359 -1174.74799259 152.01271178 -1169.35302734 147.69042969 C-1166.75063945 145.56120323 -1164.25914733 143.34656112 -1161.77490234 141.08105469 C-1156.59975418 136.37637454 -1151.21287394 131.97669125 -1145.77490234 127.58105469 C-1144.54370147 126.57022701 -1143.31327616 125.55845419 -1142.08349609 124.54589844 C-1133.47980309 117.47850303 -1124.71412958 110.68531053 -1115.76611328 104.06054688 C-1113.78576274 102.58912408 -1111.81410596 101.10683089 -1109.84521484 99.62011719 C-1076.89880745 74.74263504 -1042.42596667 52.37476057 -1006.77490234 31.58105469 C-1005.85354492 31.0423877 -1004.9321875 30.5037207 -1003.98291016 29.94873047 C-969.64049531 9.92101646 -934.22873871 -7.59856627 -897.77490234 -23.41894531 C-897.10203186 -23.71176392 -896.42916138 -24.00458252 -895.73590088 -24.30627441 C-815.51463 -59.20073977 -731.2740291 -82.6980724 0 0 Z M-981.99951172 62.96679688 C-985.03092018 64.72996302 -988.08076411 66.45803248 -991.13427734 68.18261719 C-1004.6094464 75.81914362 -1017.71527123 83.85921667 -1030.59472656 92.46044922 C-1033.49398891 94.39373593 -1036.39988887 96.31640286 -1039.30867004 98.23530579 C-1061.07414234 112.5968827 -1082.12216801 127.65027872 -1102.77490234 143.58105469 C-1103.46132812 144.11005371 -1104.14775391 144.63905273 -1104.85498047 145.18408203 C-1112.29128714 150.92910562 -1119.54196609 156.85479102 -1126.68505859 162.95996094 C-1129.55067929 165.40408803 -1132.46895757 167.77801202 -1135.39990234 170.14355469 C-1140.16297452 174.01918401 -1144.70854484 178.09339757 -1149.22802734 182.24902344 C-1151.36431983 184.2051072 -1153.52270892 186.12293166 -1155.71240234 188.01855469 C-1163.83415324 195.09394504 -1171.71755647 202.37314581 -1179.22802734 210.09667969 C-1181.21365213 212.03357748 -1183.21333313 213.83217746 -1185.31787109 215.63183594 C-1190.53040058 220.15456143 -1195.38071596 225.03694766 -1200.24780273 229.92358398 C-1201.83450181 231.51564435 -1203.42647976 233.10228459 -1205.01904297 234.68847656 C-1209.90213764 239.56837973 -1214.68764589 244.4864906 -1219.17602539 249.73706055 C-1222.0561694 253.05874748 -1225.11969228 256.20937932 -1228.14990234 259.39355469 C-1233.23553853 264.77354039 -1238.06568771 270.22609256 -1242.67724609 276.01855469 C-1244.90708096 278.74252428 -1247.25444353 281.31440654 -1249.64990234 283.89355469 C-1253.91644234 288.52994955 -1257.82610076 293.35335292 -1261.67773438 298.33178711 C-1264.54422679 302.03312661 -1267.48807652 305.64130385 -1270.52490234 309.20605469 C-1276.983472 316.90115429 -1282.92083036 324.98527792 -1288.89746094 333.05664062 C-1290.60998935 335.35931213 -1292.33897403 337.64816403 -1294.07568359 339.93261719 C-1305.27502033 354.7611658 -1315.41622544 370.31715047 -1325.62530518 385.83453369 C-1326.62916233 387.35963974 -1327.63519757 388.88331167 -1328.64160156 390.40673828 C-1377.80365716 464.87752428 -1415.36244256 547.44853427 -1485.77490234 907.58105469 C-1485.78585937 908.24572754 -1485.79681641 908.91040039 -1485.80810547 909.59521484 C-1487.24490536 999.41633723 -1477.05065717 1089.82415918 -1384.77490234 1362.58105469 C-1384.40059082 1363.34482422 -1384.0262793 1364.10859375 -1383.640625 1364.89550781 C-1381.39373122 1369.47903979 -1379.09536302 1374.03439579 -1376.77490234 1378.58105469 C-1376.32211914 1379.47405273 -1375.86933594 1380.36705078 -1375.40283203 1381.28710938 C-1367.8626864 1396.12857249 -1359.85993149 1410.61251166 -1351.3515625 1424.91992188 C-1349.94047746 1427.3015922 -1348.54605073 1429.69163787 -1347.16162109 1432.08886719 C-1322.7362793 1474.30636035 -1294.07618998 1514.0398875 -1263.24707031 1551.77685547 C-1261.95218723 1553.36378515 -1260.66199756 1554.95454205 -1259.37255859 1556.54589844 C-1250.95134671 1566.91632393 -1242.27567167 1577.06014976 -1233.22412109 1586.88574219 C-1231.30350255 1588.99934154 -1229.41984222 1591.13272685 -1227.54785156 1593.28881836 C-1216.60370382 1605.80601022 -1204.89793604 1617.62120585 -1193.12915039 1629.35717773 C-1190.81131397 1631.66958192 -1188.49896931 1633.98738367 -1186.18701172 1636.30566406 C-1184.6866817 1637.80533426 -1183.18604204 1639.30469475 -1181.68505859 1640.80371094 C-1181.00782242 1641.48297134 -1180.33058624 1642.16223175 -1179.63282776 1642.86207581 C-1175.7485184 1646.72759762 -1171.76341624 1650.4178314 -1167.60577393 1653.98829651 C-1164.46997001 1656.71627448 -1161.47847793 1659.59730467 -1158.46240234 1662.45605469 C-1153.240236 1667.37145531 -1147.92591003 1672.02625565 -1142.32177734 1676.50292969 C-1139.70481904 1678.63823922 -1137.20647456 1680.86635832 -1134.71240234 1683.14355469 C-1129.90011545 1687.51767417 -1124.89406739 1691.57347976 -1119.77490234 1695.58105469 C-1118.23576172 1696.79535156 -1118.23576172 1696.79535156 -1116.66552734 1698.03417969 C-1113.70843683 1700.36646559 -1110.74469074 1702.69013841 -1107.77880859 1705.01123047 C-1106.38973483 1706.09940595 -1105.00179042 1707.18902403 -1103.61474609 1708.27978516 C-1094.40655365 1715.52022691 -1085.14311218 1722.61916458 -1075.54541016 1729.3359375 C-1073.71544519 1730.62286818 -1071.89672549 1731.92451853 -1070.07958984 1733.22949219 C-1034.24381599 1758.8858677 -996.66770754 1781.86461562 -957.77490234 1802.58105469 C-956.76443848 1803.12052734 -955.75397461 1803.66 -954.71289062 1804.21582031 C-916.6564013 1824.45503285 -877.26325015 1841.81154072 -836.77490234 1856.58105469 C-836.12453003 1856.81932983 -835.47415771 1857.05760498 -834.80407715 1857.30310059 C-753.55704621 1887.06364728 -668.67360771 1906.02849945 -554.77490234 1915.58105469 C-554.04749847 1915.62944489 -553.3200946 1915.67783508 -552.57064819 1915.72769165 C-535.48871214 1916.83495517 -518.38000217 1916.76848682 -501.27026367 1916.76635742 C-497.92515579 1916.76627682 -494.58018681 1916.77312757 -491.23510742 1916.78686523 C-460.93538122 1916.90915873 -430.7559188 1915.86033378 -400.58740234 1912.89355469 C-399.74657104 1912.81213226 -398.90573975 1912.73070984 -398.03942871 1912.64682007 C-323.76319536 1905.366493 -250.43085562 1889.71222111 -179.80615234 1865.62814331 C-175.7252422 1864.23747742 -171.63769986 1862.8724037 -167.53662109 1861.54199219 C-156.6917324 1858.02351927 -146.11021641 1854.06753316 -135.56835938 1849.72607422 C-132.5163656 1848.47508219 -129.45684045 1847.24382077 -126.39599609 1846.01464844 C-111.05216251 1839.8371166 -95.85844329 1833.36935229 -80.77490234 1826.58105469 C-80.07574707 1826.26749023 -79.3765918 1825.95392578 -78.65625 1825.63085938 C-60.61711144 1817.50307546 -42.84406285 1808.59406143 -25.71850586 1798.68554688 C-22.40122047 1796.80043205 -19.04306398 1794.99034803 -15.69116211 1793.16772461 C42.6749554 1761.41206134 96.96217707 1723.09326562 147.52929688 1680.02246094 C149.22744612 1678.57905853 150.93099958 1677.14224046 152.63525391 1675.70605469 C159.50472977 1669.89454223 166.18486895 1663.92107618 172.72460938 1657.73999023 C176.05584714 1654.59205024 179.42803416 1651.50359376 182.85424805 1648.45898438 C188.03835544 1643.79816015 193.00182491 1638.94924346 197.92431641 1634.01464844 C199.24324638 1632.69715355 199.24324638 1632.69715355 200.58882141 1631.3530426 C202.43112903 1629.51141024 204.27219554 1627.66853552 206.11206055 1625.82446289 C208.91228611 1623.01886683 211.71782938 1620.21866812 214.52392578 1617.41894531 C216.3243768 1615.61783365 218.12451767 1613.8164119 219.92431641 1612.01464844 C220.75364182 1611.18734726 221.58296722 1610.36004608 222.43742371 1609.50767517 C226.69309739 1605.2349789 230.80443969 1600.89571077 234.72862244 1596.31564331 C237.10648742 1593.55942156 239.60999965 1590.92295474 242.10009766 1588.26855469 C246.6373343 1583.39653991 250.91670776 1578.38123759 255.08447266 1573.18652344 C257.20027648 1570.61126587 259.40485487 1568.15720551 261.66259766 1565.70605469 C265.20233347 1561.81671534 268.50746642 1557.79925229 271.72509766 1553.64355469 C272.15878662 1553.08748535 272.59247559 1552.53141602 273.03930664 1551.95849609 C274.91846914 1549.49994086 276.23833591 1547.54133992 277.22509766 1544.58105469 C277.88509766 1544.58105469 278.54509766 1544.58105469 279.22509766 1544.58105469 C280.57309895 1543.09910909 280.57309895 1543.09910909 281.91259766 1541.14355469 C284.02913802 1538.22313601 286.1752146 1535.34755346 288.41259766 1532.51855469 C293.05077687 1526.57717026 297.47207121 1520.47652951 301.91015625 1514.38525391 C303.09258178 1512.76287651 304.27780468 1511.1425388 305.46337891 1509.52246094 C309.79409967 1503.59399854 314.04397035 1497.61584281 318.22509766 1491.58105469 C318.62067871 1491.01290039 319.01625977 1490.44474609 319.42382812 1489.859375 C336.58446284 1465.2002469 352.28898682 1439.64176961 367.22509766 1413.58105469 C367.67449707 1412.79698242 368.12389648 1412.01291016 368.58691406 1411.20507812 C376.56003072 1397.22490402 383.89087348 1382.90350877 391.22509766 1368.58105469 C391.71655273 1367.62682617 392.20800781 1366.67259766 392.71435547 1365.68945312 C432.23127925 1288.84329791 459.75277889 1204.7026182 495.22509766 936.58105469 C495.24169434 935.62585937 495.25829102 934.67066406 495.27539062 933.68652344 C496.60539345 849.22313388 485.90400524 763.95872294 463.22509766 675.58105469 C463.0390094 674.86228149 462.85292114 674.1435083 462.66119385 673.4029541 C448.97209879 620.63377242 430.83874599 569.09240264 408.12036133 519.53765869 C407.23741905 517.60798316 406.36023398 515.67579637 405.48486328 513.74267578 C398.76448188 498.91606284 391.67040645 484.3075936 384.22509766 469.83105469 C383.86756409 469.13454803 383.51003052 468.43804138 383.1416626 467.72042847 C379.45112619 460.54793822 375.67321701 453.46931465 371.45410156 446.58886719 C370.02423243 444.252903 368.70240392 441.87188229 367.41259766 439.45605469 C349.55396439 406.53206156 329.0947529 374.72169636 306.75244141 344.64550781 C305.08327322 342.38935594 303.43457868 340.11907333 301.78759766 337.84667969 C295.20829618 328.79663572 288.42323937 319.9803875 281.30712891 311.34667969 C278.37789216 307.78890227 275.54685255 304.16169678 272.72509766 300.51855469 C267.33826374 293.59837873 261.60309415 287.00705989 255.82177734 280.41601562 C254.29694663 278.66362608 252.79213908 276.89653276 251.29541016 275.12011719 C243.88450079 266.33136954 236.08481902 257.96326165 228.1640625 249.63330078 C226.39466627 247.76053011 224.64307976 245.87363189 222.90087891 243.97558594 C215.56742218 235.99369025 208.00455063 228.25389281 200.35009766 220.58105469 C199.61120804 219.83828278 199.61120804 219.83828278 198.85739136 219.08050537 C193.69715683 213.89884478 188.50794928 208.79869266 182.92578125 204.06738281 C181.10809356 202.47879787 179.41490413 200.80435509 177.72509766 199.08105469 C174.75774443 196.06691886 171.65164473 193.28188136 168.44775391 190.52246094 C165.89532883 188.29301408 163.40622252 186.00104087 160.91259766 183.70605469 C156.46908116 179.65264115 151.89911669 175.81921592 147.21728516 172.04589844 C144.41977405 169.74142127 141.69380392 167.37649199 138.97485352 164.98095703 C131.06945612 158.02371317 122.85161425 151.60046004 114.44287109 145.26660156 C111.38273668 142.94084551 108.36010816 140.56857542 105.33618164 138.19604492 C97.73790792 132.23767478 90.05705388 126.45542707 82.14208984 120.92529297 C80.02982192 119.44412293 77.9281823 117.94852259 75.82666016 116.45214844 C47.01542834 96.01214722 17.10351751 77.17361448 -13.86523438 60.18212891 C-16.54994901 58.70483754 -19.22431969 57.21066277 -21.89599609 55.70996094 C-93.8744979 15.5224298 -172.18806642 -14.78856387 -981.99951172 62.96679688 Z " fill="#000000" transform="translate(1536.77490234375,115.4189453125)"/>
<path d="M0 0 C0 453.75 0 907.5 0 1375 C-3.50424302 1373.59830279 -5.83817606 1372.60418992 -8.81665039 1370.57104492 C-9.53685867 1370.08306931 -10.25706696 1369.59509369 -10.99909973 1369.09233093 C-11.77412338 1368.56041641 -12.54914703 1368.02850189 -13.34765625 1367.48046875 C-14.17524948 1366.91854324 -15.00284271 1366.35661774 -15.85551453 1365.77766418 C-17.65111288 1364.55819964 -19.44535825 1363.33674107 -21.23840332 1362.11352539 C-26.08504525 1358.80813026 -30.94265514 1355.51895296 -35.80078125 1352.23046875 C-37.30957352 1351.20879105 -37.30957352 1351.20879105 -38.84884644 1350.16647339 C-49.42189317 1343.01853225 -60.08082075 1336.00327475 -70.75 1329 C-83.70344826 1320.49181128 -96.61619188 1311.93382311 -109.42614746 1303.21102905 C-121.23482955 1295.17064585 -133.10941342 1287.23119877 -145 1279.3125 C-145.88955383 1278.72008514 -146.77910767 1278.12767029 -147.69561768 1277.51730347 C-151.77434905 1274.80141357 -155.85366597 1272.08640665 -159.93359375 1269.37231445 C-161.01872597 1268.60827862 -161.01872597 1268.60827862 -162.12578005 1267.82880771 C-164.34342586 1266.41776477 -166.34049788 1265.36113385 -168.7112661 1264.2902137 C-173.7102495 1261.83525164 -178.74402463 1259.20000161 -180.86970453 1253.78414771 C-182.30535483 1246.95895222 -181.97125673 1239.97898641 -181.84178162 1233.04415894 C-181.85245752 1230.67198037 -181.86972044 1228.29982387 -181.89299351 1225.92773545 C-181.92848569 1220.77493722 -181.91758272 1215.62440102 -181.86545753 1210.47183418 C-181.78820702 1202.81060055 -181.79728552 1195.15114777 -181.82379113 1187.48965693 C-181.86594781 1174.60119131 -181.83848499 1161.71375692 -181.77114677 1148.82543564 C-181.70471618 1136.06715138 -181.6693502 1123.3094016 -181.67534065 1110.55093765 C-181.6756959 1109.75724834 -181.67605116 1108.96355904 -181.67641717 1108.14581854 C-181.67838263 1104.11496205 -181.68090183 1100.08410612 -181.68363417 1096.05325009 C-181.70198464 1067.5131426 -181.65088322 1038.97354083 -181.55883789 1010.43359375 C-181.46958439 982.70993336 -181.41185222 954.98649962 -181.39672852 927.26269531 C-181.39624968 926.40791654 -181.39577084 925.55313776 -181.3952775 924.6724566 C-181.39050353 916.08830489 -181.38636969 907.50415297 -181.38270481 898.92000072 C-181.37522465 881.43357242 -181.36347243 863.94714785 -181.34913635 846.46072388 C-181.34848249 845.65675162 -181.34782863 844.85277937 -181.34715496 844.02444432 C-181.30301215 790.34949124 -181.15897581 736.67472073 -181 683 C-181.76704899 683.51780352 -181.76704899 683.51780352 -182.54959393 684.04606771 C-187.93104602 687.67871409 -193.31300238 691.31061248 -198.69523621 694.94210052 C-200.69680694 696.29273337 -202.69825425 697.64354915 -204.6995697 698.99456024 C-217.61331908 707.7119205 -230.54526494 716.39475413 -243.58618164 724.92114258 C-259.86578904 735.56949102 -276.03083628 746.37928148 -292.13796997 757.28631592 C-308.39971503 768.29442307 -324.77205118 779.12898833 -341.19140625 789.90039062 C-342.0885585 790.48944183 -342.98571075 791.07849304 -343.91004944 791.68539429 C-345.58454616 792.78449426 -347.25982028 793.88241115 -348.9360199 794.97891235 C-349.6795723 795.46685272 -350.42312469 795.95479309 -351.18920898 796.45751953 C-351.832285 796.87856964 -352.47536102 797.29961975 -353.13792419 797.73342896 C-354.49828604 798.65873765 -355.81907004 799.64299444 -357.11317444 800.65890503 C-359 802 -359 802 -361 802 C-361 911.89 -361 1021.78 -361 1135 C-367.75688974 1130.70016107 -374.49834836 1126.39395481 -381.1875 1121.9921875 C-382.03098999 1121.43769928 -382.87447998 1120.88321106 -383.74353027 1120.31192017 C-386.49658282 1118.5009703 -389.24844666 1116.68822685 -392 1114.875 C-392.95962646 1114.24295654 -393.91925293 1113.61091309 -394.90795898 1112.9597168 C-410.05874216 1102.97604304 -425.12676769 1092.87547899 -440.15234375 1082.70462036 C-456.77748069 1071.45469261 -473.51816265 1060.38668464 -490.29298401 1049.36157227 C-491.17469772 1048.78205811 -492.05641144 1048.20254395 -492.96484375 1047.60546875 C-493.83048447 1047.03658936 -494.69612518 1046.46770996 -495.58799744 1045.8815918 C-504.31248135 1040.14419143 -513.0016738 1034.35447125 -521.67382812 1028.53833008 C-522.62837891 1027.89919678 -523.58292969 1027.26006348 -524.56640625 1026.6015625 C-525.40421037 1026.01122622 -526.24201449 1025.42088994 -527.10520661 1024.81266469 C-529.89136697 1022.91467983 -529.89136697 1022.91467983 -532.88114345 1022.01601964 C-536.64514225 1020.51151185 -538.46856852 1019.20744517 -541 1016 C-543.33745792 1007.84624836 -542.60675333 998.82296273 -542.5852356 990.42887878 C-542.61795204 987.73532279 -542.65495024 985.04213109 -542.69710147 982.34873754 C-542.79086257 975.71301794 -542.82544129 969.07818095 -542.84186055 962.44187102 C-542.86422324 954.49244508 -542.94976726 946.54401002 -543.03608035 938.59506646 C-543.24139268 919.37861323 -543.33378477 900.16210451 -543.41060174 880.944782 C-543.44754073 871.84761544 -543.49688559 862.75052815 -543.5471858 853.65342726 C-543.71873125 822.49471023 -543.86227508 791.33600302 -543.92411995 760.17685986 C-543.92807662 758.22083305 -543.93204087 756.26480627 -543.93601268 754.3087795 C-543.9379767 753.33878894 -543.93994073 752.36879839 -543.94196427 751.36941418 C-543.95193237 746.45517891 -543.9620046 741.54094386 -543.97216797 736.62670898 C-543.97415582 735.65147212 -543.97614368 734.67623525 -543.97819177 733.67144575 C-544.0436413 702.0810308 -544.26364672 670.49431104 -544.57545545 638.90543165 C-544.90472962 605.48586893 -545.09112827 572.0684465 -545.11682498 538.64722711 C-545.12018728 534.97336239 -545.12414175 531.29949878 -545.12853622 527.62563515 C-545.12955422 526.72106693 -545.13057221 525.81649872 -545.13162105 524.88451935 C-545.15131732 510.36512879 -545.30005692 495.8498457 -545.49602258 481.33188698 C-545.69006784 466.71560807 -545.73812996 452.10434881 -545.64119889 437.48706039 C-545.59253019 429.57444721 -545.60550587 421.6741763 -545.79705429 413.76340485 C-546.89892524 366.26695393 -546.89892524 366.26695393 -537.14061689 354.95182443 C-528.39321005 346.35244375 -517.67289908 340.89502631 -506.52613997 336.05755579 C-500.60111535 333.46171027 -495.54223035 329.95835203 -490.33203125 326.13671875 C-488.7326218 325.04474255 -487.1296907 323.95788494 -485.52148438 322.87890625 C-484.75537842 322.3595752 -483.98927246 321.84024414 -483.19995117 321.30517578 C-466.97560513 310.31197434 -450.65794454 299.46868835 -434.27636719 288.71148682 C-415.56193616 276.41858363 -396.98729928 263.9227131 -378.45246887 251.36097717 C-377.02399978 250.39331552 -375.59445832 249.42723456 -374.16372681 248.46292114 C-372.61383723 247.41502257 -371.06896211 246.3596924 -369.5274353 245.29953003 C-368.7194046 244.74878815 -367.9113739 244.19804626 -367.07885742 243.63061523 C-366.34559738 243.12707016 -365.61233734 242.62352509 -364.8568573 242.10472107 C-363 241 -363 241 -361 241 C-361 364.09 -361 487.18 -361 614 C-348.16915419 606.0165255 -348.16915419 606.0165255 -335.578125 597.69921875 C-333.89975884 596.56116952 -332.22137255 595.42314997 -330.54296875 594.28515625 C-329.6823584 593.70008301 -328.82174805 593.11500977 -327.93505859 592.51220703 C-312.04142785 581.71124357 -296.06428222 571.04521102 -280 560.5 C-265.20444372 550.78430683 -250.47667776 540.97541519 -235.8125 531.0625 C-234.02873516 529.85716597 -232.24496246 528.65184358 -230.46118164 527.4465332 C-227.84960687 525.6816813 -225.2380687 523.91677535 -222.62663269 522.15171814 C-214.46844517 516.63854652 -206.30564235 511.13239075 -198.12435913 505.65353394 C-196.67857756 504.68430605 -195.23391511 503.71340649 -193.79043579 502.74075317 C-191.83060888 501.42048066 -189.86705492 500.10595759 -187.90234375 498.79296875 C-187.32751251 498.40392365 -186.75268127 498.01487854 -186.16043091 497.61404419 C-182.22851091 495 -182.22851091 495 -180 495 C-180.00341748 494.20916942 -180.00683497 493.41833884 -180.01035601 492.6035437 C-180.21169006 445.7488307 -180.36614408 398.89416471 -180.45958797 352.03910595 C-180.47084454 346.41514868 -180.48249342 340.79119229 -180.49438477 335.16723633 C-180.49792596 333.48776978 -180.49792596 333.48776978 -180.50153869 331.77437461 C-180.54071736 313.63712744 -180.61168766 295.5001366 -180.69437516 277.36304157 C-180.77849246 258.75736959 -180.82851915 240.15183199 -180.84679645 221.54597765 C-180.85915536 210.06187761 -180.89821027 198.57850202 -180.9712482 187.09462494 C-181.01876488 179.22328184 -181.03321401 171.3523141 -181.0215124 163.48083793 C-181.01573851 158.93680069 -181.02468394 154.3940306 -181.07284927 149.85021782 C-181.1166264 145.69004352 -181.11887923 141.53198887 -181.08809005 137.37171728 C-181.08428478 135.8668494 -181.09572747 134.36184967 -181.12394864 132.85724162 C-181.32221145 121.63436622 -181.32221145 121.63436622 -178.07791507 117.62413895 C-175.79569911 115.81595844 -173.54913505 114.39849672 -171 113 C-169.53304797 112.01215648 -168.07244212 111.01474784 -166.62158203 110.00341797 C-165.0861189 108.99591529 -163.5480802 107.99232954 -162.0078125 106.9921875 C-161.16149261 106.43769928 -160.31517273 105.88321106 -159.44320679 105.31192017 C-157.62271235 104.11927924 -155.80120064 102.9281899 -153.97875977 101.73852539 C-149.03424848 98.50972441 -144.09871095 95.26728578 -139.1640625 92.0234375 C-138.14882507 91.3561261 -137.13358765 90.6888147 -136.08758545 90.00128174 C-125.8348261 83.25135322 -115.66300445 76.38400621 -105.5 69.5 C-89.1790281 58.45076372 -72.76634877 47.54942346 -56.29370117 36.7277832 C-47.04138677 30.64807127 -37.80308341 24.54898205 -28.59765625 18.3984375 C-27.68223053 17.78689316 -26.76680481 17.17534882 -25.82363892 16.54527283 C-21.45189538 13.62345244 -17.08256467 10.69808475 -12.71582031 7.76879883 C-11.17124964 6.73515043 -9.62665472 5.70153825 -8.08203125 4.66796875 C-7.37393814 4.19140839 -6.66584503 3.71484802 -5.93629456 3.22384644 C-1.11311361 0 -1.11311361 0 0 0 Z " fill="#467B76" transform="translate(944,353)"/>
<path d="M0 0 C2.30321092 0.87805293 3.96174454 1.96840919 5.93139648 3.45043945 C7.05094727 4.28478516 7.05094727 4.28478516 8.19311523 5.13598633 C8.99233398 5.74120117 9.79155273 6.34641602 10.61499023 6.9699707 C12.33491812 8.25529316 14.05497373 9.54044473 15.77514648 10.82543945 C16.65315918 11.48463379 17.53117187 12.14382813 18.43579102 12.82299805 C22.45669598 15.83398734 26.50488459 18.8075312 30.55249023 21.7824707 C32.13469384 22.94760127 33.71672452 24.11296669 35.29858398 25.27856445 C36.08217285 25.85590332 36.86576172 26.43324219 37.6730957 27.02807617 C40.06238543 28.78976671 42.45019097 30.55345169 44.83764648 32.31762695 C53.29144012 38.56131795 61.7658244 44.77331441 70.30078125 50.90576172 C71.66233293 51.88503095 73.00594395 52.88966793 74.33166176 53.91692811 C76.50140188 55.40461565 78.36822717 56.41890872 80.7284078 57.49909657 C85.3389663 59.8493132 89.14714017 62.42244196 92.05249023 66.7824707 C94.8103711 75.36460989 94.12148556 84.80323689 93.99810763 93.72089701 C93.96264175 97.48374097 94.01436476 101.24558225 94.05475515 105.00823754 C94.11347512 111.59812497 94.11653839 118.18620701 94.08282089 124.77624321 C94.03281835 134.57560604 94.06857018 144.37336093 94.12094446 154.17264393 C94.21153076 171.67512588 94.21584671 189.17683483 94.18288538 206.67947368 C94.15411859 221.99799722 94.15197907 237.31622422 94.17654228 252.63475609 C94.17973968 254.68966316 94.1829363 256.74457023 94.18613217 258.79947731 C94.1909954 261.89605618 94.1958923 264.99263499 94.20087125 268.08921368 C94.24664124 296.87845516 94.26315097 325.66759705 94.21708012 354.45684528 C94.21534381 355.54206834 94.21360751 356.6272914 94.21181859 357.7454 C94.1975245 366.55812972 94.18235059 375.37085794 94.16712541 384.18358609 C94.10835175 418.55767218 94.1359491 452.93070099 94.234375 487.3046875 C94.34473315 525.92773977 94.39599806 564.55017304 94.35613817 603.17338341 C94.35206571 607.29183482 94.34816551 611.41028636 94.34435844 615.52873802 C94.34337455 616.5427982 94.34239066 617.55685838 94.34137696 618.60164765 C94.32764688 633.90779762 94.35954625 649.21341884 94.41411018 664.51946449 C94.47600252 681.92773885 94.4742362 699.33469371 94.38821299 716.74289314 C94.34191075 726.48358676 94.34504192 736.22127866 94.4197941 745.96181204 C94.4647508 752.47232522 94.44400119 758.98051533 94.37032538 765.4907607 C94.33017721 769.19915403 94.31788059 772.90164973 94.38556922 776.60977641 C94.77712543 799.6537682 94.77712543 799.6537682 88.13379753 806.53431928 C84.43763659 809.69501384 80.51243261 812.22177995 76.2524355 814.55254688 C73.04970588 816.34309754 70.18937371 818.47737249 67.23999023 820.6574707 C66.11407964 821.45414043 64.98663641 822.24865171 63.85717773 823.0402832 C59.10860033 826.42553456 54.49385135 829.98631793 49.86499023 833.5324707 C40.81135183 840.46564956 31.6703204 847.26641116 22.4699707 854.00317383 C19.87540973 855.91280424 17.2931908 857.83832172 14.71264648 859.7668457 C13.83882324 860.41766113 12.965 861.06847656 12.06469727 861.73901367 C10.379348 862.99479544 8.69661964 864.25410419 7.0168457 865.51733398 C6.26419434 866.07662598 5.51154297 866.63591797 4.73608398 867.2121582 C3.73919556 867.95828369 3.73919556 867.95828369 2.72216797 868.71948242 C1.05249023 869.7824707 1.05249023 869.7824707 -0.94750977 869.7824707 C-0.94750977 869.1224707 -0.94750977 868.4624707 -0.94750977 867.7824707 C-1.52750732 867.50951172 -2.10750488 867.23655273 -2.70507812 866.95532227 C-4.92253684 865.79553221 -6.82080208 864.50987818 -8.82641602 863.0168457 C-9.57262207 862.46399902 -10.31882812 861.91115234 -11.08764648 861.34155273 C-11.88702637 860.74455566 -12.68640625 860.14755859 -13.51000977 859.5324707 C-15.23256031 858.25368246 -16.95521951 856.97504059 -18.67797852 855.6965332 C-19.55631348 855.04330078 -20.43464844 854.39006836 -21.33959961 853.71704102 C-23.78234234 851.90499333 -26.23198329 850.10293277 -28.68579102 848.3059082 C-37.89811003 841.55699919 -47.01920476 834.70053991 -56.08911133 827.76147461 C-63.48434659 822.11283202 -70.95190498 816.56758234 -78.45532227 811.0637207 C-79.12371169 810.56037926 -79.79210112 810.05703781 -80.48074477 809.53844359 C-82.95165204 807.72425552 -82.95165204 807.72425552 -85.7429992 806.14717177 C-93.31379145 801.45369442 -93.31379145 801.45369442 -94.9720702 797.08052938 C-95.37216219 793.81236725 -95.42132394 790.69746418 -95.35410881 787.40527916 C-95.37249343 786.16435322 -95.39087805 784.92342728 -95.40981978 783.64489752 C-95.44969716 780.19954414 -95.44039192 776.76069078 -95.41026375 773.31566059 C-95.3895664 769.5689187 -95.43251076 765.82281293 -95.46726716 762.07624972 C-95.51932066 755.51006434 -95.53034611 748.9447989 -95.51447678 742.37844086 C-95.49093925 732.61402333 -95.53001332 722.85055332 -95.5810987 713.0862774 C-95.67521866 694.63246394 -95.69435226 676.17902964 -95.68981491 657.72501175 C-95.68661586 643.47374079 -95.70217697 629.22260437 -95.73099136 614.97136307 C-95.73503823 612.92445563 -95.73907392 610.87754817 -95.74309848 608.83064068 C-95.74509747 607.81457118 -95.74709647 606.79850168 -95.74915604 605.7516422 C-95.75115701 604.73371828 -95.75315797 603.71579436 -95.75521958 602.66702425 C-95.75723365 601.6474035 -95.75924772 600.62778275 -95.76132283 599.5772644 C-95.81739072 570.89415977 -95.85011774 542.21110413 -95.83538628 513.52794456 C-95.83483925 512.44637204 -95.83429223 511.36479952 -95.83372863 510.25045207 C-95.83089572 504.768536 -95.82786321 499.28662004 -95.82476519 493.80470411 C-95.8241522 492.71596776 -95.82353921 491.62723141 -95.82290765 490.50550304 C-95.8216655 488.30381193 -95.82041092 486.10212084 -95.81914393 483.90042974 C-95.8000113 449.64766125 -95.86131702 415.39585093 -95.98510742 381.14331055 C-96.12406799 342.66424871 -96.19926762 304.18579894 -96.18256485 265.70647013 C-96.18100566 261.60313778 -96.17967749 257.49980541 -96.17850113 253.39647293 C-96.17817066 252.3861227 -96.1778402 251.37577248 -96.17749971 250.33480558 C-96.17385767 235.08344479 -96.22039315 219.83275967 -96.29259872 204.58158493 C-96.37470426 187.23364912 -96.39079 169.88710867 -96.31868111 152.53909723 C-96.28031508 142.83155102 -96.29435622 133.12742977 -96.38415835 123.42020474 C-96.43891256 116.93178151 -96.42431221 110.44587695 -96.35388006 103.95761186 C-96.31569243 100.26149566 -96.30694776 96.57202279 -96.38275681 92.87633686 C-96.78949311 71.64988253 -96.78949311 71.64988253 -92.12198249 65.29826692 C-87.75389315 61.00937031 -82.8490882 58.00916974 -77.45402123 55.18064769 C-73.21392117 52.81544394 -69.42392122 49.84974339 -65.57250977 46.9074707 C-64.69812256 46.26511475 -63.82373535 45.62275879 -62.92285156 44.9609375 C-57.02842548 40.60987955 -51.20104197 36.17506413 -45.38500977 31.7199707 C-38.12599004 26.16170036 -30.8078006 20.70466728 -23.36474609 15.39501953 C-19.74618409 12.81347698 -16.16291088 10.20187799 -12.63500977 7.49731445 C-11.94971191 6.97693604 -11.26441406 6.45655762 -10.55834961 5.92041016 C-9.26944822 4.93844287 -7.98798836 3.94660101 -6.71557617 2.94335938 C-2.4651747 -0.27535046 -2.4651747 -0.27535046 0 0 Z " fill="#130F11" transform="translate(1416.947509765625,606.217529296875)"/>
<path d="M0 0 C6.93 0 13.86 0 21 0 C21 280.17 21 560.34 21 849 C14.07 849 7.14 849 0 849 C0 568.83 0 288.66 0 0 Z " fill="#406F6D" transform="translate(1031,617)"/>
<path d="M0 0 C0.37697021 1.04115967 0.75394043 2.08231934 1.14233398 3.1550293 C10.08280511 28.15356388 10.08280511 28.15356388 20.24584961 52.66870117 C24.96915034 63.19628616 27.20586052 72.42606435 27 84 C23.3572736 83.37740263 20.18898904 82.37589558 16.78515625 80.9453125 C15.7278833 80.50445313 14.67061035 80.06359375 13.58129883 79.609375 C12.42009521 79.11953125 11.2588916 78.6296875 10.0625 78.125 C7.48519448 77.04231131 4.90678707 75.96226578 2.328125 74.8828125 C1.62202591 74.5867511 0.91592682 74.2906897 0.18843079 73.98565674 C-5.16742943 71.74689302 -10.54294476 69.55960045 -15.92662048 67.38864136 C-20.1336089 65.69135943 -24.33630867 63.98359072 -28.53884888 62.27532959 C-30.63778054 61.42517835 -32.73860029 60.5796738 -34.84127808 59.73883057 C-37.81996799 58.54664948 -40.79132877 57.33768506 -43.76171875 56.125 C-45.11762115 55.58962112 -45.11762115 55.58962112 -46.50091553 55.04342651 C-47.74315887 54.53079758 -47.74315887 54.53079758 -49.01049805 54.0078125 C-49.73577194 53.71535645 -50.46104584 53.42290039 -51.20829773 53.12158203 C-53.42201749 51.73582261 -54.04269867 50.39053876 -55 48 C-50.92310647 46.6125115 -46.82631782 45.37507288 -42.6875 44.1875 C-31.21787352 40.63334787 -20.34979119 34.27755412 -14.109375 23.61328125 C-12.24959651 19.23232417 -11.06350354 14.61625464 -9.96191406 9.99047852 C-8.99317101 6.2206379 -8.32451176 4.33067337 -5.53125 1.484375 C-3 0 -3 0 0 0 Z " fill="#DEEDE3" transform="translate(1619,1614)"/>
<path d="M0 0 C1.8871875 0.0309375 1.8871875 0.0309375 3.8125 0.0625 C1.17593684 14.02470686 -2.02205044 27.75779837 -5.625 41.5 C-6.56412893 45.10210717 -7.4997396 48.70511574 -8.43359375 52.30859375 C-8.66154633 53.18566986 -8.8894989 54.06274597 -9.12435913 54.96640015 C-11.05957701 62.45795123 -12.86038213 69.97881441 -14.60484314 77.51695251 C-14.79848953 78.34675125 -14.99213593 79.17654999 -15.19165039 80.03149414 C-15.36048233 80.76356583 -15.52931427 81.49563751 -15.70326233 82.24989319 C-16.1875 84.0625 -16.1875 84.0625 -17.1875 86.0625 C-20.10389855 85.0349925 -21.0347033 84.36293769 -22.4609375 81.55859375 C-22.82445312 80.54925781 -23.18796875 79.53992188 -23.5625 78.5 C-28.36225529 66.2890724 -35.71060774 56.65279271 -47.79296875 51.0703125 C-48.58316406 50.73773438 -49.37335938 50.40515625 -50.1875 50.0625 C-50.94546875 49.70671875 -51.7034375 49.3509375 -52.484375 48.984375 C-56.66894364 47.55726778 -61.00816869 47.35507536 -65.39257812 47.02734375 C-68.93941918 46.67432483 -70.90518865 46.29665496 -73.68359375 43.9921875 C-74.42802734 43.03699219 -74.42802734 43.03699219 -75.1875 42.0625 C-73.98231451 38.44694352 -73.22349016 38.22208711 -69.98828125 36.42578125 C-69.11582764 35.93513184 -68.24337402 35.44448242 -67.34448242 34.93896484 C-66.40580322 34.42285645 -65.46712402 33.90674805 -64.5 33.375 C-63.54262939 32.8382666 -62.58525879 32.3015332 -61.59887695 31.74853516 C-58.7990719 30.17925066 -55.99366068 28.62038151 -53.1875 27.0625 C-46.4749574 23.30478318 -39.82096466 19.49302113 -33.3359375 15.35375977 C-9.04387071 -0.14826018 -9.04387071 -0.14826018 0 0 Z " fill="#DEEDE3" transform="translate(1616.1875,372.9375)"/>
<path d="M0 0 C3.10305121 1.0343504 5.42149761 1.86415994 6.9609375 4.88671875 C7.72544053 7.24188131 8.38335524 9.60193705 9 12 C12.37126327 24.11157545 18.96679432 33.00233037 29.71875 39.69140625 C37.46617739 43.84627658 45.49653236 46.02515096 54 48 C54 48.99 54 49.98 54 51 C9.36802347 70.04026243 9.36802347 70.04026243 -12.11230469 78.81884766 C-14.04287193 79.60850646 -15.97061474 80.4051048 -17.89550781 81.20849609 C-18.78850586 81.57668457 -19.68150391 81.94487305 -20.6015625 82.32421875 C-21.38096191 82.64865967 -22.16036133 82.97310059 -22.96337891 83.30737305 C-25 84 -25 84 -28 84 C-29.17991093 70.07049596 -23.70605939 56.57724368 -17.6640625 44.28125 C-13.4084065 35.53481887 -10.30856172 26.51413338 -7.24707031 17.28857422 C-5.22097214 11.24539873 -3.02290843 5.61494983 0 0 Z " fill="#DFEDE3" transform="translate(470,1604)"/>
<path d="M0 0 C7.40270417 -0.40999592 13.10199817 0.93024072 20.0625 3.375 C21.10688232 3.73223145 22.15126465 4.08946289 23.22729492 4.45751953 C31.53657981 7.35620867 39.64382174 10.66423518 47.73266602 14.12402344 C59.65221621 19.19983616 71.82095234 23.59161566 84 28 C83.19621196 31.81374958 82.0895718 33.51674349 79 36 C76.3359375 36.87109375 76.3359375 36.87109375 73.375 37.4375 C61.28056507 40.16612252 52.60021836 45.86970774 45.66796875 56.19921875 C40.68885155 64.55993779 38.06116418 73.54880816 36 83 C33.61947279 82.04469418 32.26710771 81.42604965 30.88514709 79.22175598 C30.59570724 78.5025145 30.3062674 77.78327301 30.00805664 77.04223633 C29.66949646 76.22045395 29.33093628 75.39867157 28.9821167 74.55198669 C28.62836975 73.6544014 28.2746228 72.7568161 27.91015625 71.83203125 C27.33808441 70.42903526 27.33808441 70.42903526 26.75445557 68.99769592 C25.51112675 65.94092985 24.28674053 62.87695488 23.0625 59.8125 C22.2145156 57.71640048 21.36514451 55.62086144 20.5144043 53.52587891 C19.23237501 50.36832473 17.95133605 47.21041282 16.67549133 44.050354 C14.12573621 37.73961663 11.52826387 31.45267046 8.859375 25.19140625 C8.55080063 24.46607193 8.24222626 23.74073761 7.92430115 22.99342346 C6.77813589 20.30230779 5.63063247 17.61186206 4.47122192 14.92642212 C3.69995913 13.13846972 2.93761276 11.3466788 2.17578125 9.5546875 C1.75208252 8.56968262 1.32838379 7.58467773 0.8918457 6.56982422 C0 4 0 4 0 0 Z " fill="#DFEDE4" transform="translate(421,419)"/>
</svg>
